G04 #@! TF.GenerationSoftware,KiCad,Pcbnew,(5.1.4-0-10_14)*
G04 #@! TF.CreationDate,2019-11-18T23:58:44+01:00*
G04 #@! TF.ProjectId,liberation,6c696265-7261-4746-996f-6e2e6b696361,rev?*
G04 #@! TF.SameCoordinates,Original*
G04 #@! TF.FileFunction,Soldermask,Bot*
G04 #@! TF.FilePolarity,Negative*
%FSLAX46Y46*%
G04 Gerber Fmt 4.6, Leading zero omitted, Abs format (unit mm)*
G04 Created by KiCad (PCBNEW (5.1.4-0-10_14)) date 2019-11-18 23:58:44*
%MOMM*%
%LPD*%
G04 APERTURE LIST*
%ADD10C,0.100000*%
G04 APERTURE END LIST*
D10*
G36*
X148896564Y-145674389D02*
G01*
X149087833Y-145753615D01*
X149087835Y-145753616D01*
X149259973Y-145868635D01*
X149406365Y-146015027D01*
X149521385Y-146187167D01*
X149600611Y-146378436D01*
X149641000Y-146581484D01*
X149641000Y-146788516D01*
X149600611Y-146991564D01*
X149521385Y-147182833D01*
X149521384Y-147182835D01*
X149406365Y-147354973D01*
X149259973Y-147501365D01*
X149087835Y-147616384D01*
X149087834Y-147616385D01*
X149087833Y-147616385D01*
X148896564Y-147695611D01*
X148693516Y-147736000D01*
X148486484Y-147736000D01*
X148283436Y-147695611D01*
X148092167Y-147616385D01*
X148092166Y-147616385D01*
X148092165Y-147616384D01*
X147920027Y-147501365D01*
X147773635Y-147354973D01*
X147658616Y-147182835D01*
X147658615Y-147182833D01*
X147579389Y-146991564D01*
X147539000Y-146788516D01*
X147539000Y-146581484D01*
X147579389Y-146378436D01*
X147658615Y-146187167D01*
X147773635Y-146015027D01*
X147920027Y-145868635D01*
X148092165Y-145753616D01*
X148092167Y-145753615D01*
X148283436Y-145674389D01*
X148486484Y-145634000D01*
X148693516Y-145634000D01*
X148896564Y-145674389D01*
X148896564Y-145674389D01*
G37*
G36*
X136196564Y-145674389D02*
G01*
X136387833Y-145753615D01*
X136387835Y-145753616D01*
X136559973Y-145868635D01*
X136706365Y-146015027D01*
X136821385Y-146187167D01*
X136900611Y-146378436D01*
X136941000Y-146581484D01*
X136941000Y-146788516D01*
X136900611Y-146991564D01*
X136821385Y-147182833D01*
X136821384Y-147182835D01*
X136706365Y-147354973D01*
X136559973Y-147501365D01*
X136387835Y-147616384D01*
X136387834Y-147616385D01*
X136387833Y-147616385D01*
X136196564Y-147695611D01*
X135993516Y-147736000D01*
X135786484Y-147736000D01*
X135583436Y-147695611D01*
X135392167Y-147616385D01*
X135392166Y-147616385D01*
X135392165Y-147616384D01*
X135220027Y-147501365D01*
X135073635Y-147354973D01*
X134958616Y-147182835D01*
X134958615Y-147182833D01*
X134879389Y-146991564D01*
X134839000Y-146788516D01*
X134839000Y-146581484D01*
X134879389Y-146378436D01*
X134958615Y-146187167D01*
X135073635Y-146015027D01*
X135220027Y-145868635D01*
X135392165Y-145753616D01*
X135392167Y-145753615D01*
X135583436Y-145674389D01*
X135786484Y-145634000D01*
X135993516Y-145634000D01*
X136196564Y-145674389D01*
X136196564Y-145674389D01*
G37*
G36*
X99801626Y-142152037D02*
G01*
X99971465Y-142203557D01*
X99971467Y-142203558D01*
X100127989Y-142287221D01*
X100265186Y-142399814D01*
X100348448Y-142501271D01*
X100377778Y-142537009D01*
X100461443Y-142693534D01*
X100512963Y-142863373D01*
X100526000Y-142995742D01*
X100526000Y-143784258D01*
X100512963Y-143916627D01*
X100461443Y-144086466D01*
X100377778Y-144242991D01*
X100348448Y-144278729D01*
X100265186Y-144380186D01*
X100163729Y-144463448D01*
X100127991Y-144492778D01*
X99971466Y-144576443D01*
X99801627Y-144627963D01*
X99625000Y-144645359D01*
X99448374Y-144627963D01*
X99278535Y-144576443D01*
X99122010Y-144492778D01*
X99086272Y-144463448D01*
X98984815Y-144380186D01*
X98901553Y-144278729D01*
X98872223Y-144242991D01*
X98788558Y-144086466D01*
X98737037Y-143916627D01*
X98724000Y-143784258D01*
X98724000Y-142995743D01*
X98737037Y-142863374D01*
X98788557Y-142693535D01*
X98872222Y-142537010D01*
X98872223Y-142537009D01*
X98984814Y-142399814D01*
X99086271Y-142316552D01*
X99122009Y-142287222D01*
X99278534Y-142203557D01*
X99448373Y-142152037D01*
X99625000Y-142134641D01*
X99801626Y-142152037D01*
X99801626Y-142152037D01*
G37*
G36*
X118506000Y-142641000D02*
G01*
X113904000Y-142641000D01*
X113904000Y-140039000D01*
X118506000Y-140039000D01*
X118506000Y-142641000D01*
X118506000Y-142641000D01*
G37*
G36*
X104220285Y-138908234D02*
G01*
X104316981Y-138927468D01*
X104499151Y-139002926D01*
X104663100Y-139112473D01*
X104802527Y-139251900D01*
X104912074Y-139415849D01*
X104987532Y-139598019D01*
X105026000Y-139791410D01*
X105026000Y-139988590D01*
X104987532Y-140181981D01*
X104912074Y-140364151D01*
X104802527Y-140528100D01*
X104663100Y-140667527D01*
X104499151Y-140777074D01*
X104316981Y-140852532D01*
X104220285Y-140871766D01*
X104123591Y-140891000D01*
X103926409Y-140891000D01*
X103829715Y-140871766D01*
X103733019Y-140852532D01*
X103550849Y-140777074D01*
X103386900Y-140667527D01*
X103247473Y-140528100D01*
X103137926Y-140364151D01*
X103062468Y-140181981D01*
X103024000Y-139988590D01*
X103024000Y-139791410D01*
X103062468Y-139598019D01*
X103137926Y-139415849D01*
X103247473Y-139251900D01*
X103386900Y-139112473D01*
X103550849Y-139002926D01*
X103733019Y-138927468D01*
X103829715Y-138908234D01*
X103926409Y-138889000D01*
X104123591Y-138889000D01*
X104220285Y-138908234D01*
X104220285Y-138908234D01*
G37*
G36*
X117364473Y-134598413D02*
G01*
X117460040Y-134607825D01*
X117705280Y-134682218D01*
X117931294Y-134803025D01*
X117982899Y-134845376D01*
X118129397Y-134965603D01*
X118249624Y-135112101D01*
X118291975Y-135163706D01*
X118412782Y-135389720D01*
X118487175Y-135634960D01*
X118512294Y-135890000D01*
X118487175Y-136145040D01*
X118412782Y-136390280D01*
X118291975Y-136616294D01*
X118249929Y-136667527D01*
X118129397Y-136814397D01*
X117982899Y-136934624D01*
X117931294Y-136976975D01*
X117705280Y-137097782D01*
X117460040Y-137172175D01*
X117364472Y-137181588D01*
X117268906Y-137191000D01*
X115141094Y-137191000D01*
X115045528Y-137181588D01*
X114949960Y-137172175D01*
X114704720Y-137097782D01*
X114478706Y-136976975D01*
X114427101Y-136934624D01*
X114280603Y-136814397D01*
X114160071Y-136667527D01*
X114118025Y-136616294D01*
X113997218Y-136390280D01*
X113922825Y-136145040D01*
X113897706Y-135890000D01*
X113922825Y-135634960D01*
X113997218Y-135389720D01*
X114118025Y-135163706D01*
X114160376Y-135112101D01*
X114280603Y-134965603D01*
X114427101Y-134845376D01*
X114478706Y-134803025D01*
X114704720Y-134682218D01*
X114949960Y-134607825D01*
X115045527Y-134598413D01*
X115141094Y-134589000D01*
X117268906Y-134589000D01*
X117364473Y-134598413D01*
X117364473Y-134598413D01*
G37*
G36*
X104220285Y-134908234D02*
G01*
X104316981Y-134927468D01*
X104499151Y-135002926D01*
X104663100Y-135112473D01*
X104802527Y-135251900D01*
X104912074Y-135415849D01*
X104987532Y-135598019D01*
X105026000Y-135791410D01*
X105026000Y-135988590D01*
X104987532Y-136181981D01*
X104912074Y-136364151D01*
X104802527Y-136528100D01*
X104663100Y-136667527D01*
X104499151Y-136777074D01*
X104316981Y-136852532D01*
X104220285Y-136871766D01*
X104123591Y-136891000D01*
X103926409Y-136891000D01*
X103829715Y-136871766D01*
X103733019Y-136852532D01*
X103550849Y-136777074D01*
X103386900Y-136667527D01*
X103247473Y-136528100D01*
X103137926Y-136364151D01*
X103062468Y-136181981D01*
X103024000Y-135988590D01*
X103024000Y-135791410D01*
X103062468Y-135598019D01*
X103137926Y-135415849D01*
X103247473Y-135251900D01*
X103386900Y-135112473D01*
X103550849Y-135002926D01*
X103733019Y-134927468D01*
X103829715Y-134908234D01*
X103926409Y-134889000D01*
X104123591Y-134889000D01*
X104220285Y-134908234D01*
X104220285Y-134908234D01*
G37*
G36*
X125978228Y-135071703D02*
G01*
X126133100Y-135135853D01*
X126272481Y-135228985D01*
X126391015Y-135347519D01*
X126484147Y-135486900D01*
X126548297Y-135641772D01*
X126581000Y-135806184D01*
X126581000Y-135973816D01*
X126548297Y-136138228D01*
X126484147Y-136293100D01*
X126391015Y-136432481D01*
X126272481Y-136551015D01*
X126133100Y-136644147D01*
X125978228Y-136708297D01*
X125813816Y-136741000D01*
X125646184Y-136741000D01*
X125481772Y-136708297D01*
X125326900Y-136644147D01*
X125187519Y-136551015D01*
X125068985Y-136432481D01*
X124975853Y-136293100D01*
X124911703Y-136138228D01*
X124879000Y-135973816D01*
X124879000Y-135806184D01*
X124911703Y-135641772D01*
X124975853Y-135486900D01*
X125068985Y-135347519D01*
X125187519Y-135228985D01*
X125326900Y-135135853D01*
X125481772Y-135071703D01*
X125646184Y-135039000D01*
X125813816Y-135039000D01*
X125978228Y-135071703D01*
X125978228Y-135071703D01*
G37*
G36*
X142488228Y-135071703D02*
G01*
X142643100Y-135135853D01*
X142782481Y-135228985D01*
X142901015Y-135347519D01*
X142994147Y-135486900D01*
X143058297Y-135641772D01*
X143091000Y-135806184D01*
X143091000Y-135973816D01*
X143058297Y-136138228D01*
X142994147Y-136293100D01*
X142901015Y-136432481D01*
X142782481Y-136551015D01*
X142643100Y-136644147D01*
X142488228Y-136708297D01*
X142323816Y-136741000D01*
X142156184Y-136741000D01*
X141991772Y-136708297D01*
X141836900Y-136644147D01*
X141697519Y-136551015D01*
X141578985Y-136432481D01*
X141485853Y-136293100D01*
X141421703Y-136138228D01*
X141389000Y-135973816D01*
X141389000Y-135806184D01*
X141421703Y-135641772D01*
X141485853Y-135486900D01*
X141578985Y-135347519D01*
X141697519Y-135228985D01*
X141836900Y-135135853D01*
X141991772Y-135071703D01*
X142156184Y-135039000D01*
X142323816Y-135039000D01*
X142488228Y-135071703D01*
X142488228Y-135071703D01*
G37*
G36*
X141091000Y-136741000D02*
G01*
X139389000Y-136741000D01*
X139389000Y-135039000D01*
X141091000Y-135039000D01*
X141091000Y-136741000D01*
X141091000Y-136741000D01*
G37*
G36*
X130978228Y-135071703D02*
G01*
X131133100Y-135135853D01*
X131272481Y-135228985D01*
X131391015Y-135347519D01*
X131484147Y-135486900D01*
X131548297Y-135641772D01*
X131581000Y-135806184D01*
X131581000Y-135973816D01*
X131548297Y-136138228D01*
X131484147Y-136293100D01*
X131391015Y-136432481D01*
X131272481Y-136551015D01*
X131133100Y-136644147D01*
X130978228Y-136708297D01*
X130813816Y-136741000D01*
X130646184Y-136741000D01*
X130481772Y-136708297D01*
X130326900Y-136644147D01*
X130187519Y-136551015D01*
X130068985Y-136432481D01*
X129975853Y-136293100D01*
X129911703Y-136138228D01*
X129879000Y-135973816D01*
X129879000Y-135806184D01*
X129911703Y-135641772D01*
X129975853Y-135486900D01*
X130068985Y-135347519D01*
X130187519Y-135228985D01*
X130326900Y-135135853D01*
X130481772Y-135071703D01*
X130646184Y-135039000D01*
X130813816Y-135039000D01*
X130978228Y-135071703D01*
X130978228Y-135071703D01*
G37*
G36*
X104147797Y-130893815D02*
G01*
X104316981Y-130927468D01*
X104499151Y-131002926D01*
X104663100Y-131112473D01*
X104802527Y-131251900D01*
X104912074Y-131415849D01*
X104987532Y-131598019D01*
X105026000Y-131791410D01*
X105026000Y-131988590D01*
X104987532Y-132181981D01*
X104912074Y-132364151D01*
X104802527Y-132528100D01*
X104663100Y-132667527D01*
X104499151Y-132777074D01*
X104316981Y-132852532D01*
X104123591Y-132891000D01*
X103926409Y-132891000D01*
X103733019Y-132852532D01*
X103550849Y-132777074D01*
X103386900Y-132667527D01*
X103247473Y-132528100D01*
X103137926Y-132364151D01*
X103062468Y-132181981D01*
X103024000Y-131988590D01*
X103024000Y-131791410D01*
X103062468Y-131598019D01*
X103137926Y-131415849D01*
X103247473Y-131251900D01*
X103386900Y-131112473D01*
X103550849Y-131002926D01*
X103733019Y-130927468D01*
X103902203Y-130893815D01*
X103926409Y-130889000D01*
X104123591Y-130889000D01*
X104147797Y-130893815D01*
X104147797Y-130893815D01*
G37*
G36*
X117364472Y-129148412D02*
G01*
X117460040Y-129157825D01*
X117705280Y-129232218D01*
X117931294Y-129353025D01*
X117982899Y-129395376D01*
X118129397Y-129515603D01*
X118235884Y-129645359D01*
X118291975Y-129713706D01*
X118412782Y-129939720D01*
X118487175Y-130184960D01*
X118512294Y-130440000D01*
X118487175Y-130695040D01*
X118412782Y-130940280D01*
X118291975Y-131166294D01*
X118253565Y-131213097D01*
X118129397Y-131364397D01*
X117999481Y-131471015D01*
X117931294Y-131526975D01*
X117705280Y-131647782D01*
X117460040Y-131722175D01*
X117364472Y-131731588D01*
X117268906Y-131741000D01*
X115141094Y-131741000D01*
X115045528Y-131731588D01*
X114949960Y-131722175D01*
X114704720Y-131647782D01*
X114478706Y-131526975D01*
X114410519Y-131471015D01*
X114280603Y-131364397D01*
X114156435Y-131213097D01*
X114118025Y-131166294D01*
X113997218Y-130940280D01*
X113922825Y-130695040D01*
X113897706Y-130440000D01*
X113922825Y-130184960D01*
X113997218Y-129939720D01*
X114118025Y-129713706D01*
X114174116Y-129645359D01*
X114280603Y-129515603D01*
X114427101Y-129395376D01*
X114478706Y-129353025D01*
X114704720Y-129232218D01*
X114949960Y-129157825D01*
X115045528Y-129148412D01*
X115141094Y-129139000D01*
X117268906Y-129139000D01*
X117364472Y-129148412D01*
X117364472Y-129148412D01*
G37*
G36*
X130978228Y-129991703D02*
G01*
X131133100Y-130055853D01*
X131272481Y-130148985D01*
X131391015Y-130267519D01*
X131484147Y-130406900D01*
X131548297Y-130561772D01*
X131581000Y-130726184D01*
X131581000Y-130893816D01*
X131548297Y-131058228D01*
X131484147Y-131213100D01*
X131391015Y-131352481D01*
X131272481Y-131471015D01*
X131133100Y-131564147D01*
X130978228Y-131628297D01*
X130813816Y-131661000D01*
X130646184Y-131661000D01*
X130481772Y-131628297D01*
X130326900Y-131564147D01*
X130187519Y-131471015D01*
X130068985Y-131352481D01*
X129975853Y-131213100D01*
X129911703Y-131058228D01*
X129879000Y-130893816D01*
X129879000Y-130726184D01*
X129911703Y-130561772D01*
X129975853Y-130406900D01*
X130068985Y-130267519D01*
X130187519Y-130148985D01*
X130326900Y-130055853D01*
X130481772Y-129991703D01*
X130646184Y-129959000D01*
X130813816Y-129959000D01*
X130978228Y-129991703D01*
X130978228Y-129991703D01*
G37*
G36*
X125978228Y-129991703D02*
G01*
X126133100Y-130055853D01*
X126272481Y-130148985D01*
X126391015Y-130267519D01*
X126484147Y-130406900D01*
X126548297Y-130561772D01*
X126581000Y-130726184D01*
X126581000Y-130893816D01*
X126548297Y-131058228D01*
X126484147Y-131213100D01*
X126391015Y-131352481D01*
X126272481Y-131471015D01*
X126133100Y-131564147D01*
X125978228Y-131628297D01*
X125813816Y-131661000D01*
X125646184Y-131661000D01*
X125481772Y-131628297D01*
X125326900Y-131564147D01*
X125187519Y-131471015D01*
X125068985Y-131352481D01*
X124975853Y-131213100D01*
X124911703Y-131058228D01*
X124879000Y-130893816D01*
X124879000Y-130726184D01*
X124911703Y-130561772D01*
X124975853Y-130406900D01*
X125068985Y-130267519D01*
X125187519Y-130148985D01*
X125326900Y-130055853D01*
X125481772Y-129991703D01*
X125646184Y-129959000D01*
X125813816Y-129959000D01*
X125978228Y-129991703D01*
X125978228Y-129991703D01*
G37*
G36*
X106101626Y-127152037D02*
G01*
X106271465Y-127203557D01*
X106271467Y-127203558D01*
X106427989Y-127287221D01*
X106565186Y-127399814D01*
X106648448Y-127501271D01*
X106677778Y-127537009D01*
X106761443Y-127693534D01*
X106812963Y-127863373D01*
X106826000Y-127995742D01*
X106826000Y-128784258D01*
X106812963Y-128916627D01*
X106761443Y-129086466D01*
X106677778Y-129242991D01*
X106648448Y-129278729D01*
X106565186Y-129380186D01*
X106463729Y-129463448D01*
X106427991Y-129492778D01*
X106271466Y-129576443D01*
X106101627Y-129627963D01*
X105925000Y-129645359D01*
X105748374Y-129627963D01*
X105578535Y-129576443D01*
X105422010Y-129492778D01*
X105386272Y-129463448D01*
X105284815Y-129380186D01*
X105201553Y-129278729D01*
X105172223Y-129242991D01*
X105088558Y-129086466D01*
X105037037Y-128916627D01*
X105024000Y-128784258D01*
X105024000Y-127995743D01*
X105037037Y-127863374D01*
X105088557Y-127693535D01*
X105088559Y-127693532D01*
X105172221Y-127537011D01*
X105284814Y-127399814D01*
X105386271Y-127316552D01*
X105422009Y-127287222D01*
X105578534Y-127203557D01*
X105748373Y-127152037D01*
X105925000Y-127134641D01*
X106101626Y-127152037D01*
X106101626Y-127152037D01*
G37*
G36*
X150079059Y-126277860D02*
G01*
X150139294Y-126302810D01*
X150215732Y-126334472D01*
X150338735Y-126416660D01*
X150443340Y-126521265D01*
X150525528Y-126644268D01*
X150525529Y-126644270D01*
X150582140Y-126780941D01*
X150611000Y-126926032D01*
X150611000Y-127073968D01*
X150596429Y-127147220D01*
X150582140Y-127219059D01*
X150525528Y-127355732D01*
X150443340Y-127478735D01*
X150338735Y-127583340D01*
X150215732Y-127665528D01*
X150215731Y-127665529D01*
X150215730Y-127665529D01*
X150079059Y-127722140D01*
X149933968Y-127751000D01*
X149786032Y-127751000D01*
X149640941Y-127722140D01*
X149504270Y-127665529D01*
X149504269Y-127665529D01*
X149504268Y-127665528D01*
X149381265Y-127583340D01*
X149276660Y-127478735D01*
X149194472Y-127355732D01*
X149137860Y-127219059D01*
X149123571Y-127147220D01*
X149109000Y-127073968D01*
X149109000Y-126926032D01*
X149137860Y-126780941D01*
X149194471Y-126644270D01*
X149194472Y-126644268D01*
X149276660Y-126521265D01*
X149381265Y-126416660D01*
X149504268Y-126334472D01*
X149580707Y-126302810D01*
X149640941Y-126277860D01*
X149786032Y-126249000D01*
X149933968Y-126249000D01*
X150079059Y-126277860D01*
X150079059Y-126277860D01*
G37*
G36*
X142313665Y-126252622D02*
G01*
X142387222Y-126259867D01*
X142528786Y-126302810D01*
X142659252Y-126372546D01*
X142689040Y-126396992D01*
X142773607Y-126466393D01*
X142843008Y-126550960D01*
X142867454Y-126580748D01*
X142937190Y-126711214D01*
X142980133Y-126852778D01*
X142994633Y-127000000D01*
X142980133Y-127147222D01*
X142937190Y-127288786D01*
X142867454Y-127419252D01*
X142843008Y-127449040D01*
X142773607Y-127533607D01*
X142713004Y-127583341D01*
X142659252Y-127627454D01*
X142528786Y-127697190D01*
X142387222Y-127740133D01*
X142313665Y-127747378D01*
X142276888Y-127751000D01*
X142203112Y-127751000D01*
X142166335Y-127747378D01*
X142092778Y-127740133D01*
X141951214Y-127697190D01*
X141820748Y-127627454D01*
X141766996Y-127583341D01*
X141706393Y-127533607D01*
X141636992Y-127449040D01*
X141612546Y-127419252D01*
X141542810Y-127288786D01*
X141499867Y-127147222D01*
X141485367Y-127000000D01*
X141499867Y-126852778D01*
X141542810Y-126711214D01*
X141612546Y-126580748D01*
X141636992Y-126550960D01*
X141706393Y-126466393D01*
X141790960Y-126396992D01*
X141820748Y-126372546D01*
X141951214Y-126302810D01*
X142092778Y-126259867D01*
X142166335Y-126252622D01*
X142203112Y-126249000D01*
X142276888Y-126249000D01*
X142313665Y-126252622D01*
X142313665Y-126252622D01*
G37*
G36*
X132246000Y-119956000D02*
G01*
X132081660Y-119956000D01*
X132057274Y-119958402D01*
X132033825Y-119965515D01*
X132012214Y-119977066D01*
X131993272Y-119992611D01*
X131977727Y-120011553D01*
X131966176Y-120033164D01*
X131959063Y-120056613D01*
X131956661Y-120080999D01*
X131959063Y-120105385D01*
X131966176Y-120128834D01*
X131977727Y-120150445D01*
X131993272Y-120169387D01*
X132002345Y-120177609D01*
X132079264Y-120240736D01*
X132151244Y-120328443D01*
X132168759Y-120361212D01*
X132204728Y-120428505D01*
X132204729Y-120428508D01*
X132237666Y-120537084D01*
X132248787Y-120650000D01*
X132237666Y-120762916D01*
X132205467Y-120869059D01*
X132204728Y-120871495D01*
X132185429Y-120907601D01*
X132151244Y-120971557D01*
X132079264Y-121059264D01*
X131991557Y-121131244D01*
X131910141Y-121174761D01*
X131889766Y-121188375D01*
X131872439Y-121205702D01*
X131858826Y-121226076D01*
X131849448Y-121248715D01*
X131844668Y-121272748D01*
X131844668Y-121297252D01*
X131849448Y-121321285D01*
X131858826Y-121343924D01*
X131872440Y-121364299D01*
X131889767Y-121381626D01*
X131910141Y-121395239D01*
X131991557Y-121438756D01*
X132079264Y-121510736D01*
X132151244Y-121598443D01*
X132171524Y-121636385D01*
X132204728Y-121698505D01*
X132204729Y-121698508D01*
X132237666Y-121807084D01*
X132248787Y-121920000D01*
X132237666Y-122032916D01*
X132204729Y-122141492D01*
X132204728Y-122141495D01*
X132185429Y-122177601D01*
X132151244Y-122241557D01*
X132079264Y-122329264D01*
X131991557Y-122401244D01*
X131927601Y-122435429D01*
X131891495Y-122454728D01*
X131891492Y-122454729D01*
X131782916Y-122487666D01*
X131698298Y-122496000D01*
X131191702Y-122496000D01*
X131107084Y-122487666D01*
X130998508Y-122454729D01*
X130998505Y-122454728D01*
X130962399Y-122435429D01*
X130898443Y-122401244D01*
X130810736Y-122329264D01*
X130738756Y-122241557D01*
X130704571Y-122177601D01*
X130685272Y-122141495D01*
X130685271Y-122141492D01*
X130652334Y-122032916D01*
X130641213Y-121920000D01*
X130652334Y-121807084D01*
X130685271Y-121698508D01*
X130685272Y-121698505D01*
X130718476Y-121636385D01*
X130738756Y-121598443D01*
X130810736Y-121510736D01*
X130898443Y-121438756D01*
X130979859Y-121395239D01*
X131000234Y-121381625D01*
X131017561Y-121364298D01*
X131031174Y-121343924D01*
X131040552Y-121321285D01*
X131045332Y-121297252D01*
X131045332Y-121272748D01*
X131040552Y-121248715D01*
X131031174Y-121226076D01*
X131017560Y-121205701D01*
X131000233Y-121188374D01*
X130979859Y-121174761D01*
X130898443Y-121131244D01*
X130810736Y-121059264D01*
X130738756Y-120971557D01*
X130704571Y-120907601D01*
X130685272Y-120871495D01*
X130684533Y-120869059D01*
X130652334Y-120762916D01*
X130641213Y-120650000D01*
X130652334Y-120537084D01*
X130685271Y-120428508D01*
X130685272Y-120428505D01*
X130721241Y-120361212D01*
X130738756Y-120328443D01*
X130810736Y-120240736D01*
X130887646Y-120177617D01*
X130904965Y-120160298D01*
X130918579Y-120139923D01*
X130927957Y-120117284D01*
X130932737Y-120093251D01*
X130932737Y-120068747D01*
X130927957Y-120044714D01*
X130918579Y-120022075D01*
X130904966Y-120001701D01*
X130887639Y-119984374D01*
X130867264Y-119970760D01*
X130844625Y-119961382D01*
X130820592Y-119956602D01*
X130808340Y-119956000D01*
X130644000Y-119956000D01*
X130644000Y-118804000D01*
X132246000Y-118804000D01*
X132246000Y-119956000D01*
X132246000Y-119956000D01*
G37*
G36*
X119051564Y-119694389D02*
G01*
X119242833Y-119773615D01*
X119242835Y-119773616D01*
X119414973Y-119888635D01*
X119561365Y-120035027D01*
X119652398Y-120171267D01*
X119676385Y-120207167D01*
X119755611Y-120398436D01*
X119796000Y-120601484D01*
X119796000Y-120808516D01*
X119755611Y-121011564D01*
X119676385Y-121202833D01*
X119676384Y-121202835D01*
X119561365Y-121374973D01*
X119414973Y-121521365D01*
X119242835Y-121636384D01*
X119242834Y-121636385D01*
X119242833Y-121636385D01*
X119051564Y-121715611D01*
X118848516Y-121756000D01*
X118641484Y-121756000D01*
X118438436Y-121715611D01*
X118247167Y-121636385D01*
X118247166Y-121636385D01*
X118247165Y-121636384D01*
X118075027Y-121521365D01*
X117928635Y-121374973D01*
X117813616Y-121202835D01*
X117813615Y-121202833D01*
X117734389Y-121011564D01*
X117694000Y-120808516D01*
X117694000Y-120601484D01*
X117734389Y-120398436D01*
X117813615Y-120207167D01*
X117837603Y-120171267D01*
X117928635Y-120035027D01*
X118075027Y-119888635D01*
X118247165Y-119773616D01*
X118247167Y-119773615D01*
X118438436Y-119694389D01*
X118641484Y-119654000D01*
X118848516Y-119654000D01*
X119051564Y-119694389D01*
X119051564Y-119694389D01*
G37*
G36*
X112551564Y-119694389D02*
G01*
X112742833Y-119773615D01*
X112742835Y-119773616D01*
X112914973Y-119888635D01*
X113061365Y-120035027D01*
X113152398Y-120171267D01*
X113176385Y-120207167D01*
X113255611Y-120398436D01*
X113296000Y-120601484D01*
X113296000Y-120808516D01*
X113255611Y-121011564D01*
X113176385Y-121202833D01*
X113176384Y-121202835D01*
X113061365Y-121374973D01*
X112914973Y-121521365D01*
X112742835Y-121636384D01*
X112742834Y-121636385D01*
X112742833Y-121636385D01*
X112551564Y-121715611D01*
X112348516Y-121756000D01*
X112141484Y-121756000D01*
X111938436Y-121715611D01*
X111747167Y-121636385D01*
X111747166Y-121636385D01*
X111747165Y-121636384D01*
X111575027Y-121521365D01*
X111428635Y-121374973D01*
X111313616Y-121202835D01*
X111313615Y-121202833D01*
X111234389Y-121011564D01*
X111194000Y-120808516D01*
X111194000Y-120601484D01*
X111234389Y-120398436D01*
X111313615Y-120207167D01*
X111337603Y-120171267D01*
X111428635Y-120035027D01*
X111575027Y-119888635D01*
X111747165Y-119773616D01*
X111747167Y-119773615D01*
X111938436Y-119694389D01*
X112141484Y-119654000D01*
X112348516Y-119654000D01*
X112551564Y-119694389D01*
X112551564Y-119694389D01*
G37*
G36*
X149933665Y-119902622D02*
G01*
X150007222Y-119909867D01*
X150148786Y-119952810D01*
X150148788Y-119952811D01*
X150207838Y-119984374D01*
X150279252Y-120022546D01*
X150292190Y-120033164D01*
X150393607Y-120116393D01*
X150463008Y-120200960D01*
X150487454Y-120230748D01*
X150487455Y-120230750D01*
X150539675Y-120328445D01*
X150557190Y-120361214D01*
X150600133Y-120502778D01*
X150614633Y-120650000D01*
X150600133Y-120797222D01*
X150557190Y-120938786D01*
X150557189Y-120938788D01*
X150539673Y-120971557D01*
X150487454Y-121069252D01*
X150463008Y-121099040D01*
X150393607Y-121183607D01*
X150333004Y-121233341D01*
X150279252Y-121277454D01*
X150148786Y-121347190D01*
X150007222Y-121390133D01*
X149933665Y-121397378D01*
X149896888Y-121401000D01*
X149823112Y-121401000D01*
X149786335Y-121397378D01*
X149712778Y-121390133D01*
X149571214Y-121347190D01*
X149440748Y-121277454D01*
X149386996Y-121233341D01*
X149326393Y-121183607D01*
X149256992Y-121099040D01*
X149232546Y-121069252D01*
X149180327Y-120971557D01*
X149162811Y-120938788D01*
X149162810Y-120938786D01*
X149119867Y-120797222D01*
X149105367Y-120650000D01*
X149119867Y-120502778D01*
X149162810Y-120361214D01*
X149180326Y-120328445D01*
X149232545Y-120230750D01*
X149232546Y-120230748D01*
X149256992Y-120200960D01*
X149326393Y-120116393D01*
X149427810Y-120033164D01*
X149440748Y-120022546D01*
X149512162Y-119984374D01*
X149571212Y-119952811D01*
X149571214Y-119952810D01*
X149712778Y-119909867D01*
X149786335Y-119902622D01*
X149823112Y-119899000D01*
X149896888Y-119899000D01*
X149933665Y-119902622D01*
X149933665Y-119902622D01*
G37*
G36*
X142459059Y-119927860D02*
G01*
X142595496Y-119984374D01*
X142595732Y-119984472D01*
X142718735Y-120066660D01*
X142823340Y-120171265D01*
X142905528Y-120294268D01*
X142962140Y-120430941D01*
X142991000Y-120576033D01*
X142991000Y-120723967D01*
X142962140Y-120869059D01*
X142905528Y-121005732D01*
X142823340Y-121128735D01*
X142718735Y-121233340D01*
X142595732Y-121315528D01*
X142595731Y-121315529D01*
X142595730Y-121315529D01*
X142459059Y-121372140D01*
X142313968Y-121401000D01*
X142166032Y-121401000D01*
X142020941Y-121372140D01*
X141884270Y-121315529D01*
X141884269Y-121315529D01*
X141884268Y-121315528D01*
X141761265Y-121233340D01*
X141656660Y-121128735D01*
X141574472Y-121005732D01*
X141517860Y-120869059D01*
X141489000Y-120723967D01*
X141489000Y-120576033D01*
X141517860Y-120430941D01*
X141574472Y-120294268D01*
X141656660Y-120171265D01*
X141761265Y-120066660D01*
X141884268Y-119984472D01*
X141884505Y-119984374D01*
X142020941Y-119927860D01*
X142166032Y-119899000D01*
X142313968Y-119899000D01*
X142459059Y-119927860D01*
X142459059Y-119927860D01*
G37*
G36*
X112551564Y-115194389D02*
G01*
X112742833Y-115273615D01*
X112742835Y-115273616D01*
X112914973Y-115388635D01*
X113061365Y-115535027D01*
X113152483Y-115671394D01*
X113176385Y-115707167D01*
X113255611Y-115898436D01*
X113296000Y-116101484D01*
X113296000Y-116308516D01*
X113255611Y-116511564D01*
X113176385Y-116702833D01*
X113176384Y-116702835D01*
X113061365Y-116874973D01*
X112914973Y-117021365D01*
X112742835Y-117136384D01*
X112742834Y-117136385D01*
X112742833Y-117136385D01*
X112551564Y-117215611D01*
X112348516Y-117256000D01*
X112141484Y-117256000D01*
X111938436Y-117215611D01*
X111747167Y-117136385D01*
X111747166Y-117136385D01*
X111747165Y-117136384D01*
X111575027Y-117021365D01*
X111428635Y-116874973D01*
X111313616Y-116702835D01*
X111313615Y-116702833D01*
X111234389Y-116511564D01*
X111194000Y-116308516D01*
X111194000Y-116101484D01*
X111234389Y-115898436D01*
X111313615Y-115707167D01*
X111337518Y-115671394D01*
X111428635Y-115535027D01*
X111575027Y-115388635D01*
X111747165Y-115273616D01*
X111747167Y-115273615D01*
X111938436Y-115194389D01*
X112141484Y-115154000D01*
X112348516Y-115154000D01*
X112551564Y-115194389D01*
X112551564Y-115194389D01*
G37*
G36*
X119051564Y-115194389D02*
G01*
X119242833Y-115273615D01*
X119242835Y-115273616D01*
X119414973Y-115388635D01*
X119561365Y-115535027D01*
X119652483Y-115671394D01*
X119676385Y-115707167D01*
X119755611Y-115898436D01*
X119796000Y-116101484D01*
X119796000Y-116308516D01*
X119755611Y-116511564D01*
X119676385Y-116702833D01*
X119676384Y-116702835D01*
X119561365Y-116874973D01*
X119414973Y-117021365D01*
X119242835Y-117136384D01*
X119242834Y-117136385D01*
X119242833Y-117136385D01*
X119051564Y-117215611D01*
X118848516Y-117256000D01*
X118641484Y-117256000D01*
X118438436Y-117215611D01*
X118247167Y-117136385D01*
X118247166Y-117136385D01*
X118247165Y-117136384D01*
X118075027Y-117021365D01*
X117928635Y-116874973D01*
X117813616Y-116702835D01*
X117813615Y-116702833D01*
X117734389Y-116511564D01*
X117694000Y-116308516D01*
X117694000Y-116101484D01*
X117734389Y-115898436D01*
X117813615Y-115707167D01*
X117837518Y-115671394D01*
X117928635Y-115535027D01*
X118075027Y-115388635D01*
X118247165Y-115273616D01*
X118247167Y-115273615D01*
X118438436Y-115194389D01*
X118641484Y-115154000D01*
X118848516Y-115154000D01*
X119051564Y-115194389D01*
X119051564Y-115194389D01*
G37*
G36*
X99128200Y-115457084D02*
G01*
X99207222Y-115464867D01*
X99348786Y-115507810D01*
X99479252Y-115577546D01*
X99509040Y-115601992D01*
X99593607Y-115671393D01*
X99663008Y-115755960D01*
X99687454Y-115785748D01*
X99687455Y-115785750D01*
X99744011Y-115891557D01*
X99757190Y-115916214D01*
X99800133Y-116057778D01*
X99814633Y-116205000D01*
X99800133Y-116352222D01*
X99757190Y-116493786D01*
X99687454Y-116624252D01*
X99663008Y-116654040D01*
X99593607Y-116738607D01*
X99533004Y-116788341D01*
X99479252Y-116832454D01*
X99348786Y-116902190D01*
X99207222Y-116945133D01*
X99133665Y-116952378D01*
X99096888Y-116956000D01*
X99023112Y-116956000D01*
X98986335Y-116952378D01*
X98912778Y-116945133D01*
X98771214Y-116902190D01*
X98640748Y-116832454D01*
X98586996Y-116788341D01*
X98526393Y-116738607D01*
X98456992Y-116654040D01*
X98432546Y-116624252D01*
X98362810Y-116493786D01*
X98319867Y-116352222D01*
X98305367Y-116205000D01*
X98319867Y-116057778D01*
X98362810Y-115916214D01*
X98375990Y-115891557D01*
X98432545Y-115785750D01*
X98432546Y-115785748D01*
X98456992Y-115755960D01*
X98526393Y-115671393D01*
X98610960Y-115601992D01*
X98640748Y-115577546D01*
X98771214Y-115507810D01*
X98912778Y-115464867D01*
X98991800Y-115457084D01*
X99023112Y-115454000D01*
X99096888Y-115454000D01*
X99128200Y-115457084D01*
X99128200Y-115457084D01*
G37*
G36*
X106899059Y-115482860D02*
G01*
X106959294Y-115507810D01*
X107035732Y-115539472D01*
X107158735Y-115621660D01*
X107263340Y-115726265D01*
X107306923Y-115791492D01*
X107345529Y-115849270D01*
X107402140Y-115985941D01*
X107431000Y-116131032D01*
X107431000Y-116278968D01*
X107416429Y-116352220D01*
X107402140Y-116424059D01*
X107345528Y-116560732D01*
X107263340Y-116683735D01*
X107158735Y-116788340D01*
X107035732Y-116870528D01*
X107035731Y-116870529D01*
X107035730Y-116870529D01*
X106899059Y-116927140D01*
X106753968Y-116956000D01*
X106606032Y-116956000D01*
X106460941Y-116927140D01*
X106324270Y-116870529D01*
X106324269Y-116870529D01*
X106324268Y-116870528D01*
X106201265Y-116788340D01*
X106096660Y-116683735D01*
X106014472Y-116560732D01*
X105957860Y-116424059D01*
X105943571Y-116352220D01*
X105929000Y-116278968D01*
X105929000Y-116131032D01*
X105957860Y-115985941D01*
X106014471Y-115849270D01*
X106053077Y-115791492D01*
X106096660Y-115726265D01*
X106201265Y-115621660D01*
X106324268Y-115539472D01*
X106400707Y-115507810D01*
X106460941Y-115482860D01*
X106606032Y-115454000D01*
X106753968Y-115454000D01*
X106899059Y-115482860D01*
X106899059Y-115482860D01*
G37*
G36*
X132246000Y-113606000D02*
G01*
X132081660Y-113606000D01*
X132057274Y-113608402D01*
X132033825Y-113615515D01*
X132012214Y-113627066D01*
X131993272Y-113642611D01*
X131977727Y-113661553D01*
X131966176Y-113683164D01*
X131959063Y-113706613D01*
X131956661Y-113730999D01*
X131959063Y-113755385D01*
X131966176Y-113778834D01*
X131977727Y-113800445D01*
X131993272Y-113819387D01*
X132002345Y-113827609D01*
X132079264Y-113890736D01*
X132151244Y-113978443D01*
X132168759Y-114011212D01*
X132204728Y-114078505D01*
X132204729Y-114078508D01*
X132237666Y-114187084D01*
X132248787Y-114300000D01*
X132237666Y-114412916D01*
X132205467Y-114519059D01*
X132204728Y-114521495D01*
X132185429Y-114557601D01*
X132151244Y-114621557D01*
X132079264Y-114709264D01*
X131991557Y-114781244D01*
X131910141Y-114824761D01*
X131889766Y-114838375D01*
X131872439Y-114855702D01*
X131858826Y-114876076D01*
X131849448Y-114898715D01*
X131844668Y-114922748D01*
X131844668Y-114947252D01*
X131849448Y-114971285D01*
X131858826Y-114993924D01*
X131872440Y-115014299D01*
X131889767Y-115031626D01*
X131910141Y-115045239D01*
X131991557Y-115088756D01*
X132079264Y-115160736D01*
X132151244Y-115248443D01*
X132185429Y-115312399D01*
X132204728Y-115348505D01*
X132204729Y-115348508D01*
X132237666Y-115457084D01*
X132248787Y-115570000D01*
X132237666Y-115682916D01*
X132206471Y-115785748D01*
X132204728Y-115791495D01*
X132185429Y-115827601D01*
X132151244Y-115891557D01*
X132079264Y-115979264D01*
X131991557Y-116051244D01*
X131927601Y-116085429D01*
X131891495Y-116104728D01*
X131891492Y-116104729D01*
X131782916Y-116137666D01*
X131698298Y-116146000D01*
X131191702Y-116146000D01*
X131107084Y-116137666D01*
X130998508Y-116104729D01*
X130998505Y-116104728D01*
X130962399Y-116085429D01*
X130898443Y-116051244D01*
X130810736Y-115979264D01*
X130738756Y-115891557D01*
X130704571Y-115827601D01*
X130685272Y-115791495D01*
X130683529Y-115785748D01*
X130652334Y-115682916D01*
X130641213Y-115570000D01*
X130652334Y-115457084D01*
X130685271Y-115348508D01*
X130685272Y-115348505D01*
X130704571Y-115312399D01*
X130738756Y-115248443D01*
X130810736Y-115160736D01*
X130898443Y-115088756D01*
X130979859Y-115045239D01*
X131000234Y-115031625D01*
X131017561Y-115014298D01*
X131031174Y-114993924D01*
X131040552Y-114971285D01*
X131045332Y-114947252D01*
X131045332Y-114922748D01*
X131040552Y-114898715D01*
X131031174Y-114876076D01*
X131017560Y-114855701D01*
X131000233Y-114838374D01*
X130979859Y-114824761D01*
X130898443Y-114781244D01*
X130810736Y-114709264D01*
X130738756Y-114621557D01*
X130704571Y-114557601D01*
X130685272Y-114521495D01*
X130684533Y-114519059D01*
X130652334Y-114412916D01*
X130641213Y-114300000D01*
X130652334Y-114187084D01*
X130685271Y-114078508D01*
X130685272Y-114078505D01*
X130721241Y-114011212D01*
X130738756Y-113978443D01*
X130810736Y-113890736D01*
X130887646Y-113827617D01*
X130904965Y-113810298D01*
X130918579Y-113789923D01*
X130927957Y-113767284D01*
X130932737Y-113743251D01*
X130932737Y-113718747D01*
X130927957Y-113694714D01*
X130918579Y-113672075D01*
X130904966Y-113651701D01*
X130887639Y-113634374D01*
X130867264Y-113620760D01*
X130844625Y-113611382D01*
X130820592Y-113606602D01*
X130808340Y-113606000D01*
X130644000Y-113606000D01*
X130644000Y-112454000D01*
X132246000Y-112454000D01*
X132246000Y-113606000D01*
X132246000Y-113606000D01*
G37*
G36*
X142459059Y-113577860D02*
G01*
X142595496Y-113634374D01*
X142595732Y-113634472D01*
X142718735Y-113716660D01*
X142823340Y-113821265D01*
X142905528Y-113944268D01*
X142962140Y-114080941D01*
X142991000Y-114226033D01*
X142991000Y-114373967D01*
X142962140Y-114519059D01*
X142905528Y-114655732D01*
X142823340Y-114778735D01*
X142718735Y-114883340D01*
X142595732Y-114965528D01*
X142595731Y-114965529D01*
X142595730Y-114965529D01*
X142459059Y-115022140D01*
X142313968Y-115051000D01*
X142166032Y-115051000D01*
X142020941Y-115022140D01*
X141884270Y-114965529D01*
X141884269Y-114965529D01*
X141884268Y-114965528D01*
X141761265Y-114883340D01*
X141656660Y-114778735D01*
X141574472Y-114655732D01*
X141517860Y-114519059D01*
X141489000Y-114373967D01*
X141489000Y-114226033D01*
X141517860Y-114080941D01*
X141574472Y-113944268D01*
X141656660Y-113821265D01*
X141761265Y-113716660D01*
X141884268Y-113634472D01*
X141884505Y-113634374D01*
X142020941Y-113577860D01*
X142166032Y-113549000D01*
X142313968Y-113549000D01*
X142459059Y-113577860D01*
X142459059Y-113577860D01*
G37*
G36*
X149933665Y-113552622D02*
G01*
X150007222Y-113559867D01*
X150148786Y-113602810D01*
X150148788Y-113602811D01*
X150207838Y-113634374D01*
X150279252Y-113672546D01*
X150292190Y-113683164D01*
X150393607Y-113766393D01*
X150463008Y-113850960D01*
X150487454Y-113880748D01*
X150487455Y-113880750D01*
X150539675Y-113978445D01*
X150557190Y-114011214D01*
X150600133Y-114152778D01*
X150614633Y-114300000D01*
X150600133Y-114447222D01*
X150557190Y-114588786D01*
X150557189Y-114588788D01*
X150539673Y-114621557D01*
X150487454Y-114719252D01*
X150463008Y-114749040D01*
X150393607Y-114833607D01*
X150333004Y-114883341D01*
X150279252Y-114927454D01*
X150148786Y-114997190D01*
X150007222Y-115040133D01*
X149933665Y-115047378D01*
X149896888Y-115051000D01*
X149823112Y-115051000D01*
X149786335Y-115047378D01*
X149712778Y-115040133D01*
X149571214Y-114997190D01*
X149440748Y-114927454D01*
X149386996Y-114883341D01*
X149326393Y-114833607D01*
X149256992Y-114749040D01*
X149232546Y-114719252D01*
X149180327Y-114621557D01*
X149162811Y-114588788D01*
X149162810Y-114588786D01*
X149119867Y-114447222D01*
X149105367Y-114300000D01*
X149119867Y-114152778D01*
X149162810Y-114011214D01*
X149180326Y-113978445D01*
X149232545Y-113880750D01*
X149232546Y-113880748D01*
X149256992Y-113850960D01*
X149326393Y-113766393D01*
X149427810Y-113683164D01*
X149440748Y-113672546D01*
X149512162Y-113634374D01*
X149571212Y-113602811D01*
X149571214Y-113602810D01*
X149712778Y-113559867D01*
X149786335Y-113552622D01*
X149823112Y-113549000D01*
X149896888Y-113549000D01*
X149933665Y-113552622D01*
X149933665Y-113552622D01*
G37*
G36*
X142459059Y-107227860D02*
G01*
X142519294Y-107252810D01*
X142595732Y-107284472D01*
X142718735Y-107366660D01*
X142823340Y-107471265D01*
X142905528Y-107594268D01*
X142962140Y-107730941D01*
X142991000Y-107876033D01*
X142991000Y-108023967D01*
X142962140Y-108169059D01*
X142905528Y-108305732D01*
X142823340Y-108428735D01*
X142718735Y-108533340D01*
X142595732Y-108615528D01*
X142595731Y-108615529D01*
X142595730Y-108615529D01*
X142459059Y-108672140D01*
X142313968Y-108701000D01*
X142166032Y-108701000D01*
X142020941Y-108672140D01*
X141884270Y-108615529D01*
X141884269Y-108615529D01*
X141884268Y-108615528D01*
X141761265Y-108533340D01*
X141656660Y-108428735D01*
X141574472Y-108305732D01*
X141517860Y-108169059D01*
X141489000Y-108023967D01*
X141489000Y-107876033D01*
X141517860Y-107730941D01*
X141574472Y-107594268D01*
X141656660Y-107471265D01*
X141761265Y-107366660D01*
X141884268Y-107284472D01*
X141960707Y-107252810D01*
X142020941Y-107227860D01*
X142166032Y-107199000D01*
X142313968Y-107199000D01*
X142459059Y-107227860D01*
X142459059Y-107227860D01*
G37*
G36*
X149933665Y-107202622D02*
G01*
X150007222Y-107209867D01*
X150148786Y-107252810D01*
X150279252Y-107322546D01*
X150309040Y-107346992D01*
X150393607Y-107416393D01*
X150463008Y-107500960D01*
X150487454Y-107530748D01*
X150557190Y-107661214D01*
X150600133Y-107802778D01*
X150614633Y-107950000D01*
X150600133Y-108097222D01*
X150557190Y-108238786D01*
X150487454Y-108369252D01*
X150463008Y-108399040D01*
X150393607Y-108483607D01*
X150333004Y-108533341D01*
X150279252Y-108577454D01*
X150148786Y-108647190D01*
X150007222Y-108690133D01*
X149933665Y-108697378D01*
X149896888Y-108701000D01*
X149823112Y-108701000D01*
X149786335Y-108697378D01*
X149712778Y-108690133D01*
X149571214Y-108647190D01*
X149440748Y-108577454D01*
X149386996Y-108533341D01*
X149326393Y-108483607D01*
X149256992Y-108399040D01*
X149232546Y-108369252D01*
X149162810Y-108238786D01*
X149119867Y-108097222D01*
X149105367Y-107950000D01*
X149119867Y-107802778D01*
X149162810Y-107661214D01*
X149232546Y-107530748D01*
X149256992Y-107500960D01*
X149326393Y-107416393D01*
X149410960Y-107346992D01*
X149440748Y-107322546D01*
X149571214Y-107252810D01*
X149712778Y-107209867D01*
X149786335Y-107202622D01*
X149823112Y-107199000D01*
X149896888Y-107199000D01*
X149933665Y-107202622D01*
X149933665Y-107202622D01*
G37*
G36*
X157111000Y-102501000D02*
G01*
X155309000Y-102501000D01*
X155309000Y-100699000D01*
X157111000Y-100699000D01*
X157111000Y-102501000D01*
X157111000Y-102501000D01*
G37*
G36*
X149933665Y-100852622D02*
G01*
X150007222Y-100859867D01*
X150148786Y-100902810D01*
X150279252Y-100972546D01*
X150309040Y-100996992D01*
X150393607Y-101066393D01*
X150463008Y-101150960D01*
X150487454Y-101180748D01*
X150557190Y-101311214D01*
X150600133Y-101452778D01*
X150614633Y-101600000D01*
X150600133Y-101747222D01*
X150557190Y-101888786D01*
X150487454Y-102019252D01*
X150463008Y-102049040D01*
X150393607Y-102133607D01*
X150333004Y-102183341D01*
X150279252Y-102227454D01*
X150148786Y-102297190D01*
X150007222Y-102340133D01*
X149933665Y-102347378D01*
X149896888Y-102351000D01*
X149823112Y-102351000D01*
X149786335Y-102347378D01*
X149712778Y-102340133D01*
X149571214Y-102297190D01*
X149440748Y-102227454D01*
X149386996Y-102183341D01*
X149326393Y-102133607D01*
X149256992Y-102049040D01*
X149232546Y-102019252D01*
X149162810Y-101888786D01*
X149119867Y-101747222D01*
X149105367Y-101600000D01*
X149119867Y-101452778D01*
X149162810Y-101311214D01*
X149232546Y-101180748D01*
X149256992Y-101150960D01*
X149326393Y-101066393D01*
X149410960Y-100996992D01*
X149440748Y-100972546D01*
X149571214Y-100902810D01*
X149712778Y-100859867D01*
X149786335Y-100852622D01*
X149823112Y-100849000D01*
X149896888Y-100849000D01*
X149933665Y-100852622D01*
X149933665Y-100852622D01*
G37*
G36*
X142459059Y-100877860D02*
G01*
X142519294Y-100902810D01*
X142595732Y-100934472D01*
X142718735Y-101016660D01*
X142823340Y-101121265D01*
X142905528Y-101244268D01*
X142962140Y-101380941D01*
X142991000Y-101526033D01*
X142991000Y-101673967D01*
X142962140Y-101819059D01*
X142905528Y-101955732D01*
X142823340Y-102078735D01*
X142718735Y-102183340D01*
X142595732Y-102265528D01*
X142595731Y-102265529D01*
X142595730Y-102265529D01*
X142459059Y-102322140D01*
X142313968Y-102351000D01*
X142166032Y-102351000D01*
X142020941Y-102322140D01*
X141884270Y-102265529D01*
X141884269Y-102265529D01*
X141884268Y-102265528D01*
X141761265Y-102183340D01*
X141656660Y-102078735D01*
X141574472Y-101955732D01*
X141517860Y-101819059D01*
X141489000Y-101673967D01*
X141489000Y-101526033D01*
X141517860Y-101380941D01*
X141574472Y-101244268D01*
X141656660Y-101121265D01*
X141761265Y-101016660D01*
X141884268Y-100934472D01*
X141960707Y-100902810D01*
X142020941Y-100877860D01*
X142166032Y-100849000D01*
X142313968Y-100849000D01*
X142459059Y-100877860D01*
X142459059Y-100877860D01*
G37*
G36*
X156320443Y-98165519D02*
G01*
X156386627Y-98172037D01*
X156556466Y-98223557D01*
X156712991Y-98307222D01*
X156748729Y-98336552D01*
X156850186Y-98419814D01*
X156933448Y-98521271D01*
X156962778Y-98557009D01*
X157046443Y-98713534D01*
X157097963Y-98883373D01*
X157115359Y-99060000D01*
X157097963Y-99236627D01*
X157046443Y-99406466D01*
X156962778Y-99562991D01*
X156933448Y-99598729D01*
X156850186Y-99700186D01*
X156748729Y-99783448D01*
X156712991Y-99812778D01*
X156556466Y-99896443D01*
X156386627Y-99947963D01*
X156320443Y-99954481D01*
X156254260Y-99961000D01*
X156165740Y-99961000D01*
X156099557Y-99954481D01*
X156033373Y-99947963D01*
X155863534Y-99896443D01*
X155707009Y-99812778D01*
X155671271Y-99783448D01*
X155569814Y-99700186D01*
X155486552Y-99598729D01*
X155457222Y-99562991D01*
X155373557Y-99406466D01*
X155322037Y-99236627D01*
X155304641Y-99060000D01*
X155322037Y-98883373D01*
X155373557Y-98713534D01*
X155457222Y-98557009D01*
X155486552Y-98521271D01*
X155569814Y-98419814D01*
X155671271Y-98336552D01*
X155707009Y-98307222D01*
X155863534Y-98223557D01*
X156033373Y-98172037D01*
X156099557Y-98165519D01*
X156165740Y-98159000D01*
X156254260Y-98159000D01*
X156320443Y-98165519D01*
X156320443Y-98165519D01*
G37*
G36*
X156320442Y-95625518D02*
G01*
X156386627Y-95632037D01*
X156556466Y-95683557D01*
X156712991Y-95767222D01*
X156732956Y-95783607D01*
X156850186Y-95879814D01*
X156905478Y-95947189D01*
X156962778Y-96017009D01*
X157046443Y-96173534D01*
X157097963Y-96343373D01*
X157115359Y-96520000D01*
X157097963Y-96696627D01*
X157046443Y-96866466D01*
X156962778Y-97022991D01*
X156933448Y-97058729D01*
X156850186Y-97160186D01*
X156748729Y-97243448D01*
X156712991Y-97272778D01*
X156556466Y-97356443D01*
X156386627Y-97407963D01*
X156320442Y-97414482D01*
X156254260Y-97421000D01*
X156165740Y-97421000D01*
X156099558Y-97414482D01*
X156033373Y-97407963D01*
X155863534Y-97356443D01*
X155707009Y-97272778D01*
X155671271Y-97243448D01*
X155569814Y-97160186D01*
X155486552Y-97058729D01*
X155457222Y-97022991D01*
X155373557Y-96866466D01*
X155322037Y-96696627D01*
X155304641Y-96520000D01*
X155322037Y-96343373D01*
X155373557Y-96173534D01*
X155457222Y-96017009D01*
X155514522Y-95947189D01*
X155569814Y-95879814D01*
X155687044Y-95783607D01*
X155707009Y-95767222D01*
X155863534Y-95683557D01*
X156033373Y-95632037D01*
X156099558Y-95625518D01*
X156165740Y-95619000D01*
X156254260Y-95619000D01*
X156320442Y-95625518D01*
X156320442Y-95625518D01*
G37*
G36*
X150079059Y-94527860D02*
G01*
X150139294Y-94552810D01*
X150215732Y-94584472D01*
X150338735Y-94666660D01*
X150443340Y-94771265D01*
X150525528Y-94894268D01*
X150582140Y-95030941D01*
X150611000Y-95176033D01*
X150611000Y-95323967D01*
X150582140Y-95469059D01*
X150525528Y-95605732D01*
X150443340Y-95728735D01*
X150338735Y-95833340D01*
X150215732Y-95915528D01*
X150215731Y-95915529D01*
X150215730Y-95915529D01*
X150079059Y-95972140D01*
X149933968Y-96001000D01*
X149786032Y-96001000D01*
X149640941Y-95972140D01*
X149504270Y-95915529D01*
X149504269Y-95915529D01*
X149504268Y-95915528D01*
X149381265Y-95833340D01*
X149276660Y-95728735D01*
X149194472Y-95605732D01*
X149137860Y-95469059D01*
X149109000Y-95323967D01*
X149109000Y-95176033D01*
X149137860Y-95030941D01*
X149194472Y-94894268D01*
X149276660Y-94771265D01*
X149381265Y-94666660D01*
X149504268Y-94584472D01*
X149580707Y-94552810D01*
X149640941Y-94527860D01*
X149786032Y-94499000D01*
X149933968Y-94499000D01*
X150079059Y-94527860D01*
X150079059Y-94527860D01*
G37*
G36*
X142313665Y-94502622D02*
G01*
X142387222Y-94509867D01*
X142528786Y-94552810D01*
X142659252Y-94622546D01*
X142689040Y-94646992D01*
X142773607Y-94716393D01*
X142843008Y-94800960D01*
X142867454Y-94830748D01*
X142937190Y-94961214D01*
X142980133Y-95102778D01*
X142994633Y-95250000D01*
X142980133Y-95397222D01*
X142937190Y-95538786D01*
X142867454Y-95669252D01*
X142855714Y-95683557D01*
X142773607Y-95783607D01*
X142713004Y-95833341D01*
X142659252Y-95877454D01*
X142528786Y-95947190D01*
X142387222Y-95990133D01*
X142313665Y-95997378D01*
X142276888Y-96001000D01*
X142203112Y-96001000D01*
X142166335Y-95997378D01*
X142092778Y-95990133D01*
X141951214Y-95947190D01*
X141820748Y-95877454D01*
X141766996Y-95833341D01*
X141706393Y-95783607D01*
X141624286Y-95683557D01*
X141612546Y-95669252D01*
X141542810Y-95538786D01*
X141499867Y-95397222D01*
X141485367Y-95250000D01*
X141499867Y-95102778D01*
X141542810Y-94961214D01*
X141612546Y-94830748D01*
X141636992Y-94800960D01*
X141706393Y-94716393D01*
X141790960Y-94646992D01*
X141820748Y-94622546D01*
X141951214Y-94552810D01*
X142092778Y-94509867D01*
X142166335Y-94502622D01*
X142203112Y-94499000D01*
X142276888Y-94499000D01*
X142313665Y-94502622D01*
X142313665Y-94502622D01*
G37*
G36*
X156320443Y-93085519D02*
G01*
X156386627Y-93092037D01*
X156556466Y-93143557D01*
X156712991Y-93227222D01*
X156748729Y-93256552D01*
X156850186Y-93339814D01*
X156933448Y-93441271D01*
X156962778Y-93477009D01*
X157046443Y-93633534D01*
X157097963Y-93803373D01*
X157115359Y-93980000D01*
X157097963Y-94156627D01*
X157046443Y-94326466D01*
X156962778Y-94482991D01*
X156940721Y-94509867D01*
X156850186Y-94620186D01*
X156748729Y-94703448D01*
X156712991Y-94732778D01*
X156556466Y-94816443D01*
X156386627Y-94867963D01*
X156320443Y-94874481D01*
X156254260Y-94881000D01*
X156165740Y-94881000D01*
X156099557Y-94874481D01*
X156033373Y-94867963D01*
X155863534Y-94816443D01*
X155707009Y-94732778D01*
X155671271Y-94703448D01*
X155569814Y-94620186D01*
X155479279Y-94509867D01*
X155457222Y-94482991D01*
X155373557Y-94326466D01*
X155322037Y-94156627D01*
X155304641Y-93980000D01*
X155322037Y-93803373D01*
X155373557Y-93633534D01*
X155457222Y-93477009D01*
X155486552Y-93441271D01*
X155569814Y-93339814D01*
X155671271Y-93256552D01*
X155707009Y-93227222D01*
X155863534Y-93143557D01*
X156033373Y-93092037D01*
X156099557Y-93085519D01*
X156165740Y-93079000D01*
X156254260Y-93079000D01*
X156320443Y-93085519D01*
X156320443Y-93085519D01*
G37*
G36*
X156320443Y-90545519D02*
G01*
X156386627Y-90552037D01*
X156556466Y-90603557D01*
X156712991Y-90687222D01*
X156748729Y-90716552D01*
X156850186Y-90799814D01*
X156930369Y-90897519D01*
X156962778Y-90937009D01*
X157046443Y-91093534D01*
X157097963Y-91263373D01*
X157115359Y-91440000D01*
X157097963Y-91616627D01*
X157046443Y-91786466D01*
X156962778Y-91942991D01*
X156933448Y-91978729D01*
X156850186Y-92080186D01*
X156748729Y-92163448D01*
X156712991Y-92192778D01*
X156556466Y-92276443D01*
X156386627Y-92327963D01*
X156320443Y-92334481D01*
X156254260Y-92341000D01*
X156165740Y-92341000D01*
X156099557Y-92334481D01*
X156033373Y-92327963D01*
X155863534Y-92276443D01*
X155707009Y-92192778D01*
X155671271Y-92163448D01*
X155569814Y-92080186D01*
X155486552Y-91978729D01*
X155457222Y-91942991D01*
X155373557Y-91786466D01*
X155322037Y-91616627D01*
X155304641Y-91440000D01*
X155322037Y-91263373D01*
X155373557Y-91093534D01*
X155457222Y-90937009D01*
X155489631Y-90897519D01*
X155569814Y-90799814D01*
X155671271Y-90716552D01*
X155707009Y-90687222D01*
X155863534Y-90603557D01*
X156033373Y-90552037D01*
X156099558Y-90545518D01*
X156165740Y-90539000D01*
X156254260Y-90539000D01*
X156320443Y-90545519D01*
X156320443Y-90545519D01*
G37*
G36*
X129233228Y-90621703D02*
G01*
X129388100Y-90685853D01*
X129527481Y-90778985D01*
X129646015Y-90897519D01*
X129739147Y-91036900D01*
X129803297Y-91191772D01*
X129836000Y-91356184D01*
X129836000Y-91523816D01*
X129803297Y-91688228D01*
X129739147Y-91843100D01*
X129646015Y-91982481D01*
X129527481Y-92101015D01*
X129388100Y-92194147D01*
X129233228Y-92258297D01*
X129068816Y-92291000D01*
X128901184Y-92291000D01*
X128736772Y-92258297D01*
X128581900Y-92194147D01*
X128442519Y-92101015D01*
X128323985Y-91982481D01*
X128230853Y-91843100D01*
X128166703Y-91688228D01*
X128134000Y-91523816D01*
X128134000Y-91356184D01*
X128166703Y-91191772D01*
X128230853Y-91036900D01*
X128323985Y-90897519D01*
X128442519Y-90778985D01*
X128581900Y-90685853D01*
X128736772Y-90621703D01*
X128901184Y-90589000D01*
X129068816Y-90589000D01*
X129233228Y-90621703D01*
X129233228Y-90621703D01*
G37*
G36*
X134233228Y-90621703D02*
G01*
X134388100Y-90685853D01*
X134527481Y-90778985D01*
X134646015Y-90897519D01*
X134739147Y-91036900D01*
X134803297Y-91191772D01*
X134836000Y-91356184D01*
X134836000Y-91523816D01*
X134803297Y-91688228D01*
X134739147Y-91843100D01*
X134646015Y-91982481D01*
X134527481Y-92101015D01*
X134388100Y-92194147D01*
X134233228Y-92258297D01*
X134068816Y-92291000D01*
X133901184Y-92291000D01*
X133736772Y-92258297D01*
X133581900Y-92194147D01*
X133442519Y-92101015D01*
X133323985Y-91982481D01*
X133230853Y-91843100D01*
X133166703Y-91688228D01*
X133134000Y-91523816D01*
X133134000Y-91356184D01*
X133166703Y-91191772D01*
X133230853Y-91036900D01*
X133323985Y-90897519D01*
X133442519Y-90778985D01*
X133581900Y-90685853D01*
X133736772Y-90621703D01*
X133901184Y-90589000D01*
X134068816Y-90589000D01*
X134233228Y-90621703D01*
X134233228Y-90621703D01*
G37*
G36*
X156320443Y-88005519D02*
G01*
X156386627Y-88012037D01*
X156556466Y-88063557D01*
X156712991Y-88147222D01*
X156748729Y-88176552D01*
X156850186Y-88259814D01*
X156933448Y-88361271D01*
X156962778Y-88397009D01*
X157046443Y-88553534D01*
X157097963Y-88723373D01*
X157115359Y-88900000D01*
X157097963Y-89076627D01*
X157046443Y-89246466D01*
X156962778Y-89402991D01*
X156937653Y-89433606D01*
X156850186Y-89540186D01*
X156780725Y-89597190D01*
X156712991Y-89652778D01*
X156556466Y-89736443D01*
X156386627Y-89787963D01*
X156320443Y-89794481D01*
X156254260Y-89801000D01*
X156165740Y-89801000D01*
X156099557Y-89794481D01*
X156033373Y-89787963D01*
X155863534Y-89736443D01*
X155707009Y-89652778D01*
X155639275Y-89597190D01*
X155569814Y-89540186D01*
X155482347Y-89433606D01*
X155457222Y-89402991D01*
X155373557Y-89246466D01*
X155322037Y-89076627D01*
X155304641Y-88900000D01*
X155322037Y-88723373D01*
X155373557Y-88553534D01*
X155457222Y-88397009D01*
X155486552Y-88361271D01*
X155569814Y-88259814D01*
X155671271Y-88176552D01*
X155707009Y-88147222D01*
X155863534Y-88063557D01*
X156033373Y-88012037D01*
X156099557Y-88005519D01*
X156165740Y-87999000D01*
X156254260Y-87999000D01*
X156320443Y-88005519D01*
X156320443Y-88005519D01*
G37*
G36*
X142313665Y-88152622D02*
G01*
X142387222Y-88159867D01*
X142528786Y-88202810D01*
X142659252Y-88272546D01*
X142689040Y-88296992D01*
X142773607Y-88366393D01*
X142843008Y-88450960D01*
X142867454Y-88480748D01*
X142937190Y-88611214D01*
X142980133Y-88752778D01*
X142994633Y-88900000D01*
X142980133Y-89047222D01*
X142937190Y-89188786D01*
X142867454Y-89319252D01*
X142843008Y-89349040D01*
X142773607Y-89433607D01*
X142713004Y-89483341D01*
X142659252Y-89527454D01*
X142528786Y-89597190D01*
X142387222Y-89640133D01*
X142313665Y-89647378D01*
X142276888Y-89651000D01*
X142203112Y-89651000D01*
X142166335Y-89647378D01*
X142092778Y-89640133D01*
X141951214Y-89597190D01*
X141820748Y-89527454D01*
X141766996Y-89483341D01*
X141706393Y-89433607D01*
X141636992Y-89349040D01*
X141612546Y-89319252D01*
X141542810Y-89188786D01*
X141499867Y-89047222D01*
X141485367Y-88900000D01*
X141499867Y-88752778D01*
X141542810Y-88611214D01*
X141612546Y-88480748D01*
X141636992Y-88450960D01*
X141706393Y-88366393D01*
X141790960Y-88296992D01*
X141820748Y-88272546D01*
X141951214Y-88202810D01*
X142092778Y-88159867D01*
X142166335Y-88152622D01*
X142203112Y-88149000D01*
X142276888Y-88149000D01*
X142313665Y-88152622D01*
X142313665Y-88152622D01*
G37*
G36*
X150079059Y-88177860D02*
G01*
X150139294Y-88202810D01*
X150215732Y-88234472D01*
X150338735Y-88316660D01*
X150443340Y-88421265D01*
X150525528Y-88544268D01*
X150525529Y-88544270D01*
X150582140Y-88680941D01*
X150611000Y-88826032D01*
X150611000Y-88973968D01*
X150590580Y-89076627D01*
X150582140Y-89119059D01*
X150525528Y-89255732D01*
X150443340Y-89378735D01*
X150338735Y-89483340D01*
X150215732Y-89565528D01*
X150215731Y-89565529D01*
X150215730Y-89565529D01*
X150079059Y-89622140D01*
X149933968Y-89651000D01*
X149786032Y-89651000D01*
X149640941Y-89622140D01*
X149504270Y-89565529D01*
X149504269Y-89565529D01*
X149504268Y-89565528D01*
X149381265Y-89483340D01*
X149276660Y-89378735D01*
X149194472Y-89255732D01*
X149137860Y-89119059D01*
X149129420Y-89076627D01*
X149109000Y-88973968D01*
X149109000Y-88826032D01*
X149137860Y-88680941D01*
X149194471Y-88544270D01*
X149194472Y-88544268D01*
X149276660Y-88421265D01*
X149381265Y-88316660D01*
X149504268Y-88234472D01*
X149580707Y-88202810D01*
X149640941Y-88177860D01*
X149786032Y-88149000D01*
X149933968Y-88149000D01*
X150079059Y-88177860D01*
X150079059Y-88177860D01*
G37*
M02*
