M48
; DRILL file {KiCad (5.1.4-0-10_14)} date 2019 November 18, Monday 23:58:47
; FORMAT={-:-/ absolute / inch / decimal}
; #@! TF.CreationDate,2019-11-18T23:58:47+01:00
; #@! TF.GenerationSoftware,Kicad,Pcbnew,(5.1.4-0-10_14)
; #@! TF.FileFunction,Plated,1,2,PTH
FMAT,2
INCH
T1C0.0157
T2C0.0276
T3C0.0295
T4C0.0315
T5C0.0354
T6C0.0394
T7C0.0402
T8C0.0433
T9C0.0591
%
G90
G05
T1
X4.0Y-3.575
X4.075Y-4.1
X4.13Y-3.76
X4.13Y-3.84
X4.13Y-3.92
X4.17Y-3.8
X4.17Y-3.88
X4.21Y-3.76
X4.21Y-3.84
X4.21Y-3.92
X4.25Y-3.8
X4.25Y-3.88
X4.29Y-3.76
X4.29Y-3.84
X4.29Y-3.92
X4.5Y-3.575
X4.675Y-3.6
X4.675Y-3.775
X4.925Y-3.55
X4.925Y-3.675
X5.7673Y-4.6577
X5.8077Y-4.6173
T2
X5.6Y-4.5
X5.9Y-4.5
X3.9Y-4.575
X4.2Y-4.575
X5.6Y-3.5
X5.9Y-3.5
X5.6Y-3.75
X5.9Y-3.75
X5.6Y-4.25
X5.9Y-4.25
X5.6Y-4.0
X5.9Y-4.0
X5.6Y-5.0
X5.9Y-5.0
X5.6Y-4.75
X5.9Y-4.75
T3
X5.175Y-4.45
X5.175Y-4.5
X5.175Y-4.55
X5.175Y-4.7
X5.175Y-4.75
X5.175Y-4.8
T4
X5.0781Y-3.6
X5.275Y-3.6
X4.95Y-5.35
X5.1469Y-5.35
X5.5213Y-5.35
X4.95Y-5.15
X5.1469Y-5.15
X5.6Y-5.35
T5
X4.0955Y-5.1925
X4.0955Y-5.35
X4.0955Y-5.5075
T6
X6.15Y-3.5
X6.15Y-3.6
X6.15Y-3.7
X6.15Y-3.8
X6.15Y-3.9
X6.15Y-4.0
T7
X5.35Y-5.775
X5.85Y-5.775
T8
X4.4191Y-4.575
X4.4191Y-4.7522
X4.675Y-4.575
X4.675Y-4.7522
T9
X4.575Y-5.1354
X4.575Y-5.35
X4.575Y-5.5646
T2
G00X3.9222Y-5.6315
M15
G01X3.9222Y-5.6591
M16
G05
G00X4.1703Y-5.0409
M15
G01X4.1703Y-5.0685
M16
G05
T0
M30
