G04 #@! TF.GenerationSoftware,KiCad,Pcbnew,(5.1.4-0-10_14)*
G04 #@! TF.CreationDate,2019-11-18T23:58:44+01:00*
G04 #@! TF.ProjectId,liberation,6c696265-7261-4746-996f-6e2e6b696361,rev?*
G04 #@! TF.SameCoordinates,Original*
G04 #@! TF.FileFunction,Copper,L2,Bot*
G04 #@! TF.FilePolarity,Positive*
%FSLAX46Y46*%
G04 Gerber Fmt 4.6, Leading zero omitted, Abs format (unit mm)*
G04 Created by KiCad (PCBNEW (5.1.4-0-10_14)) date 2019-11-18 23:58:44*
%MOMM*%
%LPD*%
G04 APERTURE LIST*
%ADD10C,1.400000*%
%ADD11O,1.400000X1.400000*%
%ADD12C,1.600000*%
%ADD13R,1.600000X1.600000*%
%ADD14R,1.700000X1.700000*%
%ADD15O,1.700000X1.700000*%
%ADD16R,1.500000X1.050000*%
%ADD17O,1.500000X1.050000*%
%ADD18O,1.700000X2.400000*%
%ADD19C,1.900000*%
%ADD20C,2.000000*%
%ADD21O,4.500000X2.500000*%
%ADD22R,4.500000X2.500000*%
%ADD23C,0.800000*%
%ADD24C,0.250000*%
%ADD25C,0.254000*%
G04 APERTURE END LIST*
D10*
X142240000Y-114300000D03*
D11*
X149860000Y-114300000D03*
D12*
X142240000Y-135890000D03*
D13*
X140240000Y-135890000D03*
D12*
X130730000Y-135890000D03*
X125730000Y-135890000D03*
X125730000Y-130810000D03*
X130730000Y-130810000D03*
D14*
X156210000Y-101600000D03*
D15*
X156210000Y-99060000D03*
X156210000Y-96520000D03*
X156210000Y-93980000D03*
X156210000Y-91440000D03*
X156210000Y-88900000D03*
D16*
X131445000Y-113030000D03*
D17*
X131445000Y-115570000D03*
X131445000Y-114300000D03*
X131445000Y-120650000D03*
X131445000Y-121920000D03*
D16*
X131445000Y-119380000D03*
D10*
X149860000Y-127000000D03*
D11*
X142240000Y-127000000D03*
X149860000Y-120650000D03*
D10*
X142240000Y-120650000D03*
D11*
X149860000Y-101600000D03*
D10*
X142240000Y-101600000D03*
X142240000Y-107950000D03*
D11*
X149860000Y-107950000D03*
D10*
X149860000Y-95250000D03*
D11*
X142240000Y-95250000D03*
X142240000Y-88900000D03*
D10*
X149860000Y-88900000D03*
D11*
X99060000Y-116205000D03*
D10*
X106680000Y-116205000D03*
D18*
X99625000Y-143390000D03*
X105925000Y-128390000D03*
D19*
X104025000Y-131890000D03*
X104025000Y-135890000D03*
X104025000Y-139890000D03*
D20*
X118745000Y-116205000D03*
X118745000Y-120705000D03*
X112245000Y-116205000D03*
X112245000Y-120705000D03*
X148590000Y-146685000D03*
X135890000Y-146685000D03*
D12*
X133985000Y-91440000D03*
X128985000Y-91440000D03*
D21*
X116205000Y-130440000D03*
X116205000Y-135890000D03*
D22*
X116205000Y-141340000D03*
D23*
X105918000Y-96520000D03*
X105918000Y-98552000D03*
X107950000Y-98552000D03*
X107950000Y-96520000D03*
X106934000Y-97536000D03*
X106934000Y-95504000D03*
X106934000Y-99568000D03*
X108966000Y-97536000D03*
X104902000Y-97536000D03*
X104902000Y-99568000D03*
X108966000Y-99568000D03*
X108966000Y-95504000D03*
X104902000Y-95504000D03*
X125095000Y-93345000D03*
X125095000Y-90170000D03*
X103505000Y-104140000D03*
X101600000Y-90805000D03*
X114300000Y-90805000D03*
X146489847Y-118305153D03*
X147515153Y-117279847D03*
X118745000Y-95885000D03*
X118745000Y-91440000D03*
D24*
X146489847Y-118305153D02*
X147515153Y-117279847D01*
X118745000Y-95885000D02*
X118745000Y-91440000D01*
D25*
G36*
X159360001Y-150470000D02*
G01*
X94005000Y-150470000D01*
X94005000Y-147820413D01*
X134934192Y-147820413D01*
X135029956Y-148084814D01*
X135319571Y-148225704D01*
X135631108Y-148307384D01*
X135952595Y-148326718D01*
X136271675Y-148282961D01*
X136576088Y-148177795D01*
X136750044Y-148084814D01*
X136845808Y-147820413D01*
X135890000Y-146864605D01*
X134934192Y-147820413D01*
X94005000Y-147820413D01*
X94005000Y-146747595D01*
X134248282Y-146747595D01*
X134292039Y-147066675D01*
X134397205Y-147371088D01*
X134490186Y-147545044D01*
X134754587Y-147640808D01*
X135710395Y-146685000D01*
X136069605Y-146685000D01*
X137025413Y-147640808D01*
X137289814Y-147545044D01*
X137430704Y-147255429D01*
X137512384Y-146943892D01*
X137531718Y-146622405D01*
X137518219Y-146523967D01*
X146955000Y-146523967D01*
X146955000Y-146846033D01*
X147017832Y-147161912D01*
X147141082Y-147459463D01*
X147320013Y-147727252D01*
X147547748Y-147954987D01*
X147815537Y-148133918D01*
X148113088Y-148257168D01*
X148428967Y-148320000D01*
X148751033Y-148320000D01*
X149066912Y-148257168D01*
X149364463Y-148133918D01*
X149632252Y-147954987D01*
X149859987Y-147727252D01*
X150038918Y-147459463D01*
X150162168Y-147161912D01*
X150225000Y-146846033D01*
X150225000Y-146523967D01*
X150162168Y-146208088D01*
X150038918Y-145910537D01*
X149859987Y-145642748D01*
X149632252Y-145415013D01*
X149364463Y-145236082D01*
X149066912Y-145112832D01*
X148751033Y-145050000D01*
X148428967Y-145050000D01*
X148113088Y-145112832D01*
X147815537Y-145236082D01*
X147547748Y-145415013D01*
X147320013Y-145642748D01*
X147141082Y-145910537D01*
X147017832Y-146208088D01*
X146955000Y-146523967D01*
X137518219Y-146523967D01*
X137487961Y-146303325D01*
X137382795Y-145998912D01*
X137289814Y-145824956D01*
X137025413Y-145729192D01*
X136069605Y-146685000D01*
X135710395Y-146685000D01*
X134754587Y-145729192D01*
X134490186Y-145824956D01*
X134349296Y-146114571D01*
X134267616Y-146426108D01*
X134248282Y-146747595D01*
X94005000Y-146747595D01*
X94005000Y-145549587D01*
X134934192Y-145549587D01*
X135890000Y-146505395D01*
X136845808Y-145549587D01*
X136750044Y-145285186D01*
X136460429Y-145144296D01*
X136148892Y-145062616D01*
X135827405Y-145043282D01*
X135508325Y-145087039D01*
X135203912Y-145192205D01*
X135029956Y-145285186D01*
X134934192Y-145549587D01*
X94005000Y-145549587D01*
X94005000Y-142967051D01*
X98140000Y-142967051D01*
X98140000Y-143812950D01*
X98161487Y-144031111D01*
X98246401Y-144311034D01*
X98384294Y-144569014D01*
X98569866Y-144795134D01*
X98795987Y-144980706D01*
X99053967Y-145118599D01*
X99333890Y-145203513D01*
X99625000Y-145232185D01*
X99916111Y-145203513D01*
X100196034Y-145118599D01*
X100454014Y-144980706D01*
X100680134Y-144795134D01*
X100865706Y-144569014D01*
X101003599Y-144311034D01*
X101088513Y-144031110D01*
X101110000Y-143812949D01*
X101110000Y-142967050D01*
X101088513Y-142748889D01*
X101040315Y-142590000D01*
X113316928Y-142590000D01*
X113329188Y-142714482D01*
X113365498Y-142834180D01*
X113424463Y-142944494D01*
X113503815Y-143041185D01*
X113600506Y-143120537D01*
X113710820Y-143179502D01*
X113830518Y-143215812D01*
X113955000Y-143228072D01*
X115919250Y-143225000D01*
X116078000Y-143066250D01*
X116078000Y-141467000D01*
X116332000Y-141467000D01*
X116332000Y-143066250D01*
X116490750Y-143225000D01*
X118455000Y-143228072D01*
X118579482Y-143215812D01*
X118699180Y-143179502D01*
X118809494Y-143120537D01*
X118906185Y-143041185D01*
X118985537Y-142944494D01*
X119044502Y-142834180D01*
X119080812Y-142714482D01*
X119093072Y-142590000D01*
X119090000Y-141625750D01*
X118931250Y-141467000D01*
X116332000Y-141467000D01*
X116078000Y-141467000D01*
X113478750Y-141467000D01*
X113320000Y-141625750D01*
X113316928Y-142590000D01*
X101040315Y-142590000D01*
X101003599Y-142468966D01*
X100865706Y-142210986D01*
X100680134Y-141984866D01*
X100454013Y-141799294D01*
X100196033Y-141661401D01*
X99916110Y-141576487D01*
X99625000Y-141547815D01*
X99333889Y-141576487D01*
X99053966Y-141661401D01*
X98795986Y-141799294D01*
X98569866Y-141984866D01*
X98384294Y-142210987D01*
X98246401Y-142468967D01*
X98161487Y-142748890D01*
X98140000Y-142967051D01*
X94005000Y-142967051D01*
X94005000Y-139733891D01*
X102440000Y-139733891D01*
X102440000Y-140046109D01*
X102500911Y-140352327D01*
X102620391Y-140640779D01*
X102793850Y-140900379D01*
X103014621Y-141121150D01*
X103274221Y-141294609D01*
X103562673Y-141414089D01*
X103868891Y-141475000D01*
X104181109Y-141475000D01*
X104487327Y-141414089D01*
X104775779Y-141294609D01*
X105035379Y-141121150D01*
X105256150Y-140900379D01*
X105429609Y-140640779D01*
X105549089Y-140352327D01*
X105601269Y-140090000D01*
X113316928Y-140090000D01*
X113320000Y-141054250D01*
X113478750Y-141213000D01*
X116078000Y-141213000D01*
X116078000Y-139613750D01*
X116332000Y-139613750D01*
X116332000Y-141213000D01*
X118931250Y-141213000D01*
X119090000Y-141054250D01*
X119093072Y-140090000D01*
X119080812Y-139965518D01*
X119044502Y-139845820D01*
X118985537Y-139735506D01*
X118906185Y-139638815D01*
X118809494Y-139559463D01*
X118699180Y-139500498D01*
X118579482Y-139464188D01*
X118455000Y-139451928D01*
X116490750Y-139455000D01*
X116332000Y-139613750D01*
X116078000Y-139613750D01*
X115919250Y-139455000D01*
X113955000Y-139451928D01*
X113830518Y-139464188D01*
X113710820Y-139500498D01*
X113600506Y-139559463D01*
X113503815Y-139638815D01*
X113424463Y-139735506D01*
X113365498Y-139845820D01*
X113329188Y-139965518D01*
X113316928Y-140090000D01*
X105601269Y-140090000D01*
X105610000Y-140046109D01*
X105610000Y-139733891D01*
X105549089Y-139427673D01*
X105429609Y-139139221D01*
X105256150Y-138879621D01*
X105035379Y-138658850D01*
X104775779Y-138485391D01*
X104487327Y-138365911D01*
X104181109Y-138305000D01*
X103868891Y-138305000D01*
X103562673Y-138365911D01*
X103274221Y-138485391D01*
X103014621Y-138658850D01*
X102793850Y-138879621D01*
X102620391Y-139139221D01*
X102500911Y-139427673D01*
X102440000Y-139733891D01*
X94005000Y-139733891D01*
X94005000Y-135733891D01*
X102440000Y-135733891D01*
X102440000Y-136046109D01*
X102500911Y-136352327D01*
X102620391Y-136640779D01*
X102793850Y-136900379D01*
X103014621Y-137121150D01*
X103274221Y-137294609D01*
X103562673Y-137414089D01*
X103868891Y-137475000D01*
X104181109Y-137475000D01*
X104487327Y-137414089D01*
X104775779Y-137294609D01*
X105035379Y-137121150D01*
X105256150Y-136900379D01*
X105429609Y-136640779D01*
X105549089Y-136352327D01*
X105610000Y-136046109D01*
X105610000Y-135890000D01*
X113310880Y-135890000D01*
X113347275Y-136259524D01*
X113455061Y-136614848D01*
X113630097Y-136942317D01*
X113865655Y-137229345D01*
X114152683Y-137464903D01*
X114480152Y-137639939D01*
X114835476Y-137747725D01*
X115112403Y-137775000D01*
X117297597Y-137775000D01*
X117574524Y-137747725D01*
X117929848Y-137639939D01*
X118257317Y-137464903D01*
X118544345Y-137229345D01*
X118779903Y-136942317D01*
X118954939Y-136614848D01*
X119062725Y-136259524D01*
X119099120Y-135890000D01*
X119085200Y-135748665D01*
X124295000Y-135748665D01*
X124295000Y-136031335D01*
X124350147Y-136308574D01*
X124458320Y-136569727D01*
X124615363Y-136804759D01*
X124815241Y-137004637D01*
X125050273Y-137161680D01*
X125311426Y-137269853D01*
X125588665Y-137325000D01*
X125871335Y-137325000D01*
X126148574Y-137269853D01*
X126409727Y-137161680D01*
X126644759Y-137004637D01*
X126766694Y-136882702D01*
X129916903Y-136882702D01*
X129988486Y-137126671D01*
X130243996Y-137247571D01*
X130518184Y-137316300D01*
X130800512Y-137330217D01*
X131080130Y-137288787D01*
X131346292Y-137193603D01*
X131471514Y-137126671D01*
X131543097Y-136882702D01*
X130730000Y-136069605D01*
X129916903Y-136882702D01*
X126766694Y-136882702D01*
X126844637Y-136804759D01*
X127001680Y-136569727D01*
X127109853Y-136308574D01*
X127165000Y-136031335D01*
X127165000Y-135960512D01*
X129289783Y-135960512D01*
X129331213Y-136240130D01*
X129426397Y-136506292D01*
X129493329Y-136631514D01*
X129737298Y-136703097D01*
X130550395Y-135890000D01*
X130909605Y-135890000D01*
X131722702Y-136703097D01*
X131767339Y-136690000D01*
X138801928Y-136690000D01*
X138814188Y-136814482D01*
X138850498Y-136934180D01*
X138909463Y-137044494D01*
X138988815Y-137141185D01*
X139085506Y-137220537D01*
X139195820Y-137279502D01*
X139315518Y-137315812D01*
X139440000Y-137328072D01*
X139954250Y-137325000D01*
X140113000Y-137166250D01*
X140113000Y-136017000D01*
X138963750Y-136017000D01*
X138805000Y-136175750D01*
X138801928Y-136690000D01*
X131767339Y-136690000D01*
X131966671Y-136631514D01*
X132087571Y-136376004D01*
X132156300Y-136101816D01*
X132170217Y-135819488D01*
X132128787Y-135539870D01*
X132033603Y-135273708D01*
X131966671Y-135148486D01*
X131767340Y-135090000D01*
X138801928Y-135090000D01*
X138805000Y-135604250D01*
X138963750Y-135763000D01*
X140113000Y-135763000D01*
X140113000Y-134613750D01*
X140367000Y-134613750D01*
X140367000Y-135763000D01*
X140387000Y-135763000D01*
X140387000Y-136017000D01*
X140367000Y-136017000D01*
X140367000Y-137166250D01*
X140525750Y-137325000D01*
X141040000Y-137328072D01*
X141164482Y-137315812D01*
X141284180Y-137279502D01*
X141394494Y-137220537D01*
X141491185Y-137141185D01*
X141504790Y-137124607D01*
X141560273Y-137161680D01*
X141821426Y-137269853D01*
X142098665Y-137325000D01*
X142381335Y-137325000D01*
X142658574Y-137269853D01*
X142919727Y-137161680D01*
X143154759Y-137004637D01*
X143354637Y-136804759D01*
X143511680Y-136569727D01*
X143619853Y-136308574D01*
X143675000Y-136031335D01*
X143675000Y-135748665D01*
X143619853Y-135471426D01*
X143511680Y-135210273D01*
X143354637Y-134975241D01*
X143154759Y-134775363D01*
X142919727Y-134618320D01*
X142658574Y-134510147D01*
X142381335Y-134455000D01*
X142098665Y-134455000D01*
X141821426Y-134510147D01*
X141560273Y-134618320D01*
X141504790Y-134655393D01*
X141491185Y-134638815D01*
X141394494Y-134559463D01*
X141284180Y-134500498D01*
X141164482Y-134464188D01*
X141040000Y-134451928D01*
X140525750Y-134455000D01*
X140367000Y-134613750D01*
X140113000Y-134613750D01*
X139954250Y-134455000D01*
X139440000Y-134451928D01*
X139315518Y-134464188D01*
X139195820Y-134500498D01*
X139085506Y-134559463D01*
X138988815Y-134638815D01*
X138909463Y-134735506D01*
X138850498Y-134845820D01*
X138814188Y-134965518D01*
X138801928Y-135090000D01*
X131767340Y-135090000D01*
X131722702Y-135076903D01*
X130909605Y-135890000D01*
X130550395Y-135890000D01*
X129737298Y-135076903D01*
X129493329Y-135148486D01*
X129372429Y-135403996D01*
X129303700Y-135678184D01*
X129289783Y-135960512D01*
X127165000Y-135960512D01*
X127165000Y-135748665D01*
X127109853Y-135471426D01*
X127001680Y-135210273D01*
X126844637Y-134975241D01*
X126766694Y-134897298D01*
X129916903Y-134897298D01*
X130730000Y-135710395D01*
X131543097Y-134897298D01*
X131471514Y-134653329D01*
X131216004Y-134532429D01*
X130941816Y-134463700D01*
X130659488Y-134449783D01*
X130379870Y-134491213D01*
X130113708Y-134586397D01*
X129988486Y-134653329D01*
X129916903Y-134897298D01*
X126766694Y-134897298D01*
X126644759Y-134775363D01*
X126409727Y-134618320D01*
X126148574Y-134510147D01*
X125871335Y-134455000D01*
X125588665Y-134455000D01*
X125311426Y-134510147D01*
X125050273Y-134618320D01*
X124815241Y-134775363D01*
X124615363Y-134975241D01*
X124458320Y-135210273D01*
X124350147Y-135471426D01*
X124295000Y-135748665D01*
X119085200Y-135748665D01*
X119062725Y-135520476D01*
X118954939Y-135165152D01*
X118779903Y-134837683D01*
X118544345Y-134550655D01*
X118257317Y-134315097D01*
X117929848Y-134140061D01*
X117574524Y-134032275D01*
X117297597Y-134005000D01*
X115112403Y-134005000D01*
X114835476Y-134032275D01*
X114480152Y-134140061D01*
X114152683Y-134315097D01*
X113865655Y-134550655D01*
X113630097Y-134837683D01*
X113455061Y-135165152D01*
X113347275Y-135520476D01*
X113310880Y-135890000D01*
X105610000Y-135890000D01*
X105610000Y-135733891D01*
X105549089Y-135427673D01*
X105429609Y-135139221D01*
X105256150Y-134879621D01*
X105035379Y-134658850D01*
X104775779Y-134485391D01*
X104487327Y-134365911D01*
X104181109Y-134305000D01*
X103868891Y-134305000D01*
X103562673Y-134365911D01*
X103274221Y-134485391D01*
X103014621Y-134658850D01*
X102793850Y-134879621D01*
X102620391Y-135139221D01*
X102500911Y-135427673D01*
X102440000Y-135733891D01*
X94005000Y-135733891D01*
X94005000Y-131733891D01*
X102440000Y-131733891D01*
X102440000Y-132046109D01*
X102500911Y-132352327D01*
X102620391Y-132640779D01*
X102793850Y-132900379D01*
X103014621Y-133121150D01*
X103274221Y-133294609D01*
X103562673Y-133414089D01*
X103868891Y-133475000D01*
X104181109Y-133475000D01*
X104487327Y-133414089D01*
X104775779Y-133294609D01*
X105035379Y-133121150D01*
X105256150Y-132900379D01*
X105429609Y-132640779D01*
X105549089Y-132352327D01*
X105610000Y-132046109D01*
X105610000Y-131733891D01*
X105549089Y-131427673D01*
X105429609Y-131139221D01*
X105256150Y-130879621D01*
X105035379Y-130658850D01*
X104775779Y-130485391D01*
X104666195Y-130440000D01*
X113310880Y-130440000D01*
X113347275Y-130809524D01*
X113455061Y-131164848D01*
X113630097Y-131492317D01*
X113865655Y-131779345D01*
X114152683Y-132014903D01*
X114480152Y-132189939D01*
X114835476Y-132297725D01*
X115112403Y-132325000D01*
X117297597Y-132325000D01*
X117574524Y-132297725D01*
X117929848Y-132189939D01*
X118257317Y-132014903D01*
X118544345Y-131779345D01*
X118779903Y-131492317D01*
X118954939Y-131164848D01*
X119062725Y-130809524D01*
X119076598Y-130668665D01*
X124295000Y-130668665D01*
X124295000Y-130951335D01*
X124350147Y-131228574D01*
X124458320Y-131489727D01*
X124615363Y-131724759D01*
X124815241Y-131924637D01*
X125050273Y-132081680D01*
X125311426Y-132189853D01*
X125588665Y-132245000D01*
X125871335Y-132245000D01*
X126148574Y-132189853D01*
X126409727Y-132081680D01*
X126644759Y-131924637D01*
X126766694Y-131802702D01*
X129916903Y-131802702D01*
X129988486Y-132046671D01*
X130243996Y-132167571D01*
X130518184Y-132236300D01*
X130800512Y-132250217D01*
X131080130Y-132208787D01*
X131346292Y-132113603D01*
X131471514Y-132046671D01*
X131543097Y-131802702D01*
X130730000Y-130989605D01*
X129916903Y-131802702D01*
X126766694Y-131802702D01*
X126844637Y-131724759D01*
X127001680Y-131489727D01*
X127109853Y-131228574D01*
X127165000Y-130951335D01*
X127165000Y-130880512D01*
X129289783Y-130880512D01*
X129331213Y-131160130D01*
X129426397Y-131426292D01*
X129493329Y-131551514D01*
X129737298Y-131623097D01*
X130550395Y-130810000D01*
X130909605Y-130810000D01*
X131722702Y-131623097D01*
X131966671Y-131551514D01*
X132087571Y-131296004D01*
X132156300Y-131021816D01*
X132170217Y-130739488D01*
X132128787Y-130459870D01*
X132033603Y-130193708D01*
X131966671Y-130068486D01*
X131722702Y-129996903D01*
X130909605Y-130810000D01*
X130550395Y-130810000D01*
X129737298Y-129996903D01*
X129493329Y-130068486D01*
X129372429Y-130323996D01*
X129303700Y-130598184D01*
X129289783Y-130880512D01*
X127165000Y-130880512D01*
X127165000Y-130668665D01*
X127109853Y-130391426D01*
X127001680Y-130130273D01*
X126844637Y-129895241D01*
X126766694Y-129817298D01*
X129916903Y-129817298D01*
X130730000Y-130630395D01*
X131543097Y-129817298D01*
X131471514Y-129573329D01*
X131216004Y-129452429D01*
X130941816Y-129383700D01*
X130659488Y-129369783D01*
X130379870Y-129411213D01*
X130113708Y-129506397D01*
X129988486Y-129573329D01*
X129916903Y-129817298D01*
X126766694Y-129817298D01*
X126644759Y-129695363D01*
X126409727Y-129538320D01*
X126148574Y-129430147D01*
X125871335Y-129375000D01*
X125588665Y-129375000D01*
X125311426Y-129430147D01*
X125050273Y-129538320D01*
X124815241Y-129695363D01*
X124615363Y-129895241D01*
X124458320Y-130130273D01*
X124350147Y-130391426D01*
X124295000Y-130668665D01*
X119076598Y-130668665D01*
X119099120Y-130440000D01*
X119062725Y-130070476D01*
X118954939Y-129715152D01*
X118779903Y-129387683D01*
X118544345Y-129100655D01*
X118257317Y-128865097D01*
X117929848Y-128690061D01*
X117574524Y-128582275D01*
X117297597Y-128555000D01*
X115112403Y-128555000D01*
X114835476Y-128582275D01*
X114480152Y-128690061D01*
X114152683Y-128865097D01*
X113865655Y-129100655D01*
X113630097Y-129387683D01*
X113455061Y-129715152D01*
X113347275Y-130070476D01*
X113310880Y-130440000D01*
X104666195Y-130440000D01*
X104487327Y-130365911D01*
X104181109Y-130305000D01*
X103868891Y-130305000D01*
X103562673Y-130365911D01*
X103274221Y-130485391D01*
X103014621Y-130658850D01*
X102793850Y-130879621D01*
X102620391Y-131139221D01*
X102500911Y-131427673D01*
X102440000Y-131733891D01*
X94005000Y-131733891D01*
X94005000Y-127967051D01*
X104440000Y-127967051D01*
X104440000Y-128812950D01*
X104461487Y-129031111D01*
X104546401Y-129311034D01*
X104684294Y-129569014D01*
X104869866Y-129795134D01*
X105095987Y-129980706D01*
X105353967Y-130118599D01*
X105633890Y-130203513D01*
X105925000Y-130232185D01*
X106216111Y-130203513D01*
X106496034Y-130118599D01*
X106754014Y-129980706D01*
X106980134Y-129795134D01*
X107165706Y-129569014D01*
X107303599Y-129311034D01*
X107388513Y-129031110D01*
X107410000Y-128812949D01*
X107410000Y-127967050D01*
X107388513Y-127748889D01*
X107303599Y-127468966D01*
X107165706Y-127210986D01*
X106992555Y-127000000D01*
X140898541Y-127000000D01*
X140924317Y-127261706D01*
X141000653Y-127513354D01*
X141124618Y-127745275D01*
X141291445Y-127948555D01*
X141494725Y-128115382D01*
X141726646Y-128239347D01*
X141978294Y-128315683D01*
X142174421Y-128335000D01*
X142305579Y-128335000D01*
X142501706Y-128315683D01*
X142753354Y-128239347D01*
X142985275Y-128115382D01*
X143188555Y-127948555D01*
X143355382Y-127745275D01*
X143479347Y-127513354D01*
X143555683Y-127261706D01*
X143581459Y-127000000D01*
X143568509Y-126868514D01*
X148525000Y-126868514D01*
X148525000Y-127131486D01*
X148576304Y-127389405D01*
X148676939Y-127632359D01*
X148823038Y-127851013D01*
X149008987Y-128036962D01*
X149227641Y-128183061D01*
X149470595Y-128283696D01*
X149728514Y-128335000D01*
X149991486Y-128335000D01*
X150249405Y-128283696D01*
X150492359Y-128183061D01*
X150711013Y-128036962D01*
X150896962Y-127851013D01*
X151043061Y-127632359D01*
X151143696Y-127389405D01*
X151195000Y-127131486D01*
X151195000Y-126868514D01*
X151143696Y-126610595D01*
X151043061Y-126367641D01*
X150896962Y-126148987D01*
X150711013Y-125963038D01*
X150492359Y-125816939D01*
X150249405Y-125716304D01*
X149991486Y-125665000D01*
X149728514Y-125665000D01*
X149470595Y-125716304D01*
X149227641Y-125816939D01*
X149008987Y-125963038D01*
X148823038Y-126148987D01*
X148676939Y-126367641D01*
X148576304Y-126610595D01*
X148525000Y-126868514D01*
X143568509Y-126868514D01*
X143555683Y-126738294D01*
X143479347Y-126486646D01*
X143355382Y-126254725D01*
X143188555Y-126051445D01*
X142985275Y-125884618D01*
X142753354Y-125760653D01*
X142501706Y-125684317D01*
X142305579Y-125665000D01*
X142174421Y-125665000D01*
X141978294Y-125684317D01*
X141726646Y-125760653D01*
X141494725Y-125884618D01*
X141291445Y-126051445D01*
X141124618Y-126254725D01*
X141000653Y-126486646D01*
X140924317Y-126738294D01*
X140898541Y-127000000D01*
X106992555Y-127000000D01*
X106980134Y-126984866D01*
X106754013Y-126799294D01*
X106496033Y-126661401D01*
X106216110Y-126576487D01*
X105925000Y-126547815D01*
X105633889Y-126576487D01*
X105353966Y-126661401D01*
X105095986Y-126799294D01*
X104869866Y-126984866D01*
X104684294Y-127210987D01*
X104546401Y-127468967D01*
X104461487Y-127748890D01*
X104440000Y-127967051D01*
X94005000Y-127967051D01*
X94005000Y-120543967D01*
X110610000Y-120543967D01*
X110610000Y-120866033D01*
X110672832Y-121181912D01*
X110796082Y-121479463D01*
X110975013Y-121747252D01*
X111202748Y-121974987D01*
X111470537Y-122153918D01*
X111768088Y-122277168D01*
X112083967Y-122340000D01*
X112406033Y-122340000D01*
X112721912Y-122277168D01*
X113019463Y-122153918D01*
X113287252Y-121974987D01*
X113514987Y-121747252D01*
X113693918Y-121479463D01*
X113817168Y-121181912D01*
X113880000Y-120866033D01*
X113880000Y-120543967D01*
X117110000Y-120543967D01*
X117110000Y-120866033D01*
X117172832Y-121181912D01*
X117296082Y-121479463D01*
X117475013Y-121747252D01*
X117702748Y-121974987D01*
X117970537Y-122153918D01*
X118268088Y-122277168D01*
X118583967Y-122340000D01*
X118906033Y-122340000D01*
X119221912Y-122277168D01*
X119519463Y-122153918D01*
X119787252Y-121974987D01*
X120014987Y-121747252D01*
X120193918Y-121479463D01*
X120317168Y-121181912D01*
X120380000Y-120866033D01*
X120380000Y-120650000D01*
X130054388Y-120650000D01*
X130076785Y-120877400D01*
X130143115Y-121096060D01*
X130244105Y-121285000D01*
X130143115Y-121473940D01*
X130076785Y-121692600D01*
X130054388Y-121920000D01*
X130076785Y-122147400D01*
X130143115Y-122366060D01*
X130250829Y-122567579D01*
X130395788Y-122744212D01*
X130572421Y-122889171D01*
X130773940Y-122996885D01*
X130992600Y-123063215D01*
X131163021Y-123080000D01*
X131726979Y-123080000D01*
X131897400Y-123063215D01*
X132116060Y-122996885D01*
X132317579Y-122889171D01*
X132494212Y-122744212D01*
X132639171Y-122567579D01*
X132746885Y-122366060D01*
X132813215Y-122147400D01*
X132835612Y-121920000D01*
X132813215Y-121692600D01*
X132746885Y-121473940D01*
X132645895Y-121285000D01*
X132746885Y-121096060D01*
X132813215Y-120877400D01*
X132835612Y-120650000D01*
X132822662Y-120518514D01*
X140905000Y-120518514D01*
X140905000Y-120781486D01*
X140956304Y-121039405D01*
X141056939Y-121282359D01*
X141203038Y-121501013D01*
X141388987Y-121686962D01*
X141607641Y-121833061D01*
X141850595Y-121933696D01*
X142108514Y-121985000D01*
X142371486Y-121985000D01*
X142629405Y-121933696D01*
X142872359Y-121833061D01*
X143091013Y-121686962D01*
X143276962Y-121501013D01*
X143423061Y-121282359D01*
X143523696Y-121039405D01*
X143575000Y-120781486D01*
X143575000Y-120650000D01*
X148518541Y-120650000D01*
X148544317Y-120911706D01*
X148620653Y-121163354D01*
X148744618Y-121395275D01*
X148911445Y-121598555D01*
X149114725Y-121765382D01*
X149346646Y-121889347D01*
X149598294Y-121965683D01*
X149794421Y-121985000D01*
X149925579Y-121985000D01*
X150121706Y-121965683D01*
X150373354Y-121889347D01*
X150605275Y-121765382D01*
X150808555Y-121598555D01*
X150975382Y-121395275D01*
X151099347Y-121163354D01*
X151175683Y-120911706D01*
X151201459Y-120650000D01*
X151175683Y-120388294D01*
X151099347Y-120136646D01*
X150975382Y-119904725D01*
X150808555Y-119701445D01*
X150605275Y-119534618D01*
X150373354Y-119410653D01*
X150121706Y-119334317D01*
X149925579Y-119315000D01*
X149794421Y-119315000D01*
X149598294Y-119334317D01*
X149346646Y-119410653D01*
X149114725Y-119534618D01*
X148911445Y-119701445D01*
X148744618Y-119904725D01*
X148620653Y-120136646D01*
X148544317Y-120388294D01*
X148518541Y-120650000D01*
X143575000Y-120650000D01*
X143575000Y-120518514D01*
X143523696Y-120260595D01*
X143423061Y-120017641D01*
X143276962Y-119798987D01*
X143091013Y-119613038D01*
X142872359Y-119466939D01*
X142629405Y-119366304D01*
X142371486Y-119315000D01*
X142108514Y-119315000D01*
X141850595Y-119366304D01*
X141607641Y-119466939D01*
X141388987Y-119613038D01*
X141203038Y-119798987D01*
X141056939Y-120017641D01*
X140956304Y-120260595D01*
X140905000Y-120518514D01*
X132822662Y-120518514D01*
X132813215Y-120422600D01*
X132749907Y-120213902D01*
X132784502Y-120149180D01*
X132820812Y-120029482D01*
X132833072Y-119905000D01*
X132833072Y-118855000D01*
X132820812Y-118730518D01*
X132784502Y-118610820D01*
X132725537Y-118500506D01*
X132646185Y-118403815D01*
X132549494Y-118324463D01*
X132439180Y-118265498D01*
X132319482Y-118229188D01*
X132195000Y-118216928D01*
X130695000Y-118216928D01*
X130570518Y-118229188D01*
X130450820Y-118265498D01*
X130340506Y-118324463D01*
X130243815Y-118403815D01*
X130164463Y-118500506D01*
X130105498Y-118610820D01*
X130069188Y-118730518D01*
X130056928Y-118855000D01*
X130056928Y-119905000D01*
X130069188Y-120029482D01*
X130105498Y-120149180D01*
X130140093Y-120213902D01*
X130076785Y-120422600D01*
X130054388Y-120650000D01*
X120380000Y-120650000D01*
X120380000Y-120543967D01*
X120317168Y-120228088D01*
X120193918Y-119930537D01*
X120014987Y-119662748D01*
X119787252Y-119435013D01*
X119519463Y-119256082D01*
X119221912Y-119132832D01*
X118906033Y-119070000D01*
X118583967Y-119070000D01*
X118268088Y-119132832D01*
X117970537Y-119256082D01*
X117702748Y-119435013D01*
X117475013Y-119662748D01*
X117296082Y-119930537D01*
X117172832Y-120228088D01*
X117110000Y-120543967D01*
X113880000Y-120543967D01*
X113817168Y-120228088D01*
X113693918Y-119930537D01*
X113514987Y-119662748D01*
X113287252Y-119435013D01*
X113019463Y-119256082D01*
X112721912Y-119132832D01*
X112406033Y-119070000D01*
X112083967Y-119070000D01*
X111768088Y-119132832D01*
X111470537Y-119256082D01*
X111202748Y-119435013D01*
X110975013Y-119662748D01*
X110796082Y-119930537D01*
X110672832Y-120228088D01*
X110610000Y-120543967D01*
X94005000Y-120543967D01*
X94005000Y-118203214D01*
X145454847Y-118203214D01*
X145454847Y-118407092D01*
X145494621Y-118607051D01*
X145572642Y-118795409D01*
X145685910Y-118964927D01*
X145830073Y-119109090D01*
X145999591Y-119222358D01*
X146187949Y-119300379D01*
X146387908Y-119340153D01*
X146591786Y-119340153D01*
X146791745Y-119300379D01*
X146980103Y-119222358D01*
X147149621Y-119109090D01*
X147293784Y-118964927D01*
X147407052Y-118795409D01*
X147485073Y-118607051D01*
X147524847Y-118407092D01*
X147524847Y-118344954D01*
X147554955Y-118314847D01*
X147617092Y-118314847D01*
X147817051Y-118275073D01*
X148005409Y-118197052D01*
X148174927Y-118083784D01*
X148319090Y-117939621D01*
X148432358Y-117770103D01*
X148510379Y-117581745D01*
X148550153Y-117381786D01*
X148550153Y-117177908D01*
X148510379Y-116977949D01*
X148432358Y-116789591D01*
X148319090Y-116620073D01*
X148174927Y-116475910D01*
X148005409Y-116362642D01*
X147817051Y-116284621D01*
X147617092Y-116244847D01*
X147413214Y-116244847D01*
X147213255Y-116284621D01*
X147024897Y-116362642D01*
X146855379Y-116475910D01*
X146711216Y-116620073D01*
X146597948Y-116789591D01*
X146519927Y-116977949D01*
X146480153Y-117177908D01*
X146480153Y-117240045D01*
X146450046Y-117270153D01*
X146387908Y-117270153D01*
X146187949Y-117309927D01*
X145999591Y-117387948D01*
X145830073Y-117501216D01*
X145685910Y-117645379D01*
X145572642Y-117814897D01*
X145494621Y-118003255D01*
X145454847Y-118203214D01*
X94005000Y-118203214D01*
X94005000Y-116538329D01*
X97767284Y-116538329D01*
X97799953Y-116646044D01*
X97910208Y-116883392D01*
X98064649Y-117094670D01*
X98257340Y-117271759D01*
X98480877Y-117407853D01*
X98726670Y-117497722D01*
X98933000Y-117375201D01*
X98933000Y-116332000D01*
X99187000Y-116332000D01*
X99187000Y-117375201D01*
X99393330Y-117497722D01*
X99639123Y-117407853D01*
X99862660Y-117271759D01*
X100055351Y-117094670D01*
X100209792Y-116883392D01*
X100320047Y-116646044D01*
X100352716Y-116538329D01*
X100229374Y-116332000D01*
X99187000Y-116332000D01*
X98933000Y-116332000D01*
X97890626Y-116332000D01*
X97767284Y-116538329D01*
X94005000Y-116538329D01*
X94005000Y-115871671D01*
X97767284Y-115871671D01*
X97890626Y-116078000D01*
X98933000Y-116078000D01*
X98933000Y-115034799D01*
X99187000Y-115034799D01*
X99187000Y-116078000D01*
X100229374Y-116078000D01*
X100232055Y-116073514D01*
X105345000Y-116073514D01*
X105345000Y-116336486D01*
X105396304Y-116594405D01*
X105496939Y-116837359D01*
X105643038Y-117056013D01*
X105828987Y-117241962D01*
X106047641Y-117388061D01*
X106290595Y-117488696D01*
X106548514Y-117540000D01*
X106811486Y-117540000D01*
X107069405Y-117488696D01*
X107312359Y-117388061D01*
X107531013Y-117241962D01*
X107716962Y-117056013D01*
X107863061Y-116837359D01*
X107963696Y-116594405D01*
X108015000Y-116336486D01*
X108015000Y-116073514D01*
X108009123Y-116043967D01*
X110610000Y-116043967D01*
X110610000Y-116366033D01*
X110672832Y-116681912D01*
X110796082Y-116979463D01*
X110975013Y-117247252D01*
X111202748Y-117474987D01*
X111470537Y-117653918D01*
X111768088Y-117777168D01*
X112083967Y-117840000D01*
X112406033Y-117840000D01*
X112721912Y-117777168D01*
X113019463Y-117653918D01*
X113287252Y-117474987D01*
X113514987Y-117247252D01*
X113693918Y-116979463D01*
X113817168Y-116681912D01*
X113880000Y-116366033D01*
X113880000Y-116043967D01*
X117110000Y-116043967D01*
X117110000Y-116366033D01*
X117172832Y-116681912D01*
X117296082Y-116979463D01*
X117475013Y-117247252D01*
X117702748Y-117474987D01*
X117970537Y-117653918D01*
X118268088Y-117777168D01*
X118583967Y-117840000D01*
X118906033Y-117840000D01*
X119221912Y-117777168D01*
X119519463Y-117653918D01*
X119787252Y-117474987D01*
X120014987Y-117247252D01*
X120193918Y-116979463D01*
X120317168Y-116681912D01*
X120380000Y-116366033D01*
X120380000Y-116043967D01*
X120317168Y-115728088D01*
X120193918Y-115430537D01*
X120014987Y-115162748D01*
X119787252Y-114935013D01*
X119519463Y-114756082D01*
X119221912Y-114632832D01*
X118906033Y-114570000D01*
X118583967Y-114570000D01*
X118268088Y-114632832D01*
X117970537Y-114756082D01*
X117702748Y-114935013D01*
X117475013Y-115162748D01*
X117296082Y-115430537D01*
X117172832Y-115728088D01*
X117110000Y-116043967D01*
X113880000Y-116043967D01*
X113817168Y-115728088D01*
X113693918Y-115430537D01*
X113514987Y-115162748D01*
X113287252Y-114935013D01*
X113019463Y-114756082D01*
X112721912Y-114632832D01*
X112406033Y-114570000D01*
X112083967Y-114570000D01*
X111768088Y-114632832D01*
X111470537Y-114756082D01*
X111202748Y-114935013D01*
X110975013Y-115162748D01*
X110796082Y-115430537D01*
X110672832Y-115728088D01*
X110610000Y-116043967D01*
X108009123Y-116043967D01*
X107963696Y-115815595D01*
X107863061Y-115572641D01*
X107716962Y-115353987D01*
X107531013Y-115168038D01*
X107312359Y-115021939D01*
X107069405Y-114921304D01*
X106811486Y-114870000D01*
X106548514Y-114870000D01*
X106290595Y-114921304D01*
X106047641Y-115021939D01*
X105828987Y-115168038D01*
X105643038Y-115353987D01*
X105496939Y-115572641D01*
X105396304Y-115815595D01*
X105345000Y-116073514D01*
X100232055Y-116073514D01*
X100352716Y-115871671D01*
X100320047Y-115763956D01*
X100209792Y-115526608D01*
X100055351Y-115315330D01*
X99862660Y-115138241D01*
X99639123Y-115002147D01*
X99393330Y-114912278D01*
X99187000Y-115034799D01*
X98933000Y-115034799D01*
X98726670Y-114912278D01*
X98480877Y-115002147D01*
X98257340Y-115138241D01*
X98064649Y-115315330D01*
X97910208Y-115526608D01*
X97799953Y-115763956D01*
X97767284Y-115871671D01*
X94005000Y-115871671D01*
X94005000Y-114300000D01*
X130054388Y-114300000D01*
X130076785Y-114527400D01*
X130143115Y-114746060D01*
X130244105Y-114935000D01*
X130143115Y-115123940D01*
X130076785Y-115342600D01*
X130054388Y-115570000D01*
X130076785Y-115797400D01*
X130143115Y-116016060D01*
X130250829Y-116217579D01*
X130395788Y-116394212D01*
X130572421Y-116539171D01*
X130773940Y-116646885D01*
X130992600Y-116713215D01*
X131163021Y-116730000D01*
X131726979Y-116730000D01*
X131897400Y-116713215D01*
X132116060Y-116646885D01*
X132317579Y-116539171D01*
X132494212Y-116394212D01*
X132639171Y-116217579D01*
X132746885Y-116016060D01*
X132813215Y-115797400D01*
X132835612Y-115570000D01*
X132813215Y-115342600D01*
X132746885Y-115123940D01*
X132645895Y-114935000D01*
X132746885Y-114746060D01*
X132813215Y-114527400D01*
X132835612Y-114300000D01*
X132822662Y-114168514D01*
X140905000Y-114168514D01*
X140905000Y-114431486D01*
X140956304Y-114689405D01*
X141056939Y-114932359D01*
X141203038Y-115151013D01*
X141388987Y-115336962D01*
X141607641Y-115483061D01*
X141850595Y-115583696D01*
X142108514Y-115635000D01*
X142371486Y-115635000D01*
X142629405Y-115583696D01*
X142872359Y-115483061D01*
X143091013Y-115336962D01*
X143276962Y-115151013D01*
X143423061Y-114932359D01*
X143523696Y-114689405D01*
X143575000Y-114431486D01*
X143575000Y-114300000D01*
X148518541Y-114300000D01*
X148544317Y-114561706D01*
X148620653Y-114813354D01*
X148744618Y-115045275D01*
X148911445Y-115248555D01*
X149114725Y-115415382D01*
X149346646Y-115539347D01*
X149598294Y-115615683D01*
X149794421Y-115635000D01*
X149925579Y-115635000D01*
X150121706Y-115615683D01*
X150373354Y-115539347D01*
X150605275Y-115415382D01*
X150808555Y-115248555D01*
X150975382Y-115045275D01*
X151099347Y-114813354D01*
X151175683Y-114561706D01*
X151201459Y-114300000D01*
X151175683Y-114038294D01*
X151099347Y-113786646D01*
X150975382Y-113554725D01*
X150808555Y-113351445D01*
X150605275Y-113184618D01*
X150373354Y-113060653D01*
X150121706Y-112984317D01*
X149925579Y-112965000D01*
X149794421Y-112965000D01*
X149598294Y-112984317D01*
X149346646Y-113060653D01*
X149114725Y-113184618D01*
X148911445Y-113351445D01*
X148744618Y-113554725D01*
X148620653Y-113786646D01*
X148544317Y-114038294D01*
X148518541Y-114300000D01*
X143575000Y-114300000D01*
X143575000Y-114168514D01*
X143523696Y-113910595D01*
X143423061Y-113667641D01*
X143276962Y-113448987D01*
X143091013Y-113263038D01*
X142872359Y-113116939D01*
X142629405Y-113016304D01*
X142371486Y-112965000D01*
X142108514Y-112965000D01*
X141850595Y-113016304D01*
X141607641Y-113116939D01*
X141388987Y-113263038D01*
X141203038Y-113448987D01*
X141056939Y-113667641D01*
X140956304Y-113910595D01*
X140905000Y-114168514D01*
X132822662Y-114168514D01*
X132813215Y-114072600D01*
X132749907Y-113863902D01*
X132784502Y-113799180D01*
X132820812Y-113679482D01*
X132833072Y-113555000D01*
X132833072Y-112505000D01*
X132820812Y-112380518D01*
X132784502Y-112260820D01*
X132725537Y-112150506D01*
X132646185Y-112053815D01*
X132549494Y-111974463D01*
X132439180Y-111915498D01*
X132319482Y-111879188D01*
X132195000Y-111866928D01*
X130695000Y-111866928D01*
X130570518Y-111879188D01*
X130450820Y-111915498D01*
X130340506Y-111974463D01*
X130243815Y-112053815D01*
X130164463Y-112150506D01*
X130105498Y-112260820D01*
X130069188Y-112380518D01*
X130056928Y-112505000D01*
X130056928Y-113555000D01*
X130069188Y-113679482D01*
X130105498Y-113799180D01*
X130140093Y-113863902D01*
X130076785Y-114072600D01*
X130054388Y-114300000D01*
X94005000Y-114300000D01*
X94005000Y-107818514D01*
X140905000Y-107818514D01*
X140905000Y-108081486D01*
X140956304Y-108339405D01*
X141056939Y-108582359D01*
X141203038Y-108801013D01*
X141388987Y-108986962D01*
X141607641Y-109133061D01*
X141850595Y-109233696D01*
X142108514Y-109285000D01*
X142371486Y-109285000D01*
X142629405Y-109233696D01*
X142872359Y-109133061D01*
X143091013Y-108986962D01*
X143276962Y-108801013D01*
X143423061Y-108582359D01*
X143523696Y-108339405D01*
X143575000Y-108081486D01*
X143575000Y-107950000D01*
X148518541Y-107950000D01*
X148544317Y-108211706D01*
X148620653Y-108463354D01*
X148744618Y-108695275D01*
X148911445Y-108898555D01*
X149114725Y-109065382D01*
X149346646Y-109189347D01*
X149598294Y-109265683D01*
X149794421Y-109285000D01*
X149925579Y-109285000D01*
X150121706Y-109265683D01*
X150373354Y-109189347D01*
X150605275Y-109065382D01*
X150808555Y-108898555D01*
X150975382Y-108695275D01*
X151099347Y-108463354D01*
X151175683Y-108211706D01*
X151201459Y-107950000D01*
X151175683Y-107688294D01*
X151099347Y-107436646D01*
X150975382Y-107204725D01*
X150808555Y-107001445D01*
X150605275Y-106834618D01*
X150373354Y-106710653D01*
X150121706Y-106634317D01*
X149925579Y-106615000D01*
X149794421Y-106615000D01*
X149598294Y-106634317D01*
X149346646Y-106710653D01*
X149114725Y-106834618D01*
X148911445Y-107001445D01*
X148744618Y-107204725D01*
X148620653Y-107436646D01*
X148544317Y-107688294D01*
X148518541Y-107950000D01*
X143575000Y-107950000D01*
X143575000Y-107818514D01*
X143523696Y-107560595D01*
X143423061Y-107317641D01*
X143276962Y-107098987D01*
X143091013Y-106913038D01*
X142872359Y-106766939D01*
X142629405Y-106666304D01*
X142371486Y-106615000D01*
X142108514Y-106615000D01*
X141850595Y-106666304D01*
X141607641Y-106766939D01*
X141388987Y-106913038D01*
X141203038Y-107098987D01*
X141056939Y-107317641D01*
X140956304Y-107560595D01*
X140905000Y-107818514D01*
X94005000Y-107818514D01*
X94005000Y-101468514D01*
X140905000Y-101468514D01*
X140905000Y-101731486D01*
X140956304Y-101989405D01*
X141056939Y-102232359D01*
X141203038Y-102451013D01*
X141388987Y-102636962D01*
X141607641Y-102783061D01*
X141850595Y-102883696D01*
X142108514Y-102935000D01*
X142371486Y-102935000D01*
X142629405Y-102883696D01*
X142872359Y-102783061D01*
X143091013Y-102636962D01*
X143276962Y-102451013D01*
X143423061Y-102232359D01*
X143523696Y-101989405D01*
X143575000Y-101731486D01*
X143575000Y-101600000D01*
X148518541Y-101600000D01*
X148544317Y-101861706D01*
X148620653Y-102113354D01*
X148744618Y-102345275D01*
X148911445Y-102548555D01*
X149114725Y-102715382D01*
X149346646Y-102839347D01*
X149598294Y-102915683D01*
X149794421Y-102935000D01*
X149925579Y-102935000D01*
X150121706Y-102915683D01*
X150373354Y-102839347D01*
X150605275Y-102715382D01*
X150808555Y-102548555D01*
X150889436Y-102450000D01*
X154721928Y-102450000D01*
X154734188Y-102574482D01*
X154770498Y-102694180D01*
X154829463Y-102804494D01*
X154908815Y-102901185D01*
X155005506Y-102980537D01*
X155115820Y-103039502D01*
X155235518Y-103075812D01*
X155360000Y-103088072D01*
X155924250Y-103085000D01*
X156083000Y-102926250D01*
X156083000Y-101727000D01*
X156337000Y-101727000D01*
X156337000Y-102926250D01*
X156495750Y-103085000D01*
X157060000Y-103088072D01*
X157184482Y-103075812D01*
X157304180Y-103039502D01*
X157414494Y-102980537D01*
X157511185Y-102901185D01*
X157590537Y-102804494D01*
X157649502Y-102694180D01*
X157685812Y-102574482D01*
X157698072Y-102450000D01*
X157695000Y-101885750D01*
X157536250Y-101727000D01*
X156337000Y-101727000D01*
X156083000Y-101727000D01*
X154883750Y-101727000D01*
X154725000Y-101885750D01*
X154721928Y-102450000D01*
X150889436Y-102450000D01*
X150975382Y-102345275D01*
X151099347Y-102113354D01*
X151175683Y-101861706D01*
X151201459Y-101600000D01*
X151175683Y-101338294D01*
X151099347Y-101086646D01*
X150975382Y-100854725D01*
X150808555Y-100651445D01*
X150605275Y-100484618D01*
X150373354Y-100360653D01*
X150121706Y-100284317D01*
X149925579Y-100265000D01*
X149794421Y-100265000D01*
X149598294Y-100284317D01*
X149346646Y-100360653D01*
X149114725Y-100484618D01*
X148911445Y-100651445D01*
X148744618Y-100854725D01*
X148620653Y-101086646D01*
X148544317Y-101338294D01*
X148518541Y-101600000D01*
X143575000Y-101600000D01*
X143575000Y-101468514D01*
X143523696Y-101210595D01*
X143423061Y-100967641D01*
X143276962Y-100748987D01*
X143091013Y-100563038D01*
X142872359Y-100416939D01*
X142629405Y-100316304D01*
X142371486Y-100265000D01*
X142108514Y-100265000D01*
X141850595Y-100316304D01*
X141607641Y-100416939D01*
X141388987Y-100563038D01*
X141203038Y-100748987D01*
X141056939Y-100967641D01*
X140956304Y-101210595D01*
X140905000Y-101468514D01*
X94005000Y-101468514D01*
X94005000Y-91338061D01*
X117710000Y-91338061D01*
X117710000Y-91541939D01*
X117749774Y-91741898D01*
X117827795Y-91930256D01*
X117941063Y-92099774D01*
X117985001Y-92143712D01*
X117985000Y-95181289D01*
X117941063Y-95225226D01*
X117827795Y-95394744D01*
X117749774Y-95583102D01*
X117710000Y-95783061D01*
X117710000Y-95986939D01*
X117749774Y-96186898D01*
X117827795Y-96375256D01*
X117941063Y-96544774D01*
X118085226Y-96688937D01*
X118254744Y-96802205D01*
X118443102Y-96880226D01*
X118643061Y-96920000D01*
X118846939Y-96920000D01*
X119046898Y-96880226D01*
X119235256Y-96802205D01*
X119404774Y-96688937D01*
X119548937Y-96544774D01*
X119662205Y-96375256D01*
X119740226Y-96186898D01*
X119780000Y-95986939D01*
X119780000Y-95783061D01*
X119740226Y-95583102D01*
X119662205Y-95394744D01*
X119565491Y-95250000D01*
X140898541Y-95250000D01*
X140924317Y-95511706D01*
X141000653Y-95763354D01*
X141124618Y-95995275D01*
X141291445Y-96198555D01*
X141494725Y-96365382D01*
X141726646Y-96489347D01*
X141978294Y-96565683D01*
X142174421Y-96585000D01*
X142305579Y-96585000D01*
X142501706Y-96565683D01*
X142753354Y-96489347D01*
X142985275Y-96365382D01*
X143188555Y-96198555D01*
X143355382Y-95995275D01*
X143479347Y-95763354D01*
X143555683Y-95511706D01*
X143581459Y-95250000D01*
X143568509Y-95118514D01*
X148525000Y-95118514D01*
X148525000Y-95381486D01*
X148576304Y-95639405D01*
X148676939Y-95882359D01*
X148823038Y-96101013D01*
X149008987Y-96286962D01*
X149227641Y-96433061D01*
X149470595Y-96533696D01*
X149728514Y-96585000D01*
X149991486Y-96585000D01*
X150249405Y-96533696D01*
X150492359Y-96433061D01*
X150711013Y-96286962D01*
X150896962Y-96101013D01*
X151043061Y-95882359D01*
X151143696Y-95639405D01*
X151195000Y-95381486D01*
X151195000Y-95118514D01*
X151143696Y-94860595D01*
X151043061Y-94617641D01*
X150896962Y-94398987D01*
X150711013Y-94213038D01*
X150492359Y-94066939D01*
X150249405Y-93966304D01*
X149991486Y-93915000D01*
X149728514Y-93915000D01*
X149470595Y-93966304D01*
X149227641Y-94066939D01*
X149008987Y-94213038D01*
X148823038Y-94398987D01*
X148676939Y-94617641D01*
X148576304Y-94860595D01*
X148525000Y-95118514D01*
X143568509Y-95118514D01*
X143555683Y-94988294D01*
X143479347Y-94736646D01*
X143355382Y-94504725D01*
X143188555Y-94301445D01*
X142985275Y-94134618D01*
X142753354Y-94010653D01*
X142501706Y-93934317D01*
X142305579Y-93915000D01*
X142174421Y-93915000D01*
X141978294Y-93934317D01*
X141726646Y-94010653D01*
X141494725Y-94134618D01*
X141291445Y-94301445D01*
X141124618Y-94504725D01*
X141000653Y-94736646D01*
X140924317Y-94988294D01*
X140898541Y-95250000D01*
X119565491Y-95250000D01*
X119548937Y-95225226D01*
X119505000Y-95181289D01*
X119505000Y-92143711D01*
X119548937Y-92099774D01*
X119662205Y-91930256D01*
X119740226Y-91741898D01*
X119780000Y-91541939D01*
X119780000Y-91338061D01*
X119772164Y-91298665D01*
X127550000Y-91298665D01*
X127550000Y-91581335D01*
X127605147Y-91858574D01*
X127713320Y-92119727D01*
X127870363Y-92354759D01*
X128070241Y-92554637D01*
X128305273Y-92711680D01*
X128566426Y-92819853D01*
X128843665Y-92875000D01*
X129126335Y-92875000D01*
X129403574Y-92819853D01*
X129664727Y-92711680D01*
X129899759Y-92554637D01*
X130021694Y-92432702D01*
X133171903Y-92432702D01*
X133243486Y-92676671D01*
X133498996Y-92797571D01*
X133773184Y-92866300D01*
X134055512Y-92880217D01*
X134335130Y-92838787D01*
X134601292Y-92743603D01*
X134726514Y-92676671D01*
X134798097Y-92432702D01*
X133985000Y-91619605D01*
X133171903Y-92432702D01*
X130021694Y-92432702D01*
X130099637Y-92354759D01*
X130256680Y-92119727D01*
X130364853Y-91858574D01*
X130420000Y-91581335D01*
X130420000Y-91510512D01*
X132544783Y-91510512D01*
X132586213Y-91790130D01*
X132681397Y-92056292D01*
X132748329Y-92181514D01*
X132992298Y-92253097D01*
X133805395Y-91440000D01*
X134164605Y-91440000D01*
X134977702Y-92253097D01*
X135221671Y-92181514D01*
X135342571Y-91926004D01*
X135411300Y-91651816D01*
X135425217Y-91369488D01*
X135383787Y-91089870D01*
X135288603Y-90823708D01*
X135221671Y-90698486D01*
X134977702Y-90626903D01*
X134164605Y-91440000D01*
X133805395Y-91440000D01*
X132992298Y-90626903D01*
X132748329Y-90698486D01*
X132627429Y-90953996D01*
X132558700Y-91228184D01*
X132544783Y-91510512D01*
X130420000Y-91510512D01*
X130420000Y-91298665D01*
X130364853Y-91021426D01*
X130256680Y-90760273D01*
X130099637Y-90525241D01*
X130021694Y-90447298D01*
X133171903Y-90447298D01*
X133985000Y-91260395D01*
X134798097Y-90447298D01*
X134726514Y-90203329D01*
X134471004Y-90082429D01*
X134196816Y-90013700D01*
X133914488Y-89999783D01*
X133634870Y-90041213D01*
X133368708Y-90136397D01*
X133243486Y-90203329D01*
X133171903Y-90447298D01*
X130021694Y-90447298D01*
X129899759Y-90325363D01*
X129664727Y-90168320D01*
X129403574Y-90060147D01*
X129126335Y-90005000D01*
X128843665Y-90005000D01*
X128566426Y-90060147D01*
X128305273Y-90168320D01*
X128070241Y-90325363D01*
X127870363Y-90525241D01*
X127713320Y-90760273D01*
X127605147Y-91021426D01*
X127550000Y-91298665D01*
X119772164Y-91298665D01*
X119740226Y-91138102D01*
X119662205Y-90949744D01*
X119548937Y-90780226D01*
X119404774Y-90636063D01*
X119235256Y-90522795D01*
X119046898Y-90444774D01*
X118846939Y-90405000D01*
X118643061Y-90405000D01*
X118443102Y-90444774D01*
X118254744Y-90522795D01*
X118085226Y-90636063D01*
X117941063Y-90780226D01*
X117827795Y-90949744D01*
X117749774Y-91138102D01*
X117710000Y-91338061D01*
X94005000Y-91338061D01*
X94005000Y-89027000D01*
X119380000Y-89027000D01*
X119404776Y-89024560D01*
X119428601Y-89017333D01*
X119450557Y-89005597D01*
X119469803Y-88989803D01*
X119559606Y-88900000D01*
X140898541Y-88900000D01*
X140924317Y-89161706D01*
X141000653Y-89413354D01*
X141124618Y-89645275D01*
X141291445Y-89848555D01*
X141494725Y-90015382D01*
X141726646Y-90139347D01*
X141978294Y-90215683D01*
X142174421Y-90235000D01*
X142305579Y-90235000D01*
X142501706Y-90215683D01*
X142753354Y-90139347D01*
X142985275Y-90015382D01*
X143188555Y-89848555D01*
X143355382Y-89645275D01*
X143479347Y-89413354D01*
X143555683Y-89161706D01*
X143581459Y-88900000D01*
X143568509Y-88768514D01*
X148525000Y-88768514D01*
X148525000Y-89031486D01*
X148576304Y-89289405D01*
X148676939Y-89532359D01*
X148823038Y-89751013D01*
X149008987Y-89936962D01*
X149227641Y-90083061D01*
X149470595Y-90183696D01*
X149728514Y-90235000D01*
X149991486Y-90235000D01*
X150249405Y-90183696D01*
X150492359Y-90083061D01*
X150711013Y-89936962D01*
X150896962Y-89751013D01*
X151043061Y-89532359D01*
X151143696Y-89289405D01*
X151195000Y-89031486D01*
X151195000Y-88900000D01*
X154717815Y-88900000D01*
X154746487Y-89191111D01*
X154831401Y-89471034D01*
X154969294Y-89729014D01*
X155154866Y-89955134D01*
X155380986Y-90140706D01*
X155435791Y-90170000D01*
X155380986Y-90199294D01*
X155154866Y-90384866D01*
X154969294Y-90610986D01*
X154831401Y-90868966D01*
X154746487Y-91148889D01*
X154717815Y-91440000D01*
X154746487Y-91731111D01*
X154831401Y-92011034D01*
X154969294Y-92269014D01*
X155154866Y-92495134D01*
X155380986Y-92680706D01*
X155435791Y-92710000D01*
X155380986Y-92739294D01*
X155154866Y-92924866D01*
X154969294Y-93150986D01*
X154831401Y-93408966D01*
X154746487Y-93688889D01*
X154717815Y-93980000D01*
X154746487Y-94271111D01*
X154831401Y-94551034D01*
X154969294Y-94809014D01*
X155154866Y-95035134D01*
X155380986Y-95220706D01*
X155435791Y-95250000D01*
X155380986Y-95279294D01*
X155154866Y-95464866D01*
X154969294Y-95690986D01*
X154831401Y-95948966D01*
X154746487Y-96228889D01*
X154717815Y-96520000D01*
X154746487Y-96811111D01*
X154831401Y-97091034D01*
X154969294Y-97349014D01*
X155154866Y-97575134D01*
X155380986Y-97760706D01*
X155435791Y-97790000D01*
X155380986Y-97819294D01*
X155154866Y-98004866D01*
X154969294Y-98230986D01*
X154831401Y-98488966D01*
X154746487Y-98768889D01*
X154717815Y-99060000D01*
X154746487Y-99351111D01*
X154831401Y-99631034D01*
X154969294Y-99889014D01*
X155154866Y-100115134D01*
X155184687Y-100139607D01*
X155115820Y-100160498D01*
X155005506Y-100219463D01*
X154908815Y-100298815D01*
X154829463Y-100395506D01*
X154770498Y-100505820D01*
X154734188Y-100625518D01*
X154721928Y-100750000D01*
X154725000Y-101314250D01*
X154883750Y-101473000D01*
X156083000Y-101473000D01*
X156083000Y-101453000D01*
X156337000Y-101453000D01*
X156337000Y-101473000D01*
X157536250Y-101473000D01*
X157695000Y-101314250D01*
X157698072Y-100750000D01*
X157685812Y-100625518D01*
X157649502Y-100505820D01*
X157590537Y-100395506D01*
X157511185Y-100298815D01*
X157414494Y-100219463D01*
X157304180Y-100160498D01*
X157235313Y-100139607D01*
X157265134Y-100115134D01*
X157450706Y-99889014D01*
X157588599Y-99631034D01*
X157673513Y-99351111D01*
X157702185Y-99060000D01*
X157673513Y-98768889D01*
X157588599Y-98488966D01*
X157450706Y-98230986D01*
X157265134Y-98004866D01*
X157039014Y-97819294D01*
X156984209Y-97790000D01*
X157039014Y-97760706D01*
X157265134Y-97575134D01*
X157450706Y-97349014D01*
X157588599Y-97091034D01*
X157673513Y-96811111D01*
X157702185Y-96520000D01*
X157673513Y-96228889D01*
X157588599Y-95948966D01*
X157450706Y-95690986D01*
X157265134Y-95464866D01*
X157039014Y-95279294D01*
X156984209Y-95250000D01*
X157039014Y-95220706D01*
X157265134Y-95035134D01*
X157450706Y-94809014D01*
X157588599Y-94551034D01*
X157673513Y-94271111D01*
X157702185Y-93980000D01*
X157673513Y-93688889D01*
X157588599Y-93408966D01*
X157450706Y-93150986D01*
X157265134Y-92924866D01*
X157039014Y-92739294D01*
X156984209Y-92710000D01*
X157039014Y-92680706D01*
X157265134Y-92495134D01*
X157450706Y-92269014D01*
X157588599Y-92011034D01*
X157673513Y-91731111D01*
X157702185Y-91440000D01*
X157673513Y-91148889D01*
X157588599Y-90868966D01*
X157450706Y-90610986D01*
X157265134Y-90384866D01*
X157039014Y-90199294D01*
X156984209Y-90170000D01*
X157039014Y-90140706D01*
X157265134Y-89955134D01*
X157450706Y-89729014D01*
X157588599Y-89471034D01*
X157673513Y-89191111D01*
X157702185Y-88900000D01*
X157673513Y-88608889D01*
X157588599Y-88328966D01*
X157450706Y-88070986D01*
X157265134Y-87844866D01*
X157039014Y-87659294D01*
X156781034Y-87521401D01*
X156501111Y-87436487D01*
X156282950Y-87415000D01*
X156137050Y-87415000D01*
X155918889Y-87436487D01*
X155638966Y-87521401D01*
X155380986Y-87659294D01*
X155154866Y-87844866D01*
X154969294Y-88070986D01*
X154831401Y-88328966D01*
X154746487Y-88608889D01*
X154717815Y-88900000D01*
X151195000Y-88900000D01*
X151195000Y-88768514D01*
X151143696Y-88510595D01*
X151043061Y-88267641D01*
X150896962Y-88048987D01*
X150711013Y-87863038D01*
X150492359Y-87716939D01*
X150249405Y-87616304D01*
X149991486Y-87565000D01*
X149728514Y-87565000D01*
X149470595Y-87616304D01*
X149227641Y-87716939D01*
X149008987Y-87863038D01*
X148823038Y-88048987D01*
X148676939Y-88267641D01*
X148576304Y-88510595D01*
X148525000Y-88768514D01*
X143568509Y-88768514D01*
X143555683Y-88638294D01*
X143479347Y-88386646D01*
X143355382Y-88154725D01*
X143188555Y-87951445D01*
X142985275Y-87784618D01*
X142753354Y-87660653D01*
X142501706Y-87584317D01*
X142305579Y-87565000D01*
X142174421Y-87565000D01*
X141978294Y-87584317D01*
X141726646Y-87660653D01*
X141494725Y-87784618D01*
X141291445Y-87951445D01*
X141124618Y-88154725D01*
X141000653Y-88386646D01*
X140924317Y-88638294D01*
X140898541Y-88900000D01*
X119559606Y-88900000D01*
X124549803Y-83909803D01*
X124565597Y-83890557D01*
X124577333Y-83868601D01*
X124584560Y-83844776D01*
X124587000Y-83820000D01*
X124587000Y-81940000D01*
X159360000Y-81940000D01*
X159360001Y-150470000D01*
X159360001Y-150470000D01*
G37*
X159360001Y-150470000D02*
X94005000Y-150470000D01*
X94005000Y-147820413D01*
X134934192Y-147820413D01*
X135029956Y-148084814D01*
X135319571Y-148225704D01*
X135631108Y-148307384D01*
X135952595Y-148326718D01*
X136271675Y-148282961D01*
X136576088Y-148177795D01*
X136750044Y-148084814D01*
X136845808Y-147820413D01*
X135890000Y-146864605D01*
X134934192Y-147820413D01*
X94005000Y-147820413D01*
X94005000Y-146747595D01*
X134248282Y-146747595D01*
X134292039Y-147066675D01*
X134397205Y-147371088D01*
X134490186Y-147545044D01*
X134754587Y-147640808D01*
X135710395Y-146685000D01*
X136069605Y-146685000D01*
X137025413Y-147640808D01*
X137289814Y-147545044D01*
X137430704Y-147255429D01*
X137512384Y-146943892D01*
X137531718Y-146622405D01*
X137518219Y-146523967D01*
X146955000Y-146523967D01*
X146955000Y-146846033D01*
X147017832Y-147161912D01*
X147141082Y-147459463D01*
X147320013Y-147727252D01*
X147547748Y-147954987D01*
X147815537Y-148133918D01*
X148113088Y-148257168D01*
X148428967Y-148320000D01*
X148751033Y-148320000D01*
X149066912Y-148257168D01*
X149364463Y-148133918D01*
X149632252Y-147954987D01*
X149859987Y-147727252D01*
X150038918Y-147459463D01*
X150162168Y-147161912D01*
X150225000Y-146846033D01*
X150225000Y-146523967D01*
X150162168Y-146208088D01*
X150038918Y-145910537D01*
X149859987Y-145642748D01*
X149632252Y-145415013D01*
X149364463Y-145236082D01*
X149066912Y-145112832D01*
X148751033Y-145050000D01*
X148428967Y-145050000D01*
X148113088Y-145112832D01*
X147815537Y-145236082D01*
X147547748Y-145415013D01*
X147320013Y-145642748D01*
X147141082Y-145910537D01*
X147017832Y-146208088D01*
X146955000Y-146523967D01*
X137518219Y-146523967D01*
X137487961Y-146303325D01*
X137382795Y-145998912D01*
X137289814Y-145824956D01*
X137025413Y-145729192D01*
X136069605Y-146685000D01*
X135710395Y-146685000D01*
X134754587Y-145729192D01*
X134490186Y-145824956D01*
X134349296Y-146114571D01*
X134267616Y-146426108D01*
X134248282Y-146747595D01*
X94005000Y-146747595D01*
X94005000Y-145549587D01*
X134934192Y-145549587D01*
X135890000Y-146505395D01*
X136845808Y-145549587D01*
X136750044Y-145285186D01*
X136460429Y-145144296D01*
X136148892Y-145062616D01*
X135827405Y-145043282D01*
X135508325Y-145087039D01*
X135203912Y-145192205D01*
X135029956Y-145285186D01*
X134934192Y-145549587D01*
X94005000Y-145549587D01*
X94005000Y-142967051D01*
X98140000Y-142967051D01*
X98140000Y-143812950D01*
X98161487Y-144031111D01*
X98246401Y-144311034D01*
X98384294Y-144569014D01*
X98569866Y-144795134D01*
X98795987Y-144980706D01*
X99053967Y-145118599D01*
X99333890Y-145203513D01*
X99625000Y-145232185D01*
X99916111Y-145203513D01*
X100196034Y-145118599D01*
X100454014Y-144980706D01*
X100680134Y-144795134D01*
X100865706Y-144569014D01*
X101003599Y-144311034D01*
X101088513Y-144031110D01*
X101110000Y-143812949D01*
X101110000Y-142967050D01*
X101088513Y-142748889D01*
X101040315Y-142590000D01*
X113316928Y-142590000D01*
X113329188Y-142714482D01*
X113365498Y-142834180D01*
X113424463Y-142944494D01*
X113503815Y-143041185D01*
X113600506Y-143120537D01*
X113710820Y-143179502D01*
X113830518Y-143215812D01*
X113955000Y-143228072D01*
X115919250Y-143225000D01*
X116078000Y-143066250D01*
X116078000Y-141467000D01*
X116332000Y-141467000D01*
X116332000Y-143066250D01*
X116490750Y-143225000D01*
X118455000Y-143228072D01*
X118579482Y-143215812D01*
X118699180Y-143179502D01*
X118809494Y-143120537D01*
X118906185Y-143041185D01*
X118985537Y-142944494D01*
X119044502Y-142834180D01*
X119080812Y-142714482D01*
X119093072Y-142590000D01*
X119090000Y-141625750D01*
X118931250Y-141467000D01*
X116332000Y-141467000D01*
X116078000Y-141467000D01*
X113478750Y-141467000D01*
X113320000Y-141625750D01*
X113316928Y-142590000D01*
X101040315Y-142590000D01*
X101003599Y-142468966D01*
X100865706Y-142210986D01*
X100680134Y-141984866D01*
X100454013Y-141799294D01*
X100196033Y-141661401D01*
X99916110Y-141576487D01*
X99625000Y-141547815D01*
X99333889Y-141576487D01*
X99053966Y-141661401D01*
X98795986Y-141799294D01*
X98569866Y-141984866D01*
X98384294Y-142210987D01*
X98246401Y-142468967D01*
X98161487Y-142748890D01*
X98140000Y-142967051D01*
X94005000Y-142967051D01*
X94005000Y-139733891D01*
X102440000Y-139733891D01*
X102440000Y-140046109D01*
X102500911Y-140352327D01*
X102620391Y-140640779D01*
X102793850Y-140900379D01*
X103014621Y-141121150D01*
X103274221Y-141294609D01*
X103562673Y-141414089D01*
X103868891Y-141475000D01*
X104181109Y-141475000D01*
X104487327Y-141414089D01*
X104775779Y-141294609D01*
X105035379Y-141121150D01*
X105256150Y-140900379D01*
X105429609Y-140640779D01*
X105549089Y-140352327D01*
X105601269Y-140090000D01*
X113316928Y-140090000D01*
X113320000Y-141054250D01*
X113478750Y-141213000D01*
X116078000Y-141213000D01*
X116078000Y-139613750D01*
X116332000Y-139613750D01*
X116332000Y-141213000D01*
X118931250Y-141213000D01*
X119090000Y-141054250D01*
X119093072Y-140090000D01*
X119080812Y-139965518D01*
X119044502Y-139845820D01*
X118985537Y-139735506D01*
X118906185Y-139638815D01*
X118809494Y-139559463D01*
X118699180Y-139500498D01*
X118579482Y-139464188D01*
X118455000Y-139451928D01*
X116490750Y-139455000D01*
X116332000Y-139613750D01*
X116078000Y-139613750D01*
X115919250Y-139455000D01*
X113955000Y-139451928D01*
X113830518Y-139464188D01*
X113710820Y-139500498D01*
X113600506Y-139559463D01*
X113503815Y-139638815D01*
X113424463Y-139735506D01*
X113365498Y-139845820D01*
X113329188Y-139965518D01*
X113316928Y-140090000D01*
X105601269Y-140090000D01*
X105610000Y-140046109D01*
X105610000Y-139733891D01*
X105549089Y-139427673D01*
X105429609Y-139139221D01*
X105256150Y-138879621D01*
X105035379Y-138658850D01*
X104775779Y-138485391D01*
X104487327Y-138365911D01*
X104181109Y-138305000D01*
X103868891Y-138305000D01*
X103562673Y-138365911D01*
X103274221Y-138485391D01*
X103014621Y-138658850D01*
X102793850Y-138879621D01*
X102620391Y-139139221D01*
X102500911Y-139427673D01*
X102440000Y-139733891D01*
X94005000Y-139733891D01*
X94005000Y-135733891D01*
X102440000Y-135733891D01*
X102440000Y-136046109D01*
X102500911Y-136352327D01*
X102620391Y-136640779D01*
X102793850Y-136900379D01*
X103014621Y-137121150D01*
X103274221Y-137294609D01*
X103562673Y-137414089D01*
X103868891Y-137475000D01*
X104181109Y-137475000D01*
X104487327Y-137414089D01*
X104775779Y-137294609D01*
X105035379Y-137121150D01*
X105256150Y-136900379D01*
X105429609Y-136640779D01*
X105549089Y-136352327D01*
X105610000Y-136046109D01*
X105610000Y-135890000D01*
X113310880Y-135890000D01*
X113347275Y-136259524D01*
X113455061Y-136614848D01*
X113630097Y-136942317D01*
X113865655Y-137229345D01*
X114152683Y-137464903D01*
X114480152Y-137639939D01*
X114835476Y-137747725D01*
X115112403Y-137775000D01*
X117297597Y-137775000D01*
X117574524Y-137747725D01*
X117929848Y-137639939D01*
X118257317Y-137464903D01*
X118544345Y-137229345D01*
X118779903Y-136942317D01*
X118954939Y-136614848D01*
X119062725Y-136259524D01*
X119099120Y-135890000D01*
X119085200Y-135748665D01*
X124295000Y-135748665D01*
X124295000Y-136031335D01*
X124350147Y-136308574D01*
X124458320Y-136569727D01*
X124615363Y-136804759D01*
X124815241Y-137004637D01*
X125050273Y-137161680D01*
X125311426Y-137269853D01*
X125588665Y-137325000D01*
X125871335Y-137325000D01*
X126148574Y-137269853D01*
X126409727Y-137161680D01*
X126644759Y-137004637D01*
X126766694Y-136882702D01*
X129916903Y-136882702D01*
X129988486Y-137126671D01*
X130243996Y-137247571D01*
X130518184Y-137316300D01*
X130800512Y-137330217D01*
X131080130Y-137288787D01*
X131346292Y-137193603D01*
X131471514Y-137126671D01*
X131543097Y-136882702D01*
X130730000Y-136069605D01*
X129916903Y-136882702D01*
X126766694Y-136882702D01*
X126844637Y-136804759D01*
X127001680Y-136569727D01*
X127109853Y-136308574D01*
X127165000Y-136031335D01*
X127165000Y-135960512D01*
X129289783Y-135960512D01*
X129331213Y-136240130D01*
X129426397Y-136506292D01*
X129493329Y-136631514D01*
X129737298Y-136703097D01*
X130550395Y-135890000D01*
X130909605Y-135890000D01*
X131722702Y-136703097D01*
X131767339Y-136690000D01*
X138801928Y-136690000D01*
X138814188Y-136814482D01*
X138850498Y-136934180D01*
X138909463Y-137044494D01*
X138988815Y-137141185D01*
X139085506Y-137220537D01*
X139195820Y-137279502D01*
X139315518Y-137315812D01*
X139440000Y-137328072D01*
X139954250Y-137325000D01*
X140113000Y-137166250D01*
X140113000Y-136017000D01*
X138963750Y-136017000D01*
X138805000Y-136175750D01*
X138801928Y-136690000D01*
X131767339Y-136690000D01*
X131966671Y-136631514D01*
X132087571Y-136376004D01*
X132156300Y-136101816D01*
X132170217Y-135819488D01*
X132128787Y-135539870D01*
X132033603Y-135273708D01*
X131966671Y-135148486D01*
X131767340Y-135090000D01*
X138801928Y-135090000D01*
X138805000Y-135604250D01*
X138963750Y-135763000D01*
X140113000Y-135763000D01*
X140113000Y-134613750D01*
X140367000Y-134613750D01*
X140367000Y-135763000D01*
X140387000Y-135763000D01*
X140387000Y-136017000D01*
X140367000Y-136017000D01*
X140367000Y-137166250D01*
X140525750Y-137325000D01*
X141040000Y-137328072D01*
X141164482Y-137315812D01*
X141284180Y-137279502D01*
X141394494Y-137220537D01*
X141491185Y-137141185D01*
X141504790Y-137124607D01*
X141560273Y-137161680D01*
X141821426Y-137269853D01*
X142098665Y-137325000D01*
X142381335Y-137325000D01*
X142658574Y-137269853D01*
X142919727Y-137161680D01*
X143154759Y-137004637D01*
X143354637Y-136804759D01*
X143511680Y-136569727D01*
X143619853Y-136308574D01*
X143675000Y-136031335D01*
X143675000Y-135748665D01*
X143619853Y-135471426D01*
X143511680Y-135210273D01*
X143354637Y-134975241D01*
X143154759Y-134775363D01*
X142919727Y-134618320D01*
X142658574Y-134510147D01*
X142381335Y-134455000D01*
X142098665Y-134455000D01*
X141821426Y-134510147D01*
X141560273Y-134618320D01*
X141504790Y-134655393D01*
X141491185Y-134638815D01*
X141394494Y-134559463D01*
X141284180Y-134500498D01*
X141164482Y-134464188D01*
X141040000Y-134451928D01*
X140525750Y-134455000D01*
X140367000Y-134613750D01*
X140113000Y-134613750D01*
X139954250Y-134455000D01*
X139440000Y-134451928D01*
X139315518Y-134464188D01*
X139195820Y-134500498D01*
X139085506Y-134559463D01*
X138988815Y-134638815D01*
X138909463Y-134735506D01*
X138850498Y-134845820D01*
X138814188Y-134965518D01*
X138801928Y-135090000D01*
X131767340Y-135090000D01*
X131722702Y-135076903D01*
X130909605Y-135890000D01*
X130550395Y-135890000D01*
X129737298Y-135076903D01*
X129493329Y-135148486D01*
X129372429Y-135403996D01*
X129303700Y-135678184D01*
X129289783Y-135960512D01*
X127165000Y-135960512D01*
X127165000Y-135748665D01*
X127109853Y-135471426D01*
X127001680Y-135210273D01*
X126844637Y-134975241D01*
X126766694Y-134897298D01*
X129916903Y-134897298D01*
X130730000Y-135710395D01*
X131543097Y-134897298D01*
X131471514Y-134653329D01*
X131216004Y-134532429D01*
X130941816Y-134463700D01*
X130659488Y-134449783D01*
X130379870Y-134491213D01*
X130113708Y-134586397D01*
X129988486Y-134653329D01*
X129916903Y-134897298D01*
X126766694Y-134897298D01*
X126644759Y-134775363D01*
X126409727Y-134618320D01*
X126148574Y-134510147D01*
X125871335Y-134455000D01*
X125588665Y-134455000D01*
X125311426Y-134510147D01*
X125050273Y-134618320D01*
X124815241Y-134775363D01*
X124615363Y-134975241D01*
X124458320Y-135210273D01*
X124350147Y-135471426D01*
X124295000Y-135748665D01*
X119085200Y-135748665D01*
X119062725Y-135520476D01*
X118954939Y-135165152D01*
X118779903Y-134837683D01*
X118544345Y-134550655D01*
X118257317Y-134315097D01*
X117929848Y-134140061D01*
X117574524Y-134032275D01*
X117297597Y-134005000D01*
X115112403Y-134005000D01*
X114835476Y-134032275D01*
X114480152Y-134140061D01*
X114152683Y-134315097D01*
X113865655Y-134550655D01*
X113630097Y-134837683D01*
X113455061Y-135165152D01*
X113347275Y-135520476D01*
X113310880Y-135890000D01*
X105610000Y-135890000D01*
X105610000Y-135733891D01*
X105549089Y-135427673D01*
X105429609Y-135139221D01*
X105256150Y-134879621D01*
X105035379Y-134658850D01*
X104775779Y-134485391D01*
X104487327Y-134365911D01*
X104181109Y-134305000D01*
X103868891Y-134305000D01*
X103562673Y-134365911D01*
X103274221Y-134485391D01*
X103014621Y-134658850D01*
X102793850Y-134879621D01*
X102620391Y-135139221D01*
X102500911Y-135427673D01*
X102440000Y-135733891D01*
X94005000Y-135733891D01*
X94005000Y-131733891D01*
X102440000Y-131733891D01*
X102440000Y-132046109D01*
X102500911Y-132352327D01*
X102620391Y-132640779D01*
X102793850Y-132900379D01*
X103014621Y-133121150D01*
X103274221Y-133294609D01*
X103562673Y-133414089D01*
X103868891Y-133475000D01*
X104181109Y-133475000D01*
X104487327Y-133414089D01*
X104775779Y-133294609D01*
X105035379Y-133121150D01*
X105256150Y-132900379D01*
X105429609Y-132640779D01*
X105549089Y-132352327D01*
X105610000Y-132046109D01*
X105610000Y-131733891D01*
X105549089Y-131427673D01*
X105429609Y-131139221D01*
X105256150Y-130879621D01*
X105035379Y-130658850D01*
X104775779Y-130485391D01*
X104666195Y-130440000D01*
X113310880Y-130440000D01*
X113347275Y-130809524D01*
X113455061Y-131164848D01*
X113630097Y-131492317D01*
X113865655Y-131779345D01*
X114152683Y-132014903D01*
X114480152Y-132189939D01*
X114835476Y-132297725D01*
X115112403Y-132325000D01*
X117297597Y-132325000D01*
X117574524Y-132297725D01*
X117929848Y-132189939D01*
X118257317Y-132014903D01*
X118544345Y-131779345D01*
X118779903Y-131492317D01*
X118954939Y-131164848D01*
X119062725Y-130809524D01*
X119076598Y-130668665D01*
X124295000Y-130668665D01*
X124295000Y-130951335D01*
X124350147Y-131228574D01*
X124458320Y-131489727D01*
X124615363Y-131724759D01*
X124815241Y-131924637D01*
X125050273Y-132081680D01*
X125311426Y-132189853D01*
X125588665Y-132245000D01*
X125871335Y-132245000D01*
X126148574Y-132189853D01*
X126409727Y-132081680D01*
X126644759Y-131924637D01*
X126766694Y-131802702D01*
X129916903Y-131802702D01*
X129988486Y-132046671D01*
X130243996Y-132167571D01*
X130518184Y-132236300D01*
X130800512Y-132250217D01*
X131080130Y-132208787D01*
X131346292Y-132113603D01*
X131471514Y-132046671D01*
X131543097Y-131802702D01*
X130730000Y-130989605D01*
X129916903Y-131802702D01*
X126766694Y-131802702D01*
X126844637Y-131724759D01*
X127001680Y-131489727D01*
X127109853Y-131228574D01*
X127165000Y-130951335D01*
X127165000Y-130880512D01*
X129289783Y-130880512D01*
X129331213Y-131160130D01*
X129426397Y-131426292D01*
X129493329Y-131551514D01*
X129737298Y-131623097D01*
X130550395Y-130810000D01*
X130909605Y-130810000D01*
X131722702Y-131623097D01*
X131966671Y-131551514D01*
X132087571Y-131296004D01*
X132156300Y-131021816D01*
X132170217Y-130739488D01*
X132128787Y-130459870D01*
X132033603Y-130193708D01*
X131966671Y-130068486D01*
X131722702Y-129996903D01*
X130909605Y-130810000D01*
X130550395Y-130810000D01*
X129737298Y-129996903D01*
X129493329Y-130068486D01*
X129372429Y-130323996D01*
X129303700Y-130598184D01*
X129289783Y-130880512D01*
X127165000Y-130880512D01*
X127165000Y-130668665D01*
X127109853Y-130391426D01*
X127001680Y-130130273D01*
X126844637Y-129895241D01*
X126766694Y-129817298D01*
X129916903Y-129817298D01*
X130730000Y-130630395D01*
X131543097Y-129817298D01*
X131471514Y-129573329D01*
X131216004Y-129452429D01*
X130941816Y-129383700D01*
X130659488Y-129369783D01*
X130379870Y-129411213D01*
X130113708Y-129506397D01*
X129988486Y-129573329D01*
X129916903Y-129817298D01*
X126766694Y-129817298D01*
X126644759Y-129695363D01*
X126409727Y-129538320D01*
X126148574Y-129430147D01*
X125871335Y-129375000D01*
X125588665Y-129375000D01*
X125311426Y-129430147D01*
X125050273Y-129538320D01*
X124815241Y-129695363D01*
X124615363Y-129895241D01*
X124458320Y-130130273D01*
X124350147Y-130391426D01*
X124295000Y-130668665D01*
X119076598Y-130668665D01*
X119099120Y-130440000D01*
X119062725Y-130070476D01*
X118954939Y-129715152D01*
X118779903Y-129387683D01*
X118544345Y-129100655D01*
X118257317Y-128865097D01*
X117929848Y-128690061D01*
X117574524Y-128582275D01*
X117297597Y-128555000D01*
X115112403Y-128555000D01*
X114835476Y-128582275D01*
X114480152Y-128690061D01*
X114152683Y-128865097D01*
X113865655Y-129100655D01*
X113630097Y-129387683D01*
X113455061Y-129715152D01*
X113347275Y-130070476D01*
X113310880Y-130440000D01*
X104666195Y-130440000D01*
X104487327Y-130365911D01*
X104181109Y-130305000D01*
X103868891Y-130305000D01*
X103562673Y-130365911D01*
X103274221Y-130485391D01*
X103014621Y-130658850D01*
X102793850Y-130879621D01*
X102620391Y-131139221D01*
X102500911Y-131427673D01*
X102440000Y-131733891D01*
X94005000Y-131733891D01*
X94005000Y-127967051D01*
X104440000Y-127967051D01*
X104440000Y-128812950D01*
X104461487Y-129031111D01*
X104546401Y-129311034D01*
X104684294Y-129569014D01*
X104869866Y-129795134D01*
X105095987Y-129980706D01*
X105353967Y-130118599D01*
X105633890Y-130203513D01*
X105925000Y-130232185D01*
X106216111Y-130203513D01*
X106496034Y-130118599D01*
X106754014Y-129980706D01*
X106980134Y-129795134D01*
X107165706Y-129569014D01*
X107303599Y-129311034D01*
X107388513Y-129031110D01*
X107410000Y-128812949D01*
X107410000Y-127967050D01*
X107388513Y-127748889D01*
X107303599Y-127468966D01*
X107165706Y-127210986D01*
X106992555Y-127000000D01*
X140898541Y-127000000D01*
X140924317Y-127261706D01*
X141000653Y-127513354D01*
X141124618Y-127745275D01*
X141291445Y-127948555D01*
X141494725Y-128115382D01*
X141726646Y-128239347D01*
X141978294Y-128315683D01*
X142174421Y-128335000D01*
X142305579Y-128335000D01*
X142501706Y-128315683D01*
X142753354Y-128239347D01*
X142985275Y-128115382D01*
X143188555Y-127948555D01*
X143355382Y-127745275D01*
X143479347Y-127513354D01*
X143555683Y-127261706D01*
X143581459Y-127000000D01*
X143568509Y-126868514D01*
X148525000Y-126868514D01*
X148525000Y-127131486D01*
X148576304Y-127389405D01*
X148676939Y-127632359D01*
X148823038Y-127851013D01*
X149008987Y-128036962D01*
X149227641Y-128183061D01*
X149470595Y-128283696D01*
X149728514Y-128335000D01*
X149991486Y-128335000D01*
X150249405Y-128283696D01*
X150492359Y-128183061D01*
X150711013Y-128036962D01*
X150896962Y-127851013D01*
X151043061Y-127632359D01*
X151143696Y-127389405D01*
X151195000Y-127131486D01*
X151195000Y-126868514D01*
X151143696Y-126610595D01*
X151043061Y-126367641D01*
X150896962Y-126148987D01*
X150711013Y-125963038D01*
X150492359Y-125816939D01*
X150249405Y-125716304D01*
X149991486Y-125665000D01*
X149728514Y-125665000D01*
X149470595Y-125716304D01*
X149227641Y-125816939D01*
X149008987Y-125963038D01*
X148823038Y-126148987D01*
X148676939Y-126367641D01*
X148576304Y-126610595D01*
X148525000Y-126868514D01*
X143568509Y-126868514D01*
X143555683Y-126738294D01*
X143479347Y-126486646D01*
X143355382Y-126254725D01*
X143188555Y-126051445D01*
X142985275Y-125884618D01*
X142753354Y-125760653D01*
X142501706Y-125684317D01*
X142305579Y-125665000D01*
X142174421Y-125665000D01*
X141978294Y-125684317D01*
X141726646Y-125760653D01*
X141494725Y-125884618D01*
X141291445Y-126051445D01*
X141124618Y-126254725D01*
X141000653Y-126486646D01*
X140924317Y-126738294D01*
X140898541Y-127000000D01*
X106992555Y-127000000D01*
X106980134Y-126984866D01*
X106754013Y-126799294D01*
X106496033Y-126661401D01*
X106216110Y-126576487D01*
X105925000Y-126547815D01*
X105633889Y-126576487D01*
X105353966Y-126661401D01*
X105095986Y-126799294D01*
X104869866Y-126984866D01*
X104684294Y-127210987D01*
X104546401Y-127468967D01*
X104461487Y-127748890D01*
X104440000Y-127967051D01*
X94005000Y-127967051D01*
X94005000Y-120543967D01*
X110610000Y-120543967D01*
X110610000Y-120866033D01*
X110672832Y-121181912D01*
X110796082Y-121479463D01*
X110975013Y-121747252D01*
X111202748Y-121974987D01*
X111470537Y-122153918D01*
X111768088Y-122277168D01*
X112083967Y-122340000D01*
X112406033Y-122340000D01*
X112721912Y-122277168D01*
X113019463Y-122153918D01*
X113287252Y-121974987D01*
X113514987Y-121747252D01*
X113693918Y-121479463D01*
X113817168Y-121181912D01*
X113880000Y-120866033D01*
X113880000Y-120543967D01*
X117110000Y-120543967D01*
X117110000Y-120866033D01*
X117172832Y-121181912D01*
X117296082Y-121479463D01*
X117475013Y-121747252D01*
X117702748Y-121974987D01*
X117970537Y-122153918D01*
X118268088Y-122277168D01*
X118583967Y-122340000D01*
X118906033Y-122340000D01*
X119221912Y-122277168D01*
X119519463Y-122153918D01*
X119787252Y-121974987D01*
X120014987Y-121747252D01*
X120193918Y-121479463D01*
X120317168Y-121181912D01*
X120380000Y-120866033D01*
X120380000Y-120650000D01*
X130054388Y-120650000D01*
X130076785Y-120877400D01*
X130143115Y-121096060D01*
X130244105Y-121285000D01*
X130143115Y-121473940D01*
X130076785Y-121692600D01*
X130054388Y-121920000D01*
X130076785Y-122147400D01*
X130143115Y-122366060D01*
X130250829Y-122567579D01*
X130395788Y-122744212D01*
X130572421Y-122889171D01*
X130773940Y-122996885D01*
X130992600Y-123063215D01*
X131163021Y-123080000D01*
X131726979Y-123080000D01*
X131897400Y-123063215D01*
X132116060Y-122996885D01*
X132317579Y-122889171D01*
X132494212Y-122744212D01*
X132639171Y-122567579D01*
X132746885Y-122366060D01*
X132813215Y-122147400D01*
X132835612Y-121920000D01*
X132813215Y-121692600D01*
X132746885Y-121473940D01*
X132645895Y-121285000D01*
X132746885Y-121096060D01*
X132813215Y-120877400D01*
X132835612Y-120650000D01*
X132822662Y-120518514D01*
X140905000Y-120518514D01*
X140905000Y-120781486D01*
X140956304Y-121039405D01*
X141056939Y-121282359D01*
X141203038Y-121501013D01*
X141388987Y-121686962D01*
X141607641Y-121833061D01*
X141850595Y-121933696D01*
X142108514Y-121985000D01*
X142371486Y-121985000D01*
X142629405Y-121933696D01*
X142872359Y-121833061D01*
X143091013Y-121686962D01*
X143276962Y-121501013D01*
X143423061Y-121282359D01*
X143523696Y-121039405D01*
X143575000Y-120781486D01*
X143575000Y-120650000D01*
X148518541Y-120650000D01*
X148544317Y-120911706D01*
X148620653Y-121163354D01*
X148744618Y-121395275D01*
X148911445Y-121598555D01*
X149114725Y-121765382D01*
X149346646Y-121889347D01*
X149598294Y-121965683D01*
X149794421Y-121985000D01*
X149925579Y-121985000D01*
X150121706Y-121965683D01*
X150373354Y-121889347D01*
X150605275Y-121765382D01*
X150808555Y-121598555D01*
X150975382Y-121395275D01*
X151099347Y-121163354D01*
X151175683Y-120911706D01*
X151201459Y-120650000D01*
X151175683Y-120388294D01*
X151099347Y-120136646D01*
X150975382Y-119904725D01*
X150808555Y-119701445D01*
X150605275Y-119534618D01*
X150373354Y-119410653D01*
X150121706Y-119334317D01*
X149925579Y-119315000D01*
X149794421Y-119315000D01*
X149598294Y-119334317D01*
X149346646Y-119410653D01*
X149114725Y-119534618D01*
X148911445Y-119701445D01*
X148744618Y-119904725D01*
X148620653Y-120136646D01*
X148544317Y-120388294D01*
X148518541Y-120650000D01*
X143575000Y-120650000D01*
X143575000Y-120518514D01*
X143523696Y-120260595D01*
X143423061Y-120017641D01*
X143276962Y-119798987D01*
X143091013Y-119613038D01*
X142872359Y-119466939D01*
X142629405Y-119366304D01*
X142371486Y-119315000D01*
X142108514Y-119315000D01*
X141850595Y-119366304D01*
X141607641Y-119466939D01*
X141388987Y-119613038D01*
X141203038Y-119798987D01*
X141056939Y-120017641D01*
X140956304Y-120260595D01*
X140905000Y-120518514D01*
X132822662Y-120518514D01*
X132813215Y-120422600D01*
X132749907Y-120213902D01*
X132784502Y-120149180D01*
X132820812Y-120029482D01*
X132833072Y-119905000D01*
X132833072Y-118855000D01*
X132820812Y-118730518D01*
X132784502Y-118610820D01*
X132725537Y-118500506D01*
X132646185Y-118403815D01*
X132549494Y-118324463D01*
X132439180Y-118265498D01*
X132319482Y-118229188D01*
X132195000Y-118216928D01*
X130695000Y-118216928D01*
X130570518Y-118229188D01*
X130450820Y-118265498D01*
X130340506Y-118324463D01*
X130243815Y-118403815D01*
X130164463Y-118500506D01*
X130105498Y-118610820D01*
X130069188Y-118730518D01*
X130056928Y-118855000D01*
X130056928Y-119905000D01*
X130069188Y-120029482D01*
X130105498Y-120149180D01*
X130140093Y-120213902D01*
X130076785Y-120422600D01*
X130054388Y-120650000D01*
X120380000Y-120650000D01*
X120380000Y-120543967D01*
X120317168Y-120228088D01*
X120193918Y-119930537D01*
X120014987Y-119662748D01*
X119787252Y-119435013D01*
X119519463Y-119256082D01*
X119221912Y-119132832D01*
X118906033Y-119070000D01*
X118583967Y-119070000D01*
X118268088Y-119132832D01*
X117970537Y-119256082D01*
X117702748Y-119435013D01*
X117475013Y-119662748D01*
X117296082Y-119930537D01*
X117172832Y-120228088D01*
X117110000Y-120543967D01*
X113880000Y-120543967D01*
X113817168Y-120228088D01*
X113693918Y-119930537D01*
X113514987Y-119662748D01*
X113287252Y-119435013D01*
X113019463Y-119256082D01*
X112721912Y-119132832D01*
X112406033Y-119070000D01*
X112083967Y-119070000D01*
X111768088Y-119132832D01*
X111470537Y-119256082D01*
X111202748Y-119435013D01*
X110975013Y-119662748D01*
X110796082Y-119930537D01*
X110672832Y-120228088D01*
X110610000Y-120543967D01*
X94005000Y-120543967D01*
X94005000Y-118203214D01*
X145454847Y-118203214D01*
X145454847Y-118407092D01*
X145494621Y-118607051D01*
X145572642Y-118795409D01*
X145685910Y-118964927D01*
X145830073Y-119109090D01*
X145999591Y-119222358D01*
X146187949Y-119300379D01*
X146387908Y-119340153D01*
X146591786Y-119340153D01*
X146791745Y-119300379D01*
X146980103Y-119222358D01*
X147149621Y-119109090D01*
X147293784Y-118964927D01*
X147407052Y-118795409D01*
X147485073Y-118607051D01*
X147524847Y-118407092D01*
X147524847Y-118344954D01*
X147554955Y-118314847D01*
X147617092Y-118314847D01*
X147817051Y-118275073D01*
X148005409Y-118197052D01*
X148174927Y-118083784D01*
X148319090Y-117939621D01*
X148432358Y-117770103D01*
X148510379Y-117581745D01*
X148550153Y-117381786D01*
X148550153Y-117177908D01*
X148510379Y-116977949D01*
X148432358Y-116789591D01*
X148319090Y-116620073D01*
X148174927Y-116475910D01*
X148005409Y-116362642D01*
X147817051Y-116284621D01*
X147617092Y-116244847D01*
X147413214Y-116244847D01*
X147213255Y-116284621D01*
X147024897Y-116362642D01*
X146855379Y-116475910D01*
X146711216Y-116620073D01*
X146597948Y-116789591D01*
X146519927Y-116977949D01*
X146480153Y-117177908D01*
X146480153Y-117240045D01*
X146450046Y-117270153D01*
X146387908Y-117270153D01*
X146187949Y-117309927D01*
X145999591Y-117387948D01*
X145830073Y-117501216D01*
X145685910Y-117645379D01*
X145572642Y-117814897D01*
X145494621Y-118003255D01*
X145454847Y-118203214D01*
X94005000Y-118203214D01*
X94005000Y-116538329D01*
X97767284Y-116538329D01*
X97799953Y-116646044D01*
X97910208Y-116883392D01*
X98064649Y-117094670D01*
X98257340Y-117271759D01*
X98480877Y-117407853D01*
X98726670Y-117497722D01*
X98933000Y-117375201D01*
X98933000Y-116332000D01*
X99187000Y-116332000D01*
X99187000Y-117375201D01*
X99393330Y-117497722D01*
X99639123Y-117407853D01*
X99862660Y-117271759D01*
X100055351Y-117094670D01*
X100209792Y-116883392D01*
X100320047Y-116646044D01*
X100352716Y-116538329D01*
X100229374Y-116332000D01*
X99187000Y-116332000D01*
X98933000Y-116332000D01*
X97890626Y-116332000D01*
X97767284Y-116538329D01*
X94005000Y-116538329D01*
X94005000Y-115871671D01*
X97767284Y-115871671D01*
X97890626Y-116078000D01*
X98933000Y-116078000D01*
X98933000Y-115034799D01*
X99187000Y-115034799D01*
X99187000Y-116078000D01*
X100229374Y-116078000D01*
X100232055Y-116073514D01*
X105345000Y-116073514D01*
X105345000Y-116336486D01*
X105396304Y-116594405D01*
X105496939Y-116837359D01*
X105643038Y-117056013D01*
X105828987Y-117241962D01*
X106047641Y-117388061D01*
X106290595Y-117488696D01*
X106548514Y-117540000D01*
X106811486Y-117540000D01*
X107069405Y-117488696D01*
X107312359Y-117388061D01*
X107531013Y-117241962D01*
X107716962Y-117056013D01*
X107863061Y-116837359D01*
X107963696Y-116594405D01*
X108015000Y-116336486D01*
X108015000Y-116073514D01*
X108009123Y-116043967D01*
X110610000Y-116043967D01*
X110610000Y-116366033D01*
X110672832Y-116681912D01*
X110796082Y-116979463D01*
X110975013Y-117247252D01*
X111202748Y-117474987D01*
X111470537Y-117653918D01*
X111768088Y-117777168D01*
X112083967Y-117840000D01*
X112406033Y-117840000D01*
X112721912Y-117777168D01*
X113019463Y-117653918D01*
X113287252Y-117474987D01*
X113514987Y-117247252D01*
X113693918Y-116979463D01*
X113817168Y-116681912D01*
X113880000Y-116366033D01*
X113880000Y-116043967D01*
X117110000Y-116043967D01*
X117110000Y-116366033D01*
X117172832Y-116681912D01*
X117296082Y-116979463D01*
X117475013Y-117247252D01*
X117702748Y-117474987D01*
X117970537Y-117653918D01*
X118268088Y-117777168D01*
X118583967Y-117840000D01*
X118906033Y-117840000D01*
X119221912Y-117777168D01*
X119519463Y-117653918D01*
X119787252Y-117474987D01*
X120014987Y-117247252D01*
X120193918Y-116979463D01*
X120317168Y-116681912D01*
X120380000Y-116366033D01*
X120380000Y-116043967D01*
X120317168Y-115728088D01*
X120193918Y-115430537D01*
X120014987Y-115162748D01*
X119787252Y-114935013D01*
X119519463Y-114756082D01*
X119221912Y-114632832D01*
X118906033Y-114570000D01*
X118583967Y-114570000D01*
X118268088Y-114632832D01*
X117970537Y-114756082D01*
X117702748Y-114935013D01*
X117475013Y-115162748D01*
X117296082Y-115430537D01*
X117172832Y-115728088D01*
X117110000Y-116043967D01*
X113880000Y-116043967D01*
X113817168Y-115728088D01*
X113693918Y-115430537D01*
X113514987Y-115162748D01*
X113287252Y-114935013D01*
X113019463Y-114756082D01*
X112721912Y-114632832D01*
X112406033Y-114570000D01*
X112083967Y-114570000D01*
X111768088Y-114632832D01*
X111470537Y-114756082D01*
X111202748Y-114935013D01*
X110975013Y-115162748D01*
X110796082Y-115430537D01*
X110672832Y-115728088D01*
X110610000Y-116043967D01*
X108009123Y-116043967D01*
X107963696Y-115815595D01*
X107863061Y-115572641D01*
X107716962Y-115353987D01*
X107531013Y-115168038D01*
X107312359Y-115021939D01*
X107069405Y-114921304D01*
X106811486Y-114870000D01*
X106548514Y-114870000D01*
X106290595Y-114921304D01*
X106047641Y-115021939D01*
X105828987Y-115168038D01*
X105643038Y-115353987D01*
X105496939Y-115572641D01*
X105396304Y-115815595D01*
X105345000Y-116073514D01*
X100232055Y-116073514D01*
X100352716Y-115871671D01*
X100320047Y-115763956D01*
X100209792Y-115526608D01*
X100055351Y-115315330D01*
X99862660Y-115138241D01*
X99639123Y-115002147D01*
X99393330Y-114912278D01*
X99187000Y-115034799D01*
X98933000Y-115034799D01*
X98726670Y-114912278D01*
X98480877Y-115002147D01*
X98257340Y-115138241D01*
X98064649Y-115315330D01*
X97910208Y-115526608D01*
X97799953Y-115763956D01*
X97767284Y-115871671D01*
X94005000Y-115871671D01*
X94005000Y-114300000D01*
X130054388Y-114300000D01*
X130076785Y-114527400D01*
X130143115Y-114746060D01*
X130244105Y-114935000D01*
X130143115Y-115123940D01*
X130076785Y-115342600D01*
X130054388Y-115570000D01*
X130076785Y-115797400D01*
X130143115Y-116016060D01*
X130250829Y-116217579D01*
X130395788Y-116394212D01*
X130572421Y-116539171D01*
X130773940Y-116646885D01*
X130992600Y-116713215D01*
X131163021Y-116730000D01*
X131726979Y-116730000D01*
X131897400Y-116713215D01*
X132116060Y-116646885D01*
X132317579Y-116539171D01*
X132494212Y-116394212D01*
X132639171Y-116217579D01*
X132746885Y-116016060D01*
X132813215Y-115797400D01*
X132835612Y-115570000D01*
X132813215Y-115342600D01*
X132746885Y-115123940D01*
X132645895Y-114935000D01*
X132746885Y-114746060D01*
X132813215Y-114527400D01*
X132835612Y-114300000D01*
X132822662Y-114168514D01*
X140905000Y-114168514D01*
X140905000Y-114431486D01*
X140956304Y-114689405D01*
X141056939Y-114932359D01*
X141203038Y-115151013D01*
X141388987Y-115336962D01*
X141607641Y-115483061D01*
X141850595Y-115583696D01*
X142108514Y-115635000D01*
X142371486Y-115635000D01*
X142629405Y-115583696D01*
X142872359Y-115483061D01*
X143091013Y-115336962D01*
X143276962Y-115151013D01*
X143423061Y-114932359D01*
X143523696Y-114689405D01*
X143575000Y-114431486D01*
X143575000Y-114300000D01*
X148518541Y-114300000D01*
X148544317Y-114561706D01*
X148620653Y-114813354D01*
X148744618Y-115045275D01*
X148911445Y-115248555D01*
X149114725Y-115415382D01*
X149346646Y-115539347D01*
X149598294Y-115615683D01*
X149794421Y-115635000D01*
X149925579Y-115635000D01*
X150121706Y-115615683D01*
X150373354Y-115539347D01*
X150605275Y-115415382D01*
X150808555Y-115248555D01*
X150975382Y-115045275D01*
X151099347Y-114813354D01*
X151175683Y-114561706D01*
X151201459Y-114300000D01*
X151175683Y-114038294D01*
X151099347Y-113786646D01*
X150975382Y-113554725D01*
X150808555Y-113351445D01*
X150605275Y-113184618D01*
X150373354Y-113060653D01*
X150121706Y-112984317D01*
X149925579Y-112965000D01*
X149794421Y-112965000D01*
X149598294Y-112984317D01*
X149346646Y-113060653D01*
X149114725Y-113184618D01*
X148911445Y-113351445D01*
X148744618Y-113554725D01*
X148620653Y-113786646D01*
X148544317Y-114038294D01*
X148518541Y-114300000D01*
X143575000Y-114300000D01*
X143575000Y-114168514D01*
X143523696Y-113910595D01*
X143423061Y-113667641D01*
X143276962Y-113448987D01*
X143091013Y-113263038D01*
X142872359Y-113116939D01*
X142629405Y-113016304D01*
X142371486Y-112965000D01*
X142108514Y-112965000D01*
X141850595Y-113016304D01*
X141607641Y-113116939D01*
X141388987Y-113263038D01*
X141203038Y-113448987D01*
X141056939Y-113667641D01*
X140956304Y-113910595D01*
X140905000Y-114168514D01*
X132822662Y-114168514D01*
X132813215Y-114072600D01*
X132749907Y-113863902D01*
X132784502Y-113799180D01*
X132820812Y-113679482D01*
X132833072Y-113555000D01*
X132833072Y-112505000D01*
X132820812Y-112380518D01*
X132784502Y-112260820D01*
X132725537Y-112150506D01*
X132646185Y-112053815D01*
X132549494Y-111974463D01*
X132439180Y-111915498D01*
X132319482Y-111879188D01*
X132195000Y-111866928D01*
X130695000Y-111866928D01*
X130570518Y-111879188D01*
X130450820Y-111915498D01*
X130340506Y-111974463D01*
X130243815Y-112053815D01*
X130164463Y-112150506D01*
X130105498Y-112260820D01*
X130069188Y-112380518D01*
X130056928Y-112505000D01*
X130056928Y-113555000D01*
X130069188Y-113679482D01*
X130105498Y-113799180D01*
X130140093Y-113863902D01*
X130076785Y-114072600D01*
X130054388Y-114300000D01*
X94005000Y-114300000D01*
X94005000Y-107818514D01*
X140905000Y-107818514D01*
X140905000Y-108081486D01*
X140956304Y-108339405D01*
X141056939Y-108582359D01*
X141203038Y-108801013D01*
X141388987Y-108986962D01*
X141607641Y-109133061D01*
X141850595Y-109233696D01*
X142108514Y-109285000D01*
X142371486Y-109285000D01*
X142629405Y-109233696D01*
X142872359Y-109133061D01*
X143091013Y-108986962D01*
X143276962Y-108801013D01*
X143423061Y-108582359D01*
X143523696Y-108339405D01*
X143575000Y-108081486D01*
X143575000Y-107950000D01*
X148518541Y-107950000D01*
X148544317Y-108211706D01*
X148620653Y-108463354D01*
X148744618Y-108695275D01*
X148911445Y-108898555D01*
X149114725Y-109065382D01*
X149346646Y-109189347D01*
X149598294Y-109265683D01*
X149794421Y-109285000D01*
X149925579Y-109285000D01*
X150121706Y-109265683D01*
X150373354Y-109189347D01*
X150605275Y-109065382D01*
X150808555Y-108898555D01*
X150975382Y-108695275D01*
X151099347Y-108463354D01*
X151175683Y-108211706D01*
X151201459Y-107950000D01*
X151175683Y-107688294D01*
X151099347Y-107436646D01*
X150975382Y-107204725D01*
X150808555Y-107001445D01*
X150605275Y-106834618D01*
X150373354Y-106710653D01*
X150121706Y-106634317D01*
X149925579Y-106615000D01*
X149794421Y-106615000D01*
X149598294Y-106634317D01*
X149346646Y-106710653D01*
X149114725Y-106834618D01*
X148911445Y-107001445D01*
X148744618Y-107204725D01*
X148620653Y-107436646D01*
X148544317Y-107688294D01*
X148518541Y-107950000D01*
X143575000Y-107950000D01*
X143575000Y-107818514D01*
X143523696Y-107560595D01*
X143423061Y-107317641D01*
X143276962Y-107098987D01*
X143091013Y-106913038D01*
X142872359Y-106766939D01*
X142629405Y-106666304D01*
X142371486Y-106615000D01*
X142108514Y-106615000D01*
X141850595Y-106666304D01*
X141607641Y-106766939D01*
X141388987Y-106913038D01*
X141203038Y-107098987D01*
X141056939Y-107317641D01*
X140956304Y-107560595D01*
X140905000Y-107818514D01*
X94005000Y-107818514D01*
X94005000Y-101468514D01*
X140905000Y-101468514D01*
X140905000Y-101731486D01*
X140956304Y-101989405D01*
X141056939Y-102232359D01*
X141203038Y-102451013D01*
X141388987Y-102636962D01*
X141607641Y-102783061D01*
X141850595Y-102883696D01*
X142108514Y-102935000D01*
X142371486Y-102935000D01*
X142629405Y-102883696D01*
X142872359Y-102783061D01*
X143091013Y-102636962D01*
X143276962Y-102451013D01*
X143423061Y-102232359D01*
X143523696Y-101989405D01*
X143575000Y-101731486D01*
X143575000Y-101600000D01*
X148518541Y-101600000D01*
X148544317Y-101861706D01*
X148620653Y-102113354D01*
X148744618Y-102345275D01*
X148911445Y-102548555D01*
X149114725Y-102715382D01*
X149346646Y-102839347D01*
X149598294Y-102915683D01*
X149794421Y-102935000D01*
X149925579Y-102935000D01*
X150121706Y-102915683D01*
X150373354Y-102839347D01*
X150605275Y-102715382D01*
X150808555Y-102548555D01*
X150889436Y-102450000D01*
X154721928Y-102450000D01*
X154734188Y-102574482D01*
X154770498Y-102694180D01*
X154829463Y-102804494D01*
X154908815Y-102901185D01*
X155005506Y-102980537D01*
X155115820Y-103039502D01*
X155235518Y-103075812D01*
X155360000Y-103088072D01*
X155924250Y-103085000D01*
X156083000Y-102926250D01*
X156083000Y-101727000D01*
X156337000Y-101727000D01*
X156337000Y-102926250D01*
X156495750Y-103085000D01*
X157060000Y-103088072D01*
X157184482Y-103075812D01*
X157304180Y-103039502D01*
X157414494Y-102980537D01*
X157511185Y-102901185D01*
X157590537Y-102804494D01*
X157649502Y-102694180D01*
X157685812Y-102574482D01*
X157698072Y-102450000D01*
X157695000Y-101885750D01*
X157536250Y-101727000D01*
X156337000Y-101727000D01*
X156083000Y-101727000D01*
X154883750Y-101727000D01*
X154725000Y-101885750D01*
X154721928Y-102450000D01*
X150889436Y-102450000D01*
X150975382Y-102345275D01*
X151099347Y-102113354D01*
X151175683Y-101861706D01*
X151201459Y-101600000D01*
X151175683Y-101338294D01*
X151099347Y-101086646D01*
X150975382Y-100854725D01*
X150808555Y-100651445D01*
X150605275Y-100484618D01*
X150373354Y-100360653D01*
X150121706Y-100284317D01*
X149925579Y-100265000D01*
X149794421Y-100265000D01*
X149598294Y-100284317D01*
X149346646Y-100360653D01*
X149114725Y-100484618D01*
X148911445Y-100651445D01*
X148744618Y-100854725D01*
X148620653Y-101086646D01*
X148544317Y-101338294D01*
X148518541Y-101600000D01*
X143575000Y-101600000D01*
X143575000Y-101468514D01*
X143523696Y-101210595D01*
X143423061Y-100967641D01*
X143276962Y-100748987D01*
X143091013Y-100563038D01*
X142872359Y-100416939D01*
X142629405Y-100316304D01*
X142371486Y-100265000D01*
X142108514Y-100265000D01*
X141850595Y-100316304D01*
X141607641Y-100416939D01*
X141388987Y-100563038D01*
X141203038Y-100748987D01*
X141056939Y-100967641D01*
X140956304Y-101210595D01*
X140905000Y-101468514D01*
X94005000Y-101468514D01*
X94005000Y-91338061D01*
X117710000Y-91338061D01*
X117710000Y-91541939D01*
X117749774Y-91741898D01*
X117827795Y-91930256D01*
X117941063Y-92099774D01*
X117985001Y-92143712D01*
X117985000Y-95181289D01*
X117941063Y-95225226D01*
X117827795Y-95394744D01*
X117749774Y-95583102D01*
X117710000Y-95783061D01*
X117710000Y-95986939D01*
X117749774Y-96186898D01*
X117827795Y-96375256D01*
X117941063Y-96544774D01*
X118085226Y-96688937D01*
X118254744Y-96802205D01*
X118443102Y-96880226D01*
X118643061Y-96920000D01*
X118846939Y-96920000D01*
X119046898Y-96880226D01*
X119235256Y-96802205D01*
X119404774Y-96688937D01*
X119548937Y-96544774D01*
X119662205Y-96375256D01*
X119740226Y-96186898D01*
X119780000Y-95986939D01*
X119780000Y-95783061D01*
X119740226Y-95583102D01*
X119662205Y-95394744D01*
X119565491Y-95250000D01*
X140898541Y-95250000D01*
X140924317Y-95511706D01*
X141000653Y-95763354D01*
X141124618Y-95995275D01*
X141291445Y-96198555D01*
X141494725Y-96365382D01*
X141726646Y-96489347D01*
X141978294Y-96565683D01*
X142174421Y-96585000D01*
X142305579Y-96585000D01*
X142501706Y-96565683D01*
X142753354Y-96489347D01*
X142985275Y-96365382D01*
X143188555Y-96198555D01*
X143355382Y-95995275D01*
X143479347Y-95763354D01*
X143555683Y-95511706D01*
X143581459Y-95250000D01*
X143568509Y-95118514D01*
X148525000Y-95118514D01*
X148525000Y-95381486D01*
X148576304Y-95639405D01*
X148676939Y-95882359D01*
X148823038Y-96101013D01*
X149008987Y-96286962D01*
X149227641Y-96433061D01*
X149470595Y-96533696D01*
X149728514Y-96585000D01*
X149991486Y-96585000D01*
X150249405Y-96533696D01*
X150492359Y-96433061D01*
X150711013Y-96286962D01*
X150896962Y-96101013D01*
X151043061Y-95882359D01*
X151143696Y-95639405D01*
X151195000Y-95381486D01*
X151195000Y-95118514D01*
X151143696Y-94860595D01*
X151043061Y-94617641D01*
X150896962Y-94398987D01*
X150711013Y-94213038D01*
X150492359Y-94066939D01*
X150249405Y-93966304D01*
X149991486Y-93915000D01*
X149728514Y-93915000D01*
X149470595Y-93966304D01*
X149227641Y-94066939D01*
X149008987Y-94213038D01*
X148823038Y-94398987D01*
X148676939Y-94617641D01*
X148576304Y-94860595D01*
X148525000Y-95118514D01*
X143568509Y-95118514D01*
X143555683Y-94988294D01*
X143479347Y-94736646D01*
X143355382Y-94504725D01*
X143188555Y-94301445D01*
X142985275Y-94134618D01*
X142753354Y-94010653D01*
X142501706Y-93934317D01*
X142305579Y-93915000D01*
X142174421Y-93915000D01*
X141978294Y-93934317D01*
X141726646Y-94010653D01*
X141494725Y-94134618D01*
X141291445Y-94301445D01*
X141124618Y-94504725D01*
X141000653Y-94736646D01*
X140924317Y-94988294D01*
X140898541Y-95250000D01*
X119565491Y-95250000D01*
X119548937Y-95225226D01*
X119505000Y-95181289D01*
X119505000Y-92143711D01*
X119548937Y-92099774D01*
X119662205Y-91930256D01*
X119740226Y-91741898D01*
X119780000Y-91541939D01*
X119780000Y-91338061D01*
X119772164Y-91298665D01*
X127550000Y-91298665D01*
X127550000Y-91581335D01*
X127605147Y-91858574D01*
X127713320Y-92119727D01*
X127870363Y-92354759D01*
X128070241Y-92554637D01*
X128305273Y-92711680D01*
X128566426Y-92819853D01*
X128843665Y-92875000D01*
X129126335Y-92875000D01*
X129403574Y-92819853D01*
X129664727Y-92711680D01*
X129899759Y-92554637D01*
X130021694Y-92432702D01*
X133171903Y-92432702D01*
X133243486Y-92676671D01*
X133498996Y-92797571D01*
X133773184Y-92866300D01*
X134055512Y-92880217D01*
X134335130Y-92838787D01*
X134601292Y-92743603D01*
X134726514Y-92676671D01*
X134798097Y-92432702D01*
X133985000Y-91619605D01*
X133171903Y-92432702D01*
X130021694Y-92432702D01*
X130099637Y-92354759D01*
X130256680Y-92119727D01*
X130364853Y-91858574D01*
X130420000Y-91581335D01*
X130420000Y-91510512D01*
X132544783Y-91510512D01*
X132586213Y-91790130D01*
X132681397Y-92056292D01*
X132748329Y-92181514D01*
X132992298Y-92253097D01*
X133805395Y-91440000D01*
X134164605Y-91440000D01*
X134977702Y-92253097D01*
X135221671Y-92181514D01*
X135342571Y-91926004D01*
X135411300Y-91651816D01*
X135425217Y-91369488D01*
X135383787Y-91089870D01*
X135288603Y-90823708D01*
X135221671Y-90698486D01*
X134977702Y-90626903D01*
X134164605Y-91440000D01*
X133805395Y-91440000D01*
X132992298Y-90626903D01*
X132748329Y-90698486D01*
X132627429Y-90953996D01*
X132558700Y-91228184D01*
X132544783Y-91510512D01*
X130420000Y-91510512D01*
X130420000Y-91298665D01*
X130364853Y-91021426D01*
X130256680Y-90760273D01*
X130099637Y-90525241D01*
X130021694Y-90447298D01*
X133171903Y-90447298D01*
X133985000Y-91260395D01*
X134798097Y-90447298D01*
X134726514Y-90203329D01*
X134471004Y-90082429D01*
X134196816Y-90013700D01*
X133914488Y-89999783D01*
X133634870Y-90041213D01*
X133368708Y-90136397D01*
X133243486Y-90203329D01*
X133171903Y-90447298D01*
X130021694Y-90447298D01*
X129899759Y-90325363D01*
X129664727Y-90168320D01*
X129403574Y-90060147D01*
X129126335Y-90005000D01*
X128843665Y-90005000D01*
X128566426Y-90060147D01*
X128305273Y-90168320D01*
X128070241Y-90325363D01*
X127870363Y-90525241D01*
X127713320Y-90760273D01*
X127605147Y-91021426D01*
X127550000Y-91298665D01*
X119772164Y-91298665D01*
X119740226Y-91138102D01*
X119662205Y-90949744D01*
X119548937Y-90780226D01*
X119404774Y-90636063D01*
X119235256Y-90522795D01*
X119046898Y-90444774D01*
X118846939Y-90405000D01*
X118643061Y-90405000D01*
X118443102Y-90444774D01*
X118254744Y-90522795D01*
X118085226Y-90636063D01*
X117941063Y-90780226D01*
X117827795Y-90949744D01*
X117749774Y-91138102D01*
X117710000Y-91338061D01*
X94005000Y-91338061D01*
X94005000Y-89027000D01*
X119380000Y-89027000D01*
X119404776Y-89024560D01*
X119428601Y-89017333D01*
X119450557Y-89005597D01*
X119469803Y-88989803D01*
X119559606Y-88900000D01*
X140898541Y-88900000D01*
X140924317Y-89161706D01*
X141000653Y-89413354D01*
X141124618Y-89645275D01*
X141291445Y-89848555D01*
X141494725Y-90015382D01*
X141726646Y-90139347D01*
X141978294Y-90215683D01*
X142174421Y-90235000D01*
X142305579Y-90235000D01*
X142501706Y-90215683D01*
X142753354Y-90139347D01*
X142985275Y-90015382D01*
X143188555Y-89848555D01*
X143355382Y-89645275D01*
X143479347Y-89413354D01*
X143555683Y-89161706D01*
X143581459Y-88900000D01*
X143568509Y-88768514D01*
X148525000Y-88768514D01*
X148525000Y-89031486D01*
X148576304Y-89289405D01*
X148676939Y-89532359D01*
X148823038Y-89751013D01*
X149008987Y-89936962D01*
X149227641Y-90083061D01*
X149470595Y-90183696D01*
X149728514Y-90235000D01*
X149991486Y-90235000D01*
X150249405Y-90183696D01*
X150492359Y-90083061D01*
X150711013Y-89936962D01*
X150896962Y-89751013D01*
X151043061Y-89532359D01*
X151143696Y-89289405D01*
X151195000Y-89031486D01*
X151195000Y-88900000D01*
X154717815Y-88900000D01*
X154746487Y-89191111D01*
X154831401Y-89471034D01*
X154969294Y-89729014D01*
X155154866Y-89955134D01*
X155380986Y-90140706D01*
X155435791Y-90170000D01*
X155380986Y-90199294D01*
X155154866Y-90384866D01*
X154969294Y-90610986D01*
X154831401Y-90868966D01*
X154746487Y-91148889D01*
X154717815Y-91440000D01*
X154746487Y-91731111D01*
X154831401Y-92011034D01*
X154969294Y-92269014D01*
X155154866Y-92495134D01*
X155380986Y-92680706D01*
X155435791Y-92710000D01*
X155380986Y-92739294D01*
X155154866Y-92924866D01*
X154969294Y-93150986D01*
X154831401Y-93408966D01*
X154746487Y-93688889D01*
X154717815Y-93980000D01*
X154746487Y-94271111D01*
X154831401Y-94551034D01*
X154969294Y-94809014D01*
X155154866Y-95035134D01*
X155380986Y-95220706D01*
X155435791Y-95250000D01*
X155380986Y-95279294D01*
X155154866Y-95464866D01*
X154969294Y-95690986D01*
X154831401Y-95948966D01*
X154746487Y-96228889D01*
X154717815Y-96520000D01*
X154746487Y-96811111D01*
X154831401Y-97091034D01*
X154969294Y-97349014D01*
X155154866Y-97575134D01*
X155380986Y-97760706D01*
X155435791Y-97790000D01*
X155380986Y-97819294D01*
X155154866Y-98004866D01*
X154969294Y-98230986D01*
X154831401Y-98488966D01*
X154746487Y-98768889D01*
X154717815Y-99060000D01*
X154746487Y-99351111D01*
X154831401Y-99631034D01*
X154969294Y-99889014D01*
X155154866Y-100115134D01*
X155184687Y-100139607D01*
X155115820Y-100160498D01*
X155005506Y-100219463D01*
X154908815Y-100298815D01*
X154829463Y-100395506D01*
X154770498Y-100505820D01*
X154734188Y-100625518D01*
X154721928Y-100750000D01*
X154725000Y-101314250D01*
X154883750Y-101473000D01*
X156083000Y-101473000D01*
X156083000Y-101453000D01*
X156337000Y-101453000D01*
X156337000Y-101473000D01*
X157536250Y-101473000D01*
X157695000Y-101314250D01*
X157698072Y-100750000D01*
X157685812Y-100625518D01*
X157649502Y-100505820D01*
X157590537Y-100395506D01*
X157511185Y-100298815D01*
X157414494Y-100219463D01*
X157304180Y-100160498D01*
X157235313Y-100139607D01*
X157265134Y-100115134D01*
X157450706Y-99889014D01*
X157588599Y-99631034D01*
X157673513Y-99351111D01*
X157702185Y-99060000D01*
X157673513Y-98768889D01*
X157588599Y-98488966D01*
X157450706Y-98230986D01*
X157265134Y-98004866D01*
X157039014Y-97819294D01*
X156984209Y-97790000D01*
X157039014Y-97760706D01*
X157265134Y-97575134D01*
X157450706Y-97349014D01*
X157588599Y-97091034D01*
X157673513Y-96811111D01*
X157702185Y-96520000D01*
X157673513Y-96228889D01*
X157588599Y-95948966D01*
X157450706Y-95690986D01*
X157265134Y-95464866D01*
X157039014Y-95279294D01*
X156984209Y-95250000D01*
X157039014Y-95220706D01*
X157265134Y-95035134D01*
X157450706Y-94809014D01*
X157588599Y-94551034D01*
X157673513Y-94271111D01*
X157702185Y-93980000D01*
X157673513Y-93688889D01*
X157588599Y-93408966D01*
X157450706Y-93150986D01*
X157265134Y-92924866D01*
X157039014Y-92739294D01*
X156984209Y-92710000D01*
X157039014Y-92680706D01*
X157265134Y-92495134D01*
X157450706Y-92269014D01*
X157588599Y-92011034D01*
X157673513Y-91731111D01*
X157702185Y-91440000D01*
X157673513Y-91148889D01*
X157588599Y-90868966D01*
X157450706Y-90610986D01*
X157265134Y-90384866D01*
X157039014Y-90199294D01*
X156984209Y-90170000D01*
X157039014Y-90140706D01*
X157265134Y-89955134D01*
X157450706Y-89729014D01*
X157588599Y-89471034D01*
X157673513Y-89191111D01*
X157702185Y-88900000D01*
X157673513Y-88608889D01*
X157588599Y-88328966D01*
X157450706Y-88070986D01*
X157265134Y-87844866D01*
X157039014Y-87659294D01*
X156781034Y-87521401D01*
X156501111Y-87436487D01*
X156282950Y-87415000D01*
X156137050Y-87415000D01*
X155918889Y-87436487D01*
X155638966Y-87521401D01*
X155380986Y-87659294D01*
X155154866Y-87844866D01*
X154969294Y-88070986D01*
X154831401Y-88328966D01*
X154746487Y-88608889D01*
X154717815Y-88900000D01*
X151195000Y-88900000D01*
X151195000Y-88768514D01*
X151143696Y-88510595D01*
X151043061Y-88267641D01*
X150896962Y-88048987D01*
X150711013Y-87863038D01*
X150492359Y-87716939D01*
X150249405Y-87616304D01*
X149991486Y-87565000D01*
X149728514Y-87565000D01*
X149470595Y-87616304D01*
X149227641Y-87716939D01*
X149008987Y-87863038D01*
X148823038Y-88048987D01*
X148676939Y-88267641D01*
X148576304Y-88510595D01*
X148525000Y-88768514D01*
X143568509Y-88768514D01*
X143555683Y-88638294D01*
X143479347Y-88386646D01*
X143355382Y-88154725D01*
X143188555Y-87951445D01*
X142985275Y-87784618D01*
X142753354Y-87660653D01*
X142501706Y-87584317D01*
X142305579Y-87565000D01*
X142174421Y-87565000D01*
X141978294Y-87584317D01*
X141726646Y-87660653D01*
X141494725Y-87784618D01*
X141291445Y-87951445D01*
X141124618Y-88154725D01*
X141000653Y-88386646D01*
X140924317Y-88638294D01*
X140898541Y-88900000D01*
X119559606Y-88900000D01*
X124549803Y-83909803D01*
X124565597Y-83890557D01*
X124577333Y-83868601D01*
X124584560Y-83844776D01*
X124587000Y-83820000D01*
X124587000Y-81940000D01*
X159360000Y-81940000D01*
X159360001Y-150470000D01*
M02*
