G04 #@! TF.GenerationSoftware,KiCad,Pcbnew,(5.1.4-0-10_14)*
G04 #@! TF.CreationDate,2019-11-18T23:58:44+01:00*
G04 #@! TF.ProjectId,liberation,6c696265-7261-4746-996f-6e2e6b696361,rev?*
G04 #@! TF.SameCoordinates,Original*
G04 #@! TF.FileFunction,Legend,Bot*
G04 #@! TF.FilePolarity,Positive*
%FSLAX46Y46*%
G04 Gerber Fmt 4.6, Leading zero omitted, Abs format (unit mm)*
G04 Created by KiCad (PCBNEW (5.1.4-0-10_14)) date 2019-11-18 23:58:44*
%MOMM*%
%LPD*%
G04 APERTURE LIST*
%ADD10C,0.150000*%
%ADD11C,0.125000*%
%ADD12C,0.120000*%
G04 APERTURE END LIST*
D10*
X117076904Y-93837142D02*
X116791190Y-93932380D01*
X116695952Y-94027619D01*
X116600714Y-94218095D01*
X116600714Y-94503809D01*
X116695952Y-94694285D01*
X116791190Y-94789523D01*
X116981666Y-94884761D01*
X117743571Y-94884761D01*
X117743571Y-92884761D01*
X117076904Y-92884761D01*
X116886428Y-92980000D01*
X116791190Y-93075238D01*
X116695952Y-93265714D01*
X116695952Y-93456190D01*
X116791190Y-93646666D01*
X116886428Y-93741904D01*
X117076904Y-93837142D01*
X117743571Y-93837142D01*
X114886428Y-94884761D02*
X114886428Y-93837142D01*
X114981666Y-93646666D01*
X115172142Y-93551428D01*
X115553095Y-93551428D01*
X115743571Y-93646666D01*
X114886428Y-94789523D02*
X115076904Y-94884761D01*
X115553095Y-94884761D01*
X115743571Y-94789523D01*
X115838809Y-94599047D01*
X115838809Y-94408571D01*
X115743571Y-94218095D01*
X115553095Y-94122857D01*
X115076904Y-94122857D01*
X114886428Y-94027619D01*
X114219761Y-93551428D02*
X113457857Y-93551428D01*
X113934047Y-92884761D02*
X113934047Y-94599047D01*
X113838809Y-94789523D01*
X113648333Y-94884761D01*
X113457857Y-94884761D01*
X113076904Y-93551428D02*
X112315000Y-93551428D01*
X112791190Y-92884761D02*
X112791190Y-94599047D01*
X112695952Y-94789523D01*
X112505476Y-94884761D01*
X112315000Y-94884761D01*
X110886428Y-94789523D02*
X111076904Y-94884761D01*
X111457857Y-94884761D01*
X111648333Y-94789523D01*
X111743571Y-94599047D01*
X111743571Y-93837142D01*
X111648333Y-93646666D01*
X111457857Y-93551428D01*
X111076904Y-93551428D01*
X110886428Y-93646666D01*
X110791190Y-93837142D01*
X110791190Y-94027619D01*
X111743571Y-94218095D01*
X109934047Y-94884761D02*
X109934047Y-93551428D01*
X109934047Y-93932380D02*
X109838809Y-93741904D01*
X109743571Y-93646666D01*
X109553095Y-93551428D01*
X109362619Y-93551428D01*
X108886428Y-93551428D02*
X108410238Y-94884761D01*
X107934047Y-93551428D02*
X108410238Y-94884761D01*
X108600714Y-95360952D01*
X108695952Y-95456190D01*
X108886428Y-95551428D01*
X105648333Y-94884761D02*
X105648333Y-92884761D01*
X105648333Y-93837142D02*
X104505476Y-93837142D01*
X104505476Y-94884761D02*
X104505476Y-92884761D01*
X103267380Y-94884761D02*
X103457857Y-94789523D01*
X103553095Y-94694285D01*
X103648333Y-94503809D01*
X103648333Y-93932380D01*
X103553095Y-93741904D01*
X103457857Y-93646666D01*
X103267380Y-93551428D01*
X102981666Y-93551428D01*
X102791190Y-93646666D01*
X102695952Y-93741904D01*
X102600714Y-93932380D01*
X102600714Y-94503809D01*
X102695952Y-94694285D01*
X102791190Y-94789523D01*
X102981666Y-94884761D01*
X103267380Y-94884761D01*
X101457857Y-94884761D02*
X101648333Y-94789523D01*
X101743571Y-94599047D01*
X101743571Y-92884761D01*
X99838809Y-94884761D02*
X99838809Y-92884761D01*
X99838809Y-94789523D02*
X100029285Y-94884761D01*
X100410238Y-94884761D01*
X100600714Y-94789523D01*
X100695952Y-94694285D01*
X100791190Y-94503809D01*
X100791190Y-93932380D01*
X100695952Y-93741904D01*
X100600714Y-93646666D01*
X100410238Y-93551428D01*
X100029285Y-93551428D01*
X99838809Y-93646666D01*
X98124523Y-94789523D02*
X98315000Y-94884761D01*
X98695952Y-94884761D01*
X98886428Y-94789523D01*
X98981666Y-94599047D01*
X98981666Y-93837142D01*
X98886428Y-93646666D01*
X98695952Y-93551428D01*
X98315000Y-93551428D01*
X98124523Y-93646666D01*
X98029285Y-93837142D01*
X98029285Y-94027619D01*
X98981666Y-94218095D01*
X97172142Y-94884761D02*
X97172142Y-93551428D01*
X97172142Y-93932380D02*
X97076904Y-93741904D01*
X96981666Y-93646666D01*
X96791190Y-93551428D01*
X96600714Y-93551428D01*
D11*
X155662380Y-138255952D02*
X156376666Y-138255952D01*
X156519523Y-138208333D01*
X156614761Y-138113095D01*
X156662380Y-137970238D01*
X156662380Y-137875000D01*
X156662380Y-139208333D02*
X156662380Y-138732142D01*
X155662380Y-138732142D01*
X156567142Y-140113095D02*
X156614761Y-140065476D01*
X156662380Y-139922619D01*
X156662380Y-139827380D01*
X156614761Y-139684523D01*
X156519523Y-139589285D01*
X156424285Y-139541666D01*
X156233809Y-139494047D01*
X156090952Y-139494047D01*
X155900476Y-139541666D01*
X155805238Y-139589285D01*
X155710000Y-139684523D01*
X155662380Y-139827380D01*
X155662380Y-139922619D01*
X155710000Y-140065476D01*
X155757619Y-140113095D01*
X155662380Y-140827380D02*
X156376666Y-140827380D01*
X156519523Y-140779761D01*
X156614761Y-140684523D01*
X156662380Y-140541666D01*
X156662380Y-140446428D01*
X156662380Y-141779761D02*
X156662380Y-141303571D01*
X155662380Y-141303571D01*
X156567142Y-142684523D02*
X156614761Y-142636904D01*
X156662380Y-142494047D01*
X156662380Y-142398809D01*
X156614761Y-142255952D01*
X156519523Y-142160714D01*
X156424285Y-142113095D01*
X156233809Y-142065476D01*
X156090952Y-142065476D01*
X155900476Y-142113095D01*
X155805238Y-142160714D01*
X155710000Y-142255952D01*
X155662380Y-142398809D01*
X155662380Y-142494047D01*
X155710000Y-142636904D01*
X155757619Y-142684523D01*
X155662380Y-143398809D02*
X156376666Y-143398809D01*
X156519523Y-143351190D01*
X156614761Y-143255952D01*
X156662380Y-143113095D01*
X156662380Y-143017857D01*
X156662380Y-144351190D02*
X156662380Y-143875000D01*
X155662380Y-143875000D01*
X156567142Y-145255952D02*
X156614761Y-145208333D01*
X156662380Y-145065476D01*
X156662380Y-144970238D01*
X156614761Y-144827380D01*
X156519523Y-144732142D01*
X156424285Y-144684523D01*
X156233809Y-144636904D01*
X156090952Y-144636904D01*
X155900476Y-144684523D01*
X155805238Y-144732142D01*
X155710000Y-144827380D01*
X155662380Y-144970238D01*
X155662380Y-145065476D01*
X155710000Y-145208333D01*
X155757619Y-145255952D01*
X155662380Y-145970238D02*
X156376666Y-145970238D01*
X156519523Y-145922619D01*
X156614761Y-145827380D01*
X156662380Y-145684523D01*
X156662380Y-145589285D01*
X156662380Y-146922619D02*
X156662380Y-146446428D01*
X155662380Y-146446428D01*
X156567142Y-147827380D02*
X156614761Y-147779761D01*
X156662380Y-147636904D01*
X156662380Y-147541666D01*
X156614761Y-147398809D01*
X156519523Y-147303571D01*
X156424285Y-147255952D01*
X156233809Y-147208333D01*
X156090952Y-147208333D01*
X155900476Y-147255952D01*
X155805238Y-147303571D01*
X155710000Y-147398809D01*
X155662380Y-147541666D01*
X155662380Y-147636904D01*
X155710000Y-147779761D01*
X155757619Y-147827380D01*
D12*
X148590000Y-149285000D02*
X135890000Y-149285000D01*
X148590000Y-91385000D02*
X135890000Y-91385000D01*
X154990000Y-149285000D02*
X148590000Y-149285000D01*
X154990000Y-91385000D02*
X148590000Y-91385000D01*
X154990000Y-91385000D02*
X97590000Y-91385000D01*
X97590000Y-149285000D02*
X135890000Y-149285000D01*
X154990000Y-149285000D02*
X157790000Y-149285000D01*
X157790000Y-149285000D02*
X157790000Y-91385000D01*
X157790000Y-91385000D02*
X154990000Y-91385000D01*
X97590000Y-149285000D02*
X94790000Y-149285000D01*
X94790000Y-149285000D02*
X94790000Y-91385000D01*
X94790000Y-91385000D02*
X97590000Y-91385000D01*
D10*
X145547142Y-144780238D02*
X145547142Y-148589761D01*
X147451904Y-146685000D02*
X143642380Y-146685000D01*
X139847142Y-144780238D02*
X139847142Y-148589761D01*
M02*
